%TF.GenerationSoftware,KiCad,Pcbnew,8.0.0*%
%TF.CreationDate,2025-11-06T21:26:23+03:00*%
%TF.ProjectId,Loewe VGA,4c6f6577-6520-4564-9741-2e6b69636164,rev?*%
%TF.SameCoordinates,Original*%
%TF.FileFunction,Copper,L2,Bot*%
%TF.FilePolarity,Positive*%
%FSLAX46Y46*%
G04 Gerber Fmt 4.6, Leading zero omitted, Abs format (unit mm)*
G04 Created by KiCad (PCBNEW 8.0.0) date 2025-11-06 21:26:23*
%MOMM*%
%LPD*%
G01*
G04 APERTURE LIST*
G04 Aperture macros list*
%AMRoundRect*
0 Rectangle with rounded corners*
0 $1 Rounding radius*
0 $2 $3 $4 $5 $6 $7 $8 $9 X,Y pos of 4 corners*
0 Add a 4 corners polygon primitive as box body*
4,1,4,$2,$3,$4,$5,$6,$7,$8,$9,$2,$3,0*
0 Add four circle primitives for the rounded corners*
1,1,$1+$1,$2,$3*
1,1,$1+$1,$4,$5*
1,1,$1+$1,$6,$7*
1,1,$1+$1,$8,$9*
0 Add four rect primitives between the rounded corners*
20,1,$1+$1,$2,$3,$4,$5,0*
20,1,$1+$1,$4,$5,$6,$7,0*
20,1,$1+$1,$6,$7,$8,$9,0*
20,1,$1+$1,$8,$9,$2,$3,0*%
G04 Aperture macros list end*
%TA.AperFunction,ComponentPad*%
%ADD10C,4.000000*%
%TD*%
%TA.AperFunction,ComponentPad*%
%ADD11R,1.600000X1.600000*%
%TD*%
%TA.AperFunction,ComponentPad*%
%ADD12C,1.600000*%
%TD*%
%TA.AperFunction,ComponentPad*%
%ADD13O,3.016000X1.508000*%
%TD*%
%TA.AperFunction,SMDPad,CuDef*%
%ADD14RoundRect,0.250000X1.500000X0.550000X-1.500000X0.550000X-1.500000X-0.550000X1.500000X-0.550000X0*%
%TD*%
%TA.AperFunction,ViaPad*%
%ADD15C,0.756400*%
%TD*%
%TA.AperFunction,ViaPad*%
%ADD16C,0.600000*%
%TD*%
%TA.AperFunction,Conductor*%
%ADD17C,0.300000*%
%TD*%
%TA.AperFunction,Conductor*%
%ADD18C,0.200000*%
%TD*%
G04 APERTURE END LIST*
D10*
%TO.P,W801,0*%
%TO.N,unconnected-(W801-Pad0)_0*%
X164879669Y-117385000D03*
%TO.N,unconnected-(W801-Pad0)*%
X164879669Y-92385000D03*
D11*
%TO.P,W801,1*%
%TO.N,/RED*%
X163459669Y-109200000D03*
D12*
%TO.P,W801,2*%
%TO.N,/GREEN*%
X163459669Y-106910000D03*
%TO.P,W801,3*%
%TO.N,/BLUE*%
X163459669Y-104620000D03*
%TO.P,W801,4*%
%TO.N,unconnected-(W801-Pad4)*%
X163459669Y-102330000D03*
%TO.P,W801,5*%
%TO.N,GND*%
X163459669Y-100040000D03*
%TO.P,W801,6*%
X165439669Y-110345000D03*
%TO.P,W801,7*%
X165439669Y-108055000D03*
%TO.P,W801,8*%
%TO.N,unconnected-(W801-Pad8)*%
X165439669Y-105765000D03*
%TO.P,W801,9*%
%TO.N,unconnected-(W801-Pad9)*%
X165439669Y-103475000D03*
%TO.P,W801,10*%
%TO.N,GND*%
X165439669Y-101185000D03*
%TO.P,W801,11*%
%TO.N,unconnected-(W801-Pad11)*%
X167419669Y-109200000D03*
%TO.P,W801,12*%
%TO.N,unconnected-(W801-Pad12)*%
X167419669Y-106910000D03*
%TO.P,W801,13*%
%TO.N,/HSYNC*%
X167419669Y-104620000D03*
%TO.P,W801,14*%
%TO.N,/VSYNC*%
X167419669Y-102330000D03*
%TO.P,W801,15*%
%TO.N,unconnected-(W801-Pad15)*%
X167419669Y-100040000D03*
%TD*%
D13*
%TO.P,W831,1,Pin_1*%
%TO.N,GND*%
X125001100Y-91158600D03*
%TO.P,W831,2,Pin_2*%
%TO.N,VCC*%
X125001100Y-93698600D03*
%TO.P,W831,3,Pin_3*%
%TO.N,GND*%
X125001100Y-96238600D03*
%TO.P,W831,4,Pin_4*%
%TO.N,Net-(W831-Pin_4)*%
X125001100Y-98778600D03*
%TO.P,W831,5,Pin_5*%
%TO.N,GND*%
X125001100Y-101318600D03*
%TO.P,W831,6,Pin_6*%
%TO.N,Net-(W831-Pin_6)*%
X125001100Y-103858600D03*
%TO.P,W831,7,Pin_7*%
%TO.N,GND*%
X125001100Y-106398600D03*
%TO.P,W831,8,Pin_8*%
%TO.N,/BLUE*%
X125001100Y-108938600D03*
%TO.P,W831,9,Pin_9*%
%TO.N,GND*%
X125001100Y-111478600D03*
%TO.P,W831,10,Pin_10*%
%TO.N,/GREEN*%
X125001100Y-114018600D03*
%TO.P,W831,11,Pin_11*%
%TO.N,GND*%
X125001100Y-116558600D03*
%TO.P,W831,12,Pin_12*%
%TO.N,/RED*%
X125001100Y-119098600D03*
%TD*%
D14*
%TO.P,C816,1*%
%TO.N,Net-(C816-Pad1)*%
X147300000Y-118000000D03*
%TO.P,C816,2*%
%TO.N,GND*%
X141700000Y-118000000D03*
%TD*%
D15*
%TO.N,VCC*%
X153001100Y-93378600D03*
X153001100Y-115628600D03*
D16*
%TO.N,Net-(C816-Pad1)*%
X147100000Y-116400000D03*
%TD*%
D17*
%TO.N,VCC*%
X153001100Y-93378600D02*
X153001100Y-115628600D01*
D18*
%TO.N,Net-(C816-Pad1)*%
X147100000Y-117800000D02*
X147300000Y-118000000D01*
X147100000Y-116400000D02*
X147100000Y-117800000D01*
%TD*%
%TA.AperFunction,Conductor*%
%TO.N,GND*%
G36*
X165039570Y-108362007D02*
G01*
X165132662Y-108455099D01*
X165232695Y-108512853D01*
X164755763Y-108989784D01*
X164755764Y-108989785D01*
X164922721Y-109093161D01*
X165017497Y-109129878D01*
X165056215Y-109163745D01*
X165064106Y-109214576D01*
X165037477Y-109258587D01*
X165017497Y-109270122D01*
X164922722Y-109306838D01*
X164922715Y-109306841D01*
X164755764Y-109410212D01*
X164755763Y-109410214D01*
X165232695Y-109887146D01*
X165132662Y-109944901D01*
X165039570Y-110037993D01*
X164981815Y-110138026D01*
X164507253Y-109663464D01*
X164492974Y-109664456D01*
X164443535Y-109650251D01*
X164414792Y-109607590D01*
X164412568Y-109589442D01*
X164412568Y-108810561D01*
X164430161Y-108762224D01*
X164474710Y-108736504D01*
X164492976Y-108735543D01*
X164507253Y-108736534D01*
X164981815Y-108261972D01*
X165039570Y-108362007D01*
G37*
%TD.AperFunction*%
%TA.AperFunction,Conductor*%
G36*
X175698738Y-88421693D02*
G01*
X175724458Y-88466242D01*
X175725600Y-88479300D01*
X175725600Y-121527900D01*
X175708007Y-121576238D01*
X175663458Y-121601958D01*
X175650400Y-121603100D01*
X121351800Y-121603100D01*
X121303462Y-121585507D01*
X121277742Y-121540958D01*
X121276600Y-121527900D01*
X121276600Y-119187922D01*
X123340200Y-119187922D01*
X123375052Y-119363133D01*
X123443416Y-119528178D01*
X123542665Y-119676715D01*
X123542667Y-119676717D01*
X123542669Y-119676720D01*
X123668979Y-119803030D01*
X123668982Y-119803032D01*
X123668985Y-119803035D01*
X123817522Y-119902284D01*
X123982567Y-119970648D01*
X124087693Y-119991559D01*
X124157776Y-120005500D01*
X124157778Y-120005500D01*
X125844424Y-120005500D01*
X125902825Y-119993882D01*
X126019633Y-119970648D01*
X126184678Y-119902284D01*
X126333215Y-119803035D01*
X126459535Y-119676715D01*
X126558784Y-119528178D01*
X126627148Y-119363133D01*
X126662000Y-119187922D01*
X126662000Y-119009278D01*
X126652614Y-118962094D01*
X126636288Y-118880016D01*
X126627148Y-118834067D01*
X126558784Y-118669022D01*
X126459535Y-118520485D01*
X126459532Y-118520482D01*
X126459530Y-118520479D01*
X126333220Y-118394169D01*
X126333217Y-118394167D01*
X126333215Y-118394165D01*
X126184678Y-118294916D01*
X126019633Y-118226552D01*
X126019630Y-118226551D01*
X126019629Y-118226551D01*
X125844424Y-118191700D01*
X125844422Y-118191700D01*
X124157778Y-118191700D01*
X124157776Y-118191700D01*
X123982570Y-118226551D01*
X123982567Y-118226552D01*
X123817523Y-118294915D01*
X123668982Y-118394167D01*
X123668979Y-118394169D01*
X123542669Y-118520479D01*
X123542667Y-118520482D01*
X123443415Y-118669023D01*
X123375052Y-118834067D01*
X123375051Y-118834070D01*
X123345755Y-118981349D01*
X123340200Y-119009278D01*
X123340200Y-119187922D01*
X121276600Y-119187922D01*
X121276600Y-118177400D01*
X139595200Y-118177400D01*
X139595200Y-118589639D01*
X139610767Y-118707886D01*
X139671707Y-118855008D01*
X139671709Y-118855011D01*
X139768650Y-118981349D01*
X139894988Y-119078290D01*
X139894991Y-119078292D01*
X140042113Y-119139232D01*
X140160361Y-119154800D01*
X141522600Y-119154800D01*
X141522600Y-118177400D01*
X141877400Y-118177400D01*
X141877400Y-119154800D01*
X143239639Y-119154800D01*
X143357886Y-119139232D01*
X143505008Y-119078292D01*
X143505011Y-119078290D01*
X143631349Y-118981349D01*
X143728290Y-118855011D01*
X143728292Y-118855008D01*
X143789232Y-118707886D01*
X143804800Y-118589639D01*
X143804800Y-118581710D01*
X145397100Y-118581710D01*
X145412043Y-118676056D01*
X145469984Y-118789771D01*
X145560229Y-118880016D01*
X145673943Y-118937956D01*
X145673945Y-118937957D01*
X145768292Y-118952900D01*
X145768296Y-118952900D01*
X148831704Y-118952900D01*
X148831708Y-118952900D01*
X148926055Y-118937957D01*
X149039771Y-118880016D01*
X149130016Y-118789771D01*
X149187957Y-118676055D01*
X149202900Y-118581708D01*
X149202900Y-117418292D01*
X149197627Y-117385000D01*
X162721738Y-117385000D01*
X162741837Y-117678838D01*
X162741837Y-117678842D01*
X162741838Y-117678844D01*
X162741838Y-117678846D01*
X162801758Y-117967196D01*
X162801762Y-117967208D01*
X162900388Y-118244719D01*
X162900389Y-118244720D01*
X163035894Y-118506232D01*
X163205730Y-118746834D01*
X163205733Y-118746837D01*
X163205738Y-118746844D01*
X163384223Y-118937956D01*
X163398178Y-118952899D01*
X163406766Y-118962094D01*
X163549591Y-119078290D01*
X163635238Y-119147969D01*
X163886877Y-119300993D01*
X163886884Y-119300997D01*
X164157012Y-119418330D01*
X164157015Y-119418331D01*
X164157022Y-119418334D01*
X164440625Y-119497796D01*
X164732407Y-119537900D01*
X164732412Y-119537900D01*
X165026926Y-119537900D01*
X165026931Y-119537900D01*
X165318713Y-119497796D01*
X165602316Y-119418334D01*
X165872458Y-119300995D01*
X166058399Y-119187922D01*
X166124099Y-119147969D01*
X166124100Y-119147967D01*
X166124105Y-119147965D01*
X166352572Y-118962094D01*
X166553600Y-118746844D01*
X166664568Y-118589639D01*
X166723443Y-118506232D01*
X166723443Y-118506230D01*
X166723447Y-118506226D01*
X166858948Y-118244722D01*
X166957578Y-117967203D01*
X167017501Y-117678838D01*
X167037600Y-117385000D01*
X167017501Y-117091162D01*
X166957578Y-116802797D01*
X166860239Y-116528911D01*
X166858949Y-116525280D01*
X166858948Y-116525279D01*
X166858948Y-116525278D01*
X166723447Y-116263774D01*
X166723445Y-116263772D01*
X166723443Y-116263767D01*
X166553607Y-116023165D01*
X166553604Y-116023162D01*
X166553600Y-116023156D01*
X166352572Y-115807906D01*
X166179251Y-115666900D01*
X166124099Y-115622030D01*
X165872460Y-115469006D01*
X165872453Y-115469002D01*
X165602325Y-115351669D01*
X165602316Y-115351666D01*
X165318712Y-115272203D01*
X165155812Y-115249814D01*
X165026931Y-115232100D01*
X164732407Y-115232100D01*
X164613563Y-115248434D01*
X164440625Y-115272203D01*
X164157021Y-115351666D01*
X164157012Y-115351669D01*
X163886884Y-115469002D01*
X163886877Y-115469006D01*
X163635238Y-115622030D01*
X163406763Y-115807908D01*
X163324078Y-115896444D01*
X163205738Y-116023156D01*
X163205735Y-116023159D01*
X163205735Y-116023160D01*
X163205730Y-116023165D01*
X163035894Y-116263767D01*
X162900389Y-116525279D01*
X162900388Y-116525280D01*
X162801762Y-116802791D01*
X162801758Y-116802803D01*
X162741838Y-117091153D01*
X162741838Y-117091155D01*
X162741837Y-117091162D01*
X162721738Y-117385000D01*
X149197627Y-117385000D01*
X149187957Y-117323945D01*
X149130016Y-117210229D01*
X149039771Y-117119984D01*
X148926055Y-117062043D01*
X148926057Y-117062043D01*
X148831710Y-117047100D01*
X148831708Y-117047100D01*
X147428100Y-117047100D01*
X147379762Y-117029507D01*
X147354042Y-116984958D01*
X147352900Y-116971900D01*
X147352900Y-116816897D01*
X147370493Y-116768559D01*
X147387445Y-116753634D01*
X147399633Y-116745801D01*
X147399633Y-116745800D01*
X147399636Y-116745799D01*
X147484921Y-116647374D01*
X147539023Y-116528909D01*
X147557557Y-116400000D01*
X147539023Y-116271091D01*
X147535681Y-116263774D01*
X147484921Y-116152626D01*
X147484919Y-116152623D01*
X147432833Y-116092513D01*
X147399636Y-116054201D01*
X147399635Y-116054200D01*
X147399633Y-116054198D01*
X147290073Y-115983790D01*
X147165117Y-115947100D01*
X147034883Y-115947100D01*
X146909926Y-115983790D01*
X146800366Y-116054198D01*
X146715080Y-116152623D01*
X146715078Y-116152626D01*
X146660977Y-116271088D01*
X146642443Y-116400000D01*
X146660977Y-116528911D01*
X146715078Y-116647373D01*
X146715080Y-116647376D01*
X146800366Y-116745801D01*
X146812555Y-116753634D01*
X146843708Y-116794567D01*
X146847100Y-116816897D01*
X146847100Y-116971900D01*
X146829507Y-117020238D01*
X146784958Y-117045958D01*
X146771900Y-117047100D01*
X145768289Y-117047100D01*
X145673943Y-117062043D01*
X145560228Y-117119984D01*
X145469984Y-117210228D01*
X145412043Y-117323943D01*
X145397100Y-117418289D01*
X145397100Y-118581710D01*
X143804800Y-118581710D01*
X143804800Y-118177400D01*
X141877400Y-118177400D01*
X141522600Y-118177400D01*
X139595200Y-118177400D01*
X121276600Y-118177400D01*
X121276600Y-117822600D01*
X139595200Y-117822600D01*
X141522600Y-117822600D01*
X141522600Y-116845200D01*
X141877400Y-116845200D01*
X141877400Y-117822600D01*
X143804800Y-117822600D01*
X143804800Y-117410360D01*
X143789232Y-117292113D01*
X143728292Y-117144991D01*
X143728290Y-117144988D01*
X143631349Y-117018650D01*
X143505011Y-116921709D01*
X143505008Y-116921707D01*
X143357886Y-116860767D01*
X143239639Y-116845200D01*
X141877400Y-116845200D01*
X141522600Y-116845200D01*
X140160361Y-116845200D01*
X140042113Y-116860767D01*
X139894991Y-116921707D01*
X139894988Y-116921709D01*
X139768650Y-117018650D01*
X139671709Y-117144988D01*
X139671707Y-117144991D01*
X139610767Y-117292113D01*
X139595200Y-117410360D01*
X139595200Y-117822600D01*
X121276600Y-117822600D01*
X121276600Y-116381199D01*
X123152575Y-116381199D01*
X123152576Y-116381200D01*
X124530997Y-116381200D01*
X124501100Y-116492774D01*
X124501100Y-116624426D01*
X124530997Y-116736000D01*
X123152576Y-116736000D01*
X123165600Y-116818240D01*
X123165604Y-116818257D01*
X123219533Y-116984231D01*
X123298771Y-117139742D01*
X123401347Y-117280927D01*
X123401358Y-117280940D01*
X123524759Y-117404341D01*
X123524772Y-117404352D01*
X123665957Y-117506928D01*
X123821468Y-117586166D01*
X123987442Y-117640095D01*
X123987459Y-117640099D01*
X124159831Y-117667399D01*
X124159842Y-117667400D01*
X124823700Y-117667400D01*
X124823700Y-117028703D01*
X124935274Y-117058600D01*
X125066926Y-117058600D01*
X125178500Y-117028703D01*
X125178500Y-117667400D01*
X125842358Y-117667400D01*
X125842368Y-117667399D01*
X126014740Y-117640099D01*
X126014757Y-117640095D01*
X126180731Y-117586166D01*
X126336242Y-117506928D01*
X126477427Y-117404352D01*
X126477440Y-117404341D01*
X126600841Y-117280940D01*
X126600852Y-117280927D01*
X126703428Y-117139742D01*
X126782666Y-116984231D01*
X126836595Y-116818257D01*
X126836599Y-116818240D01*
X126849624Y-116736000D01*
X125471203Y-116736000D01*
X125501100Y-116624426D01*
X125501100Y-116492774D01*
X125471203Y-116381200D01*
X126849624Y-116381200D01*
X126849624Y-116381199D01*
X126836599Y-116298959D01*
X126836595Y-116298942D01*
X126782666Y-116132968D01*
X126703428Y-115977457D01*
X126600852Y-115836272D01*
X126600841Y-115836259D01*
X126477440Y-115712858D01*
X126477427Y-115712847D01*
X126361470Y-115628600D01*
X152465417Y-115628600D01*
X152483670Y-115767246D01*
X152537186Y-115896444D01*
X152622314Y-116007385D01*
X152683326Y-116054201D01*
X152733258Y-116092515D01*
X152862455Y-116146030D01*
X153001100Y-116164283D01*
X153139745Y-116146030D01*
X153268942Y-116092515D01*
X153379885Y-116007385D01*
X153465015Y-115896442D01*
X153518530Y-115767245D01*
X153536783Y-115628600D01*
X153518530Y-115489955D01*
X153465015Y-115360759D01*
X153379885Y-115249815D01*
X153356799Y-115232100D01*
X153333421Y-115214161D01*
X153305782Y-115170777D01*
X153304000Y-115154501D01*
X153304000Y-110015055D01*
X162506769Y-110015055D01*
X162506770Y-110015057D01*
X162515641Y-110059659D01*
X162549433Y-110110232D01*
X162549434Y-110110232D01*
X162549435Y-110110234D01*
X162600011Y-110144028D01*
X162644612Y-110152900D01*
X164215232Y-110152899D01*
X164263570Y-110170492D01*
X164289290Y-110215041D01*
X164290111Y-110235037D01*
X164279922Y-110344996D01*
X164279922Y-110345002D01*
X164299669Y-110558102D01*
X164299670Y-110558111D01*
X164358234Y-110763940D01*
X164358240Y-110763956D01*
X164453629Y-110955524D01*
X164507253Y-111026534D01*
X164981815Y-110551972D01*
X165039570Y-110652007D01*
X165132662Y-110745099D01*
X165232695Y-110802853D01*
X164755763Y-111279784D01*
X164755764Y-111279785D01*
X164922721Y-111383161D01*
X165122288Y-111460473D01*
X165332664Y-111499799D01*
X165332665Y-111499800D01*
X165546673Y-111499800D01*
X165546673Y-111499799D01*
X165757049Y-111460473D01*
X165956615Y-111383161D01*
X165956616Y-111383161D01*
X166123572Y-111279785D01*
X166123573Y-111279784D01*
X165646642Y-110802853D01*
X165746676Y-110745099D01*
X165839768Y-110652007D01*
X165897522Y-110551973D01*
X166372083Y-111026534D01*
X166425710Y-110955521D01*
X166521097Y-110763956D01*
X166521103Y-110763940D01*
X166579667Y-110558111D01*
X166579668Y-110558102D01*
X166599416Y-110345002D01*
X166599416Y-110344997D01*
X166579668Y-110131897D01*
X166579667Y-110131888D01*
X166521103Y-109926059D01*
X166521097Y-109926043D01*
X166425708Y-109734475D01*
X166372083Y-109663464D01*
X165897521Y-110138025D01*
X165839768Y-110037993D01*
X165746676Y-109944901D01*
X165646642Y-109887146D01*
X166123573Y-109410214D01*
X165956616Y-109306838D01*
X165861840Y-109270122D01*
X165823122Y-109236255D01*
X165817494Y-109200000D01*
X166462158Y-109200000D01*
X166480555Y-109386799D01*
X166535045Y-109566427D01*
X166623522Y-109731955D01*
X166623528Y-109731965D01*
X166742606Y-109877063D01*
X166887704Y-109996141D01*
X166887710Y-109996144D01*
X166887713Y-109996146D01*
X167053241Y-110084623D01*
X167053242Y-110084623D01*
X167053245Y-110084625D01*
X167232868Y-110139113D01*
X167419669Y-110157511D01*
X167606470Y-110139113D01*
X167786093Y-110084625D01*
X167951634Y-109996141D01*
X168096732Y-109877063D01*
X168215810Y-109731965D01*
X168304294Y-109566424D01*
X168358782Y-109386801D01*
X168377180Y-109200000D01*
X168358782Y-109013199D01*
X168304294Y-108833576D01*
X168291993Y-108810562D01*
X168215815Y-108668044D01*
X168215809Y-108668034D01*
X168213747Y-108665521D01*
X168096732Y-108522937D01*
X167951634Y-108403859D01*
X167951624Y-108403853D01*
X167786096Y-108315376D01*
X167786097Y-108315376D01*
X167606467Y-108260886D01*
X167606468Y-108260886D01*
X167419669Y-108242489D01*
X167232869Y-108260886D01*
X167053241Y-108315376D01*
X166887713Y-108403853D01*
X166887703Y-108403859D01*
X166742606Y-108522937D01*
X166623528Y-108668034D01*
X166623522Y-108668044D01*
X166535045Y-108833572D01*
X166480555Y-109013200D01*
X166462158Y-109200000D01*
X165817494Y-109200000D01*
X165815231Y-109185424D01*
X165841860Y-109141413D01*
X165861840Y-109129878D01*
X165956615Y-109093161D01*
X165956616Y-109093161D01*
X166123572Y-108989785D01*
X166123573Y-108989784D01*
X165646642Y-108512853D01*
X165746676Y-108455099D01*
X165839768Y-108362007D01*
X165897522Y-108261973D01*
X166372083Y-108736534D01*
X166425710Y-108665521D01*
X166521097Y-108473956D01*
X166521103Y-108473940D01*
X166579667Y-108268111D01*
X166579668Y-108268102D01*
X166599416Y-108055002D01*
X166599416Y-108054997D01*
X166579668Y-107841897D01*
X166579667Y-107841888D01*
X166521103Y-107636059D01*
X166521097Y-107636043D01*
X166425708Y-107444475D01*
X166372083Y-107373464D01*
X165897521Y-107848025D01*
X165839768Y-107747993D01*
X165746676Y-107654901D01*
X165646642Y-107597146D01*
X166123573Y-107120214D01*
X165956616Y-107016838D01*
X165757049Y-106939526D01*
X165599098Y-106910000D01*
X166462158Y-106910000D01*
X166480555Y-107096799D01*
X166535045Y-107276427D01*
X166623522Y-107441955D01*
X166623528Y-107441965D01*
X166742606Y-107587063D01*
X166887704Y-107706141D01*
X166887710Y-107706144D01*
X166887713Y-107706146D01*
X167053241Y-107794623D01*
X167053242Y-107794623D01*
X167053245Y-107794625D01*
X167232868Y-107849113D01*
X167419669Y-107867511D01*
X167606470Y-107849113D01*
X167786093Y-107794625D01*
X167951634Y-107706141D01*
X168096732Y-107587063D01*
X168215810Y-107441965D01*
X168304294Y-107276424D01*
X168358782Y-107096801D01*
X168377180Y-106910000D01*
X168358782Y-106723199D01*
X168304294Y-106543576D01*
X168250034Y-106442063D01*
X168215815Y-106378044D01*
X168215809Y-106378034D01*
X168096732Y-106232937D01*
X167951634Y-106113859D01*
X167951624Y-106113853D01*
X167786096Y-106025376D01*
X167786097Y-106025376D01*
X167606467Y-105970886D01*
X167606468Y-105970886D01*
X167419669Y-105952489D01*
X167232869Y-105970886D01*
X167053241Y-106025376D01*
X166887713Y-106113853D01*
X166887703Y-106113859D01*
X166742606Y-106232937D01*
X166623528Y-106378034D01*
X166623522Y-106378044D01*
X166535045Y-106543572D01*
X166480555Y-106723200D01*
X166462158Y-106910000D01*
X165599098Y-106910000D01*
X165546673Y-106900200D01*
X165332665Y-106900200D01*
X165122288Y-106939526D01*
X164922722Y-107016838D01*
X164922715Y-107016841D01*
X164755764Y-107120212D01*
X164755763Y-107120214D01*
X165232695Y-107597146D01*
X165132662Y-107654901D01*
X165039570Y-107747993D01*
X164981815Y-107848026D01*
X164507253Y-107373464D01*
X164453627Y-107444479D01*
X164358240Y-107636043D01*
X164358234Y-107636059D01*
X164299670Y-107841888D01*
X164299669Y-107841897D01*
X164279922Y-108054997D01*
X164279922Y-108055003D01*
X164290111Y-108164962D01*
X164277053Y-108214716D01*
X164235068Y-108244437D01*
X164215232Y-108247100D01*
X162644613Y-108247100D01*
X162644611Y-108247101D01*
X162600009Y-108255972D01*
X162549436Y-108289764D01*
X162515641Y-108340342D01*
X162515640Y-108340343D01*
X162506769Y-108384942D01*
X162506769Y-110015055D01*
X153304000Y-110015055D01*
X153304000Y-106910000D01*
X162502158Y-106910000D01*
X162520555Y-107096799D01*
X162575045Y-107276427D01*
X162663522Y-107441955D01*
X162663528Y-107441965D01*
X162782606Y-107587063D01*
X162927704Y-107706141D01*
X162927710Y-107706144D01*
X162927713Y-107706146D01*
X163093241Y-107794623D01*
X163093242Y-107794623D01*
X163093245Y-107794625D01*
X163272868Y-107849113D01*
X163459669Y-107867511D01*
X163646470Y-107849113D01*
X163826093Y-107794625D01*
X163991634Y-107706141D01*
X164136732Y-107587063D01*
X164255810Y-107441965D01*
X164344294Y-107276424D01*
X164398782Y-107096801D01*
X164417180Y-106910000D01*
X164398782Y-106723199D01*
X164344294Y-106543576D01*
X164290034Y-106442063D01*
X164255815Y-106378044D01*
X164255809Y-106378034D01*
X164136732Y-106232937D01*
X163991634Y-106113859D01*
X163991624Y-106113853D01*
X163826096Y-106025376D01*
X163826097Y-106025376D01*
X163646467Y-105970886D01*
X163646468Y-105970886D01*
X163459669Y-105952489D01*
X163272869Y-105970886D01*
X163093241Y-106025376D01*
X162927713Y-106113853D01*
X162927703Y-106113859D01*
X162782606Y-106232937D01*
X162663528Y-106378034D01*
X162663522Y-106378044D01*
X162575045Y-106543572D01*
X162520555Y-106723200D01*
X162502158Y-106910000D01*
X153304000Y-106910000D01*
X153304000Y-105765000D01*
X164482158Y-105765000D01*
X164500555Y-105951799D01*
X164555045Y-106131427D01*
X164643522Y-106296955D01*
X164643528Y-106296965D01*
X164762606Y-106442063D01*
X164907704Y-106561141D01*
X164907710Y-106561144D01*
X164907713Y-106561146D01*
X165073241Y-106649623D01*
X165073242Y-106649623D01*
X165073245Y-106649625D01*
X165252868Y-106704113D01*
X165439669Y-106722511D01*
X165626470Y-106704113D01*
X165806093Y-106649625D01*
X165971634Y-106561141D01*
X166116732Y-106442063D01*
X166235810Y-106296965D01*
X166324294Y-106131424D01*
X166378782Y-105951801D01*
X166397180Y-105765000D01*
X166378782Y-105578199D01*
X166324294Y-105398576D01*
X166270034Y-105297063D01*
X166235815Y-105233044D01*
X166235809Y-105233034D01*
X166116732Y-105087937D01*
X165971634Y-104968859D01*
X165971624Y-104968853D01*
X165806096Y-104880376D01*
X165806097Y-104880376D01*
X165626467Y-104825886D01*
X165626468Y-104825886D01*
X165439669Y-104807489D01*
X165252869Y-104825886D01*
X165073241Y-104880376D01*
X164907713Y-104968853D01*
X164907703Y-104968859D01*
X164762606Y-105087937D01*
X164643528Y-105233034D01*
X164643522Y-105233044D01*
X164555045Y-105398572D01*
X164500555Y-105578200D01*
X164482158Y-105765000D01*
X153304000Y-105765000D01*
X153304000Y-104620000D01*
X162502158Y-104620000D01*
X162520555Y-104806799D01*
X162575045Y-104986427D01*
X162663522Y-105151955D01*
X162663528Y-105151965D01*
X162782606Y-105297063D01*
X162927704Y-105416141D01*
X162927710Y-105416144D01*
X162927713Y-105416146D01*
X163093241Y-105504623D01*
X163093242Y-105504623D01*
X163093245Y-105504625D01*
X163272868Y-105559113D01*
X163459669Y-105577511D01*
X163646470Y-105559113D01*
X163826093Y-105504625D01*
X163991634Y-105416141D01*
X164136732Y-105297063D01*
X164255810Y-105151965D01*
X164344294Y-104986424D01*
X164398782Y-104806801D01*
X164417180Y-104620000D01*
X166462158Y-104620000D01*
X166480555Y-104806799D01*
X166535045Y-104986427D01*
X166623522Y-105151955D01*
X166623528Y-105151965D01*
X166742606Y-105297063D01*
X166887704Y-105416141D01*
X166887710Y-105416144D01*
X166887713Y-105416146D01*
X167053241Y-105504623D01*
X167053242Y-105504623D01*
X167053245Y-105504625D01*
X167232868Y-105559113D01*
X167419669Y-105577511D01*
X167606470Y-105559113D01*
X167786093Y-105504625D01*
X167951634Y-105416141D01*
X168096732Y-105297063D01*
X168215810Y-105151965D01*
X168304294Y-104986424D01*
X168358782Y-104806801D01*
X168377180Y-104620000D01*
X168358782Y-104433199D01*
X168304294Y-104253576D01*
X168250034Y-104152063D01*
X168215815Y-104088044D01*
X168215809Y-104088034D01*
X168096732Y-103942937D01*
X167951634Y-103823859D01*
X167951624Y-103823853D01*
X167786096Y-103735376D01*
X167786097Y-103735376D01*
X167606467Y-103680886D01*
X167606468Y-103680886D01*
X167419669Y-103662489D01*
X167232869Y-103680886D01*
X167053241Y-103735376D01*
X166887713Y-103823853D01*
X166887703Y-103823859D01*
X166742606Y-103942937D01*
X166623528Y-104088034D01*
X166623522Y-104088044D01*
X166535045Y-104253572D01*
X166480555Y-104433200D01*
X166462158Y-104620000D01*
X164417180Y-104620000D01*
X164398782Y-104433199D01*
X164344294Y-104253576D01*
X164290034Y-104152063D01*
X164255815Y-104088044D01*
X164255809Y-104088034D01*
X164136732Y-103942937D01*
X163991634Y-103823859D01*
X163991624Y-103823853D01*
X163826096Y-103735376D01*
X163826097Y-103735376D01*
X163646467Y-103680886D01*
X163646468Y-103680886D01*
X163459669Y-103662489D01*
X163272869Y-103680886D01*
X163093241Y-103735376D01*
X162927713Y-103823853D01*
X162927703Y-103823859D01*
X162782606Y-103942937D01*
X162663528Y-104088034D01*
X162663522Y-104088044D01*
X162575045Y-104253572D01*
X162520555Y-104433200D01*
X162502158Y-104620000D01*
X153304000Y-104620000D01*
X153304000Y-103475000D01*
X164482158Y-103475000D01*
X164500555Y-103661799D01*
X164555045Y-103841427D01*
X164643522Y-104006955D01*
X164643528Y-104006965D01*
X164762606Y-104152063D01*
X164907704Y-104271141D01*
X164907710Y-104271144D01*
X164907713Y-104271146D01*
X165073241Y-104359623D01*
X165073242Y-104359623D01*
X165073245Y-104359625D01*
X165252868Y-104414113D01*
X165439669Y-104432511D01*
X165626470Y-104414113D01*
X165806093Y-104359625D01*
X165971634Y-104271141D01*
X166116732Y-104152063D01*
X166235810Y-104006965D01*
X166324294Y-103841424D01*
X166378782Y-103661801D01*
X166397180Y-103475000D01*
X166378782Y-103288199D01*
X166324294Y-103108576D01*
X166295612Y-103054916D01*
X166235815Y-102943044D01*
X166235809Y-102943034D01*
X166116732Y-102797937D01*
X165971634Y-102678859D01*
X165971624Y-102678853D01*
X165806096Y-102590376D01*
X165806097Y-102590376D01*
X165626467Y-102535886D01*
X165626468Y-102535886D01*
X165439669Y-102517489D01*
X165252869Y-102535886D01*
X165073241Y-102590376D01*
X164907713Y-102678853D01*
X164907703Y-102678859D01*
X164762606Y-102797937D01*
X164643528Y-102943034D01*
X164643522Y-102943044D01*
X164555045Y-103108572D01*
X164500555Y-103288200D01*
X164482158Y-103475000D01*
X153304000Y-103475000D01*
X153304000Y-102330000D01*
X162502158Y-102330000D01*
X162520555Y-102516799D01*
X162575045Y-102696427D01*
X162663522Y-102861955D01*
X162663528Y-102861965D01*
X162782606Y-103007063D01*
X162927704Y-103126141D01*
X162927710Y-103126144D01*
X162927713Y-103126146D01*
X163093241Y-103214623D01*
X163093242Y-103214623D01*
X163093245Y-103214625D01*
X163272868Y-103269113D01*
X163459669Y-103287511D01*
X163646470Y-103269113D01*
X163826093Y-103214625D01*
X163991634Y-103126141D01*
X164136732Y-103007063D01*
X164255810Y-102861965D01*
X164344294Y-102696424D01*
X164398782Y-102516801D01*
X164417180Y-102330000D01*
X164398782Y-102143199D01*
X164344294Y-101963576D01*
X164255810Y-101798035D01*
X164136732Y-101652937D01*
X163991634Y-101533859D01*
X163991624Y-101533853D01*
X163826096Y-101445376D01*
X163826097Y-101445376D01*
X163646467Y-101390886D01*
X163646468Y-101390886D01*
X163459669Y-101372489D01*
X163272869Y-101390886D01*
X163093241Y-101445376D01*
X162927713Y-101533853D01*
X162927703Y-101533859D01*
X162782606Y-101652937D01*
X162663528Y-101798034D01*
X162663522Y-101798044D01*
X162575045Y-101963572D01*
X162520555Y-102143200D01*
X162502158Y-102330000D01*
X153304000Y-102330000D01*
X153304000Y-100040002D01*
X162299922Y-100040002D01*
X162319669Y-100253102D01*
X162319670Y-100253111D01*
X162378234Y-100458940D01*
X162378240Y-100458956D01*
X162473629Y-100650524D01*
X162527253Y-100721534D01*
X163001815Y-100246972D01*
X163059570Y-100347007D01*
X163152662Y-100440099D01*
X163252696Y-100497853D01*
X162775764Y-100974785D01*
X162942721Y-101078161D01*
X163142288Y-101155473D01*
X163352664Y-101194799D01*
X163352665Y-101194800D01*
X163566673Y-101194800D01*
X163566673Y-101194799D01*
X163777049Y-101155473D01*
X163976615Y-101078161D01*
X163976616Y-101078161D01*
X164158575Y-100965496D01*
X164169880Y-100955190D01*
X164217453Y-100935624D01*
X164266473Y-100951215D01*
X164294003Y-100994668D01*
X164295424Y-101017698D01*
X164279922Y-101184996D01*
X164279922Y-101185002D01*
X164299669Y-101398102D01*
X164299670Y-101398111D01*
X164358234Y-101603940D01*
X164358240Y-101603956D01*
X164453629Y-101795524D01*
X164507253Y-101866534D01*
X164981814Y-101391972D01*
X165039570Y-101492007D01*
X165132662Y-101585099D01*
X165232695Y-101642853D01*
X164755763Y-102119784D01*
X164755764Y-102119785D01*
X164922721Y-102223161D01*
X165122288Y-102300473D01*
X165332664Y-102339799D01*
X165332665Y-102339800D01*
X165546673Y-102339800D01*
X165546673Y-102339799D01*
X165599093Y-102330000D01*
X166462158Y-102330000D01*
X166480555Y-102516799D01*
X166535045Y-102696427D01*
X166623522Y-102861955D01*
X166623528Y-102861965D01*
X166742606Y-103007063D01*
X166887704Y-103126141D01*
X166887710Y-103126144D01*
X166887713Y-103126146D01*
X167053241Y-103214623D01*
X167053242Y-103214623D01*
X167053245Y-103214625D01*
X167232868Y-103269113D01*
X167419669Y-103287511D01*
X167606470Y-103269113D01*
X167786093Y-103214625D01*
X167951634Y-103126141D01*
X168096732Y-103007063D01*
X168215810Y-102861965D01*
X168304294Y-102696424D01*
X168358782Y-102516801D01*
X168377180Y-102330000D01*
X168358782Y-102143199D01*
X168304294Y-101963576D01*
X168215810Y-101798035D01*
X168096732Y-101652937D01*
X167951634Y-101533859D01*
X167951624Y-101533853D01*
X167786096Y-101445376D01*
X167786097Y-101445376D01*
X167606467Y-101390886D01*
X167606468Y-101390886D01*
X167419669Y-101372489D01*
X167232869Y-101390886D01*
X167053241Y-101445376D01*
X166887713Y-101533853D01*
X166887703Y-101533859D01*
X166742606Y-101652937D01*
X166623528Y-101798034D01*
X166623522Y-101798044D01*
X166535045Y-101963572D01*
X166480555Y-102143200D01*
X166462158Y-102330000D01*
X165599093Y-102330000D01*
X165757049Y-102300473D01*
X165956615Y-102223161D01*
X165956616Y-102223161D01*
X166123572Y-102119785D01*
X166123573Y-102119784D01*
X165646642Y-101642853D01*
X165746676Y-101585099D01*
X165839768Y-101492007D01*
X165897522Y-101391973D01*
X166372083Y-101866534D01*
X166425710Y-101795521D01*
X166521097Y-101603956D01*
X166521103Y-101603940D01*
X166579667Y-101398111D01*
X166579668Y-101398102D01*
X166599416Y-101185002D01*
X166599416Y-101184997D01*
X166579668Y-100971897D01*
X166579667Y-100971888D01*
X166521103Y-100766059D01*
X166521097Y-100766043D01*
X166425708Y-100574475D01*
X166372083Y-100503464D01*
X165897521Y-100978025D01*
X165839768Y-100877993D01*
X165746676Y-100784901D01*
X165646641Y-100727145D01*
X166123573Y-100250214D01*
X165956616Y-100146838D01*
X165757049Y-100069526D01*
X165599098Y-100040000D01*
X166462158Y-100040000D01*
X166480555Y-100226799D01*
X166535045Y-100406427D01*
X166623522Y-100571955D01*
X166623528Y-100571965D01*
X166742606Y-100717063D01*
X166887704Y-100836141D01*
X166887710Y-100836144D01*
X166887713Y-100836146D01*
X167053241Y-100924623D01*
X167053242Y-100924623D01*
X167053245Y-100924625D01*
X167232868Y-100979113D01*
X167419669Y-100997511D01*
X167606470Y-100979113D01*
X167786093Y-100924625D01*
X167951634Y-100836141D01*
X168096732Y-100717063D01*
X168215810Y-100571965D01*
X168304294Y-100406424D01*
X168358782Y-100226801D01*
X168377180Y-100040000D01*
X168358782Y-99853199D01*
X168304294Y-99673576D01*
X168276223Y-99621059D01*
X168215815Y-99508044D01*
X168215809Y-99508034D01*
X168195293Y-99483035D01*
X168096732Y-99362937D01*
X167951634Y-99243859D01*
X167951624Y-99243853D01*
X167786096Y-99155376D01*
X167786097Y-99155376D01*
X167606467Y-99100886D01*
X167606468Y-99100886D01*
X167419669Y-99082489D01*
X167232869Y-99100886D01*
X167053241Y-99155376D01*
X166887713Y-99243853D01*
X166887703Y-99243859D01*
X166742606Y-99362937D01*
X166623528Y-99508034D01*
X166623522Y-99508044D01*
X166535045Y-99673572D01*
X166480555Y-99853200D01*
X166462158Y-100040000D01*
X165599098Y-100040000D01*
X165546673Y-100030200D01*
X165332665Y-100030200D01*
X165122288Y-100069526D01*
X164922722Y-100146838D01*
X164922721Y-100146838D01*
X164740762Y-100259503D01*
X164729453Y-100269813D01*
X164681878Y-100289376D01*
X164632859Y-100273781D01*
X164605333Y-100230326D01*
X164603913Y-100207300D01*
X164619416Y-100040002D01*
X164619416Y-100039997D01*
X164599668Y-99826897D01*
X164599667Y-99826888D01*
X164541103Y-99621059D01*
X164541097Y-99621043D01*
X164445708Y-99429475D01*
X164392083Y-99358464D01*
X163917522Y-99833026D01*
X163859768Y-99732993D01*
X163766676Y-99639901D01*
X163666642Y-99582146D01*
X164143573Y-99105214D01*
X163976616Y-99001838D01*
X163777049Y-98924526D01*
X163566673Y-98885200D01*
X163352665Y-98885200D01*
X163142288Y-98924526D01*
X162942722Y-99001838D01*
X162942715Y-99001841D01*
X162775764Y-99105212D01*
X162775763Y-99105214D01*
X163252695Y-99582146D01*
X163152662Y-99639901D01*
X163059570Y-99732993D01*
X163001815Y-99833026D01*
X162527253Y-99358464D01*
X162473627Y-99429479D01*
X162378240Y-99621043D01*
X162378234Y-99621059D01*
X162319670Y-99826888D01*
X162319669Y-99826897D01*
X162299922Y-100039997D01*
X162299922Y-100040002D01*
X153304000Y-100040002D01*
X153304000Y-93852697D01*
X153321593Y-93804359D01*
X153333417Y-93793040D01*
X153379885Y-93757385D01*
X153465015Y-93646442D01*
X153518530Y-93517245D01*
X153536783Y-93378600D01*
X153518530Y-93239955D01*
X153465015Y-93110759D01*
X153379885Y-92999814D01*
X153268944Y-92914686D01*
X153268939Y-92914684D01*
X153221213Y-92894915D01*
X153139746Y-92861170D01*
X153001100Y-92842917D01*
X152862453Y-92861170D01*
X152733259Y-92914684D01*
X152622314Y-92999814D01*
X152537184Y-93110759D01*
X152483670Y-93239953D01*
X152465417Y-93378600D01*
X152483670Y-93517246D01*
X152537186Y-93646444D01*
X152622314Y-93757384D01*
X152622315Y-93757385D01*
X152668779Y-93793037D01*
X152696417Y-93836420D01*
X152698200Y-93852697D01*
X152698200Y-115154501D01*
X152680607Y-115202839D01*
X152668779Y-115214161D01*
X152622315Y-115249814D01*
X152537184Y-115360759D01*
X152483670Y-115489953D01*
X152465417Y-115628600D01*
X126361470Y-115628600D01*
X126336242Y-115610271D01*
X126180731Y-115531033D01*
X126014757Y-115477104D01*
X126014740Y-115477100D01*
X125842368Y-115449800D01*
X125178500Y-115449800D01*
X125178500Y-116088496D01*
X125066926Y-116058600D01*
X124935274Y-116058600D01*
X124823700Y-116088496D01*
X124823700Y-115449800D01*
X124159831Y-115449800D01*
X123987459Y-115477100D01*
X123987442Y-115477104D01*
X123821468Y-115531033D01*
X123665957Y-115610271D01*
X123524772Y-115712847D01*
X123524759Y-115712858D01*
X123401358Y-115836259D01*
X123401347Y-115836272D01*
X123298771Y-115977457D01*
X123219533Y-116132968D01*
X123165604Y-116298942D01*
X123165600Y-116298959D01*
X123152575Y-116381199D01*
X121276600Y-116381199D01*
X121276600Y-114107922D01*
X123340200Y-114107922D01*
X123375052Y-114283133D01*
X123443416Y-114448178D01*
X123542665Y-114596715D01*
X123542667Y-114596717D01*
X123542669Y-114596720D01*
X123668979Y-114723030D01*
X123668982Y-114723032D01*
X123668985Y-114723035D01*
X123817522Y-114822284D01*
X123982567Y-114890648D01*
X124087693Y-114911559D01*
X124157776Y-114925500D01*
X124157778Y-114925500D01*
X125844424Y-114925500D01*
X125902825Y-114913882D01*
X126019633Y-114890648D01*
X126184678Y-114822284D01*
X126333215Y-114723035D01*
X126459535Y-114596715D01*
X126558784Y-114448178D01*
X126627148Y-114283133D01*
X126662000Y-114107922D01*
X126662000Y-113929278D01*
X126627148Y-113754067D01*
X126558784Y-113589022D01*
X126459535Y-113440485D01*
X126459532Y-113440482D01*
X126459530Y-113440479D01*
X126333220Y-113314169D01*
X126333217Y-113314167D01*
X126333215Y-113314165D01*
X126184678Y-113214916D01*
X126019633Y-113146552D01*
X126019630Y-113146551D01*
X126019629Y-113146551D01*
X125844424Y-113111700D01*
X125844422Y-113111700D01*
X124157778Y-113111700D01*
X124157776Y-113111700D01*
X123982570Y-113146551D01*
X123982567Y-113146552D01*
X123817523Y-113214915D01*
X123668982Y-113314167D01*
X123668979Y-113314169D01*
X123542669Y-113440479D01*
X123542667Y-113440482D01*
X123443415Y-113589023D01*
X123375052Y-113754067D01*
X123340200Y-113929278D01*
X123340200Y-114107922D01*
X121276600Y-114107922D01*
X121276600Y-111301199D01*
X123152575Y-111301199D01*
X123152576Y-111301200D01*
X124530997Y-111301200D01*
X124501100Y-111412774D01*
X124501100Y-111544426D01*
X124530997Y-111656000D01*
X123152576Y-111656000D01*
X123165600Y-111738240D01*
X123165604Y-111738257D01*
X123219533Y-111904231D01*
X123298771Y-112059742D01*
X123401347Y-112200927D01*
X123401358Y-112200940D01*
X123524759Y-112324341D01*
X123524772Y-112324352D01*
X123665957Y-112426928D01*
X123821468Y-112506166D01*
X123987442Y-112560095D01*
X123987459Y-112560099D01*
X124159831Y-112587399D01*
X124159842Y-112587400D01*
X124823700Y-112587400D01*
X124823700Y-111948703D01*
X124935274Y-111978600D01*
X125066926Y-111978600D01*
X125178500Y-111948703D01*
X125178500Y-112587400D01*
X125842358Y-112587400D01*
X125842368Y-112587399D01*
X126014740Y-112560099D01*
X126014757Y-112560095D01*
X126180731Y-112506166D01*
X126336242Y-112426928D01*
X126477427Y-112324352D01*
X126477440Y-112324341D01*
X126600841Y-112200940D01*
X126600852Y-112200927D01*
X126703428Y-112059742D01*
X126782666Y-111904231D01*
X126836595Y-111738257D01*
X126836599Y-111738240D01*
X126849624Y-111656000D01*
X125471203Y-111656000D01*
X125501100Y-111544426D01*
X125501100Y-111412774D01*
X125471203Y-111301200D01*
X126849624Y-111301200D01*
X126849624Y-111301199D01*
X126836599Y-111218959D01*
X126836595Y-111218942D01*
X126782666Y-111052968D01*
X126703428Y-110897457D01*
X126600852Y-110756272D01*
X126600841Y-110756259D01*
X126477440Y-110632858D01*
X126477427Y-110632847D01*
X126336242Y-110530271D01*
X126180731Y-110451033D01*
X126014757Y-110397104D01*
X126014740Y-110397100D01*
X125842368Y-110369800D01*
X125178500Y-110369800D01*
X125178500Y-111008496D01*
X125066926Y-110978600D01*
X124935274Y-110978600D01*
X124823700Y-111008496D01*
X124823700Y-110369800D01*
X124159831Y-110369800D01*
X123987459Y-110397100D01*
X123987442Y-110397104D01*
X123821468Y-110451033D01*
X123665957Y-110530271D01*
X123524772Y-110632847D01*
X123524759Y-110632858D01*
X123401358Y-110756259D01*
X123401347Y-110756272D01*
X123298771Y-110897457D01*
X123219533Y-111052968D01*
X123165604Y-111218942D01*
X123165600Y-111218959D01*
X123152575Y-111301199D01*
X121276600Y-111301199D01*
X121276600Y-109027923D01*
X123340200Y-109027923D01*
X123360480Y-109129878D01*
X123375052Y-109203133D01*
X123443416Y-109368178D01*
X123542665Y-109516715D01*
X123542667Y-109516717D01*
X123542669Y-109516720D01*
X123668979Y-109643030D01*
X123668982Y-109643032D01*
X123668985Y-109643035D01*
X123817522Y-109742284D01*
X123982567Y-109810648D01*
X124087693Y-109831559D01*
X124157776Y-109845500D01*
X124157778Y-109845500D01*
X125844424Y-109845500D01*
X125902825Y-109833882D01*
X126019633Y-109810648D01*
X126184678Y-109742284D01*
X126333215Y-109643035D01*
X126459535Y-109516715D01*
X126558784Y-109368178D01*
X126627148Y-109203133D01*
X126662000Y-109027922D01*
X126662000Y-108849278D01*
X126627148Y-108674067D01*
X126558784Y-108509022D01*
X126459535Y-108360485D01*
X126459532Y-108360482D01*
X126459530Y-108360479D01*
X126333220Y-108234169D01*
X126333217Y-108234167D01*
X126333215Y-108234165D01*
X126184678Y-108134916D01*
X126019633Y-108066552D01*
X126019630Y-108066551D01*
X126019629Y-108066551D01*
X125844424Y-108031700D01*
X125844422Y-108031700D01*
X124157778Y-108031700D01*
X124157776Y-108031700D01*
X123982570Y-108066551D01*
X123982567Y-108066552D01*
X123817523Y-108134915D01*
X123668982Y-108234167D01*
X123668979Y-108234169D01*
X123542669Y-108360479D01*
X123542667Y-108360482D01*
X123443415Y-108509023D01*
X123375052Y-108674067D01*
X123375051Y-108674070D01*
X123340200Y-108849276D01*
X123340200Y-109027923D01*
X121276600Y-109027923D01*
X121276600Y-106221199D01*
X123152575Y-106221199D01*
X123152576Y-106221200D01*
X124530997Y-106221200D01*
X124501100Y-106332774D01*
X124501100Y-106464426D01*
X124530997Y-106576000D01*
X123152576Y-106576000D01*
X123165600Y-106658240D01*
X123165604Y-106658257D01*
X123219533Y-106824231D01*
X123298771Y-106979742D01*
X123401347Y-107120927D01*
X123401358Y-107120940D01*
X123524759Y-107244341D01*
X123524772Y-107244352D01*
X123665957Y-107346928D01*
X123821468Y-107426166D01*
X123987442Y-107480095D01*
X123987459Y-107480099D01*
X124159831Y-107507399D01*
X124159842Y-107507400D01*
X124823700Y-107507400D01*
X124823700Y-106868703D01*
X124935274Y-106898600D01*
X125066926Y-106898600D01*
X125178500Y-106868703D01*
X125178500Y-107507400D01*
X125842358Y-107507400D01*
X125842368Y-107507399D01*
X126014740Y-107480099D01*
X126014757Y-107480095D01*
X126180731Y-107426166D01*
X126336242Y-107346928D01*
X126477427Y-107244352D01*
X126477440Y-107244341D01*
X126600841Y-107120940D01*
X126600852Y-107120927D01*
X126703428Y-106979742D01*
X126782666Y-106824231D01*
X126836595Y-106658257D01*
X126836599Y-106658240D01*
X126849624Y-106576000D01*
X125471203Y-106576000D01*
X125501100Y-106464426D01*
X125501100Y-106332774D01*
X125471203Y-106221200D01*
X126849624Y-106221200D01*
X126849624Y-106221199D01*
X126836599Y-106138959D01*
X126836595Y-106138942D01*
X126782666Y-105972968D01*
X126703428Y-105817457D01*
X126600852Y-105676272D01*
X126600841Y-105676259D01*
X126477440Y-105552858D01*
X126477427Y-105552847D01*
X126336242Y-105450271D01*
X126180731Y-105371033D01*
X126014757Y-105317104D01*
X126014740Y-105317100D01*
X125842368Y-105289800D01*
X125178500Y-105289800D01*
X125178500Y-105928496D01*
X125066926Y-105898600D01*
X124935274Y-105898600D01*
X124823700Y-105928496D01*
X124823700Y-105289800D01*
X124159831Y-105289800D01*
X123987459Y-105317100D01*
X123987442Y-105317104D01*
X123821468Y-105371033D01*
X123665957Y-105450271D01*
X123524772Y-105552847D01*
X123524759Y-105552858D01*
X123401358Y-105676259D01*
X123401347Y-105676272D01*
X123298771Y-105817457D01*
X123219533Y-105972968D01*
X123165604Y-106138942D01*
X123165600Y-106138959D01*
X123152575Y-106221199D01*
X121276600Y-106221199D01*
X121276600Y-103947923D01*
X123340200Y-103947923D01*
X123368070Y-104088035D01*
X123375052Y-104123133D01*
X123443416Y-104288178D01*
X123542665Y-104436715D01*
X123542667Y-104436717D01*
X123542669Y-104436720D01*
X123668979Y-104563030D01*
X123668982Y-104563032D01*
X123668985Y-104563035D01*
X123817522Y-104662284D01*
X123982567Y-104730648D01*
X124087693Y-104751559D01*
X124157776Y-104765500D01*
X124157778Y-104765500D01*
X125844424Y-104765500D01*
X125902825Y-104753882D01*
X126019633Y-104730648D01*
X126184678Y-104662284D01*
X126333215Y-104563035D01*
X126459535Y-104436715D01*
X126558784Y-104288178D01*
X126627148Y-104123133D01*
X126662000Y-103947922D01*
X126662000Y-103769278D01*
X126655256Y-103735376D01*
X126644418Y-103680887D01*
X126627148Y-103594067D01*
X126558784Y-103429022D01*
X126459535Y-103280485D01*
X126459532Y-103280482D01*
X126459530Y-103280479D01*
X126333220Y-103154169D01*
X126333217Y-103154167D01*
X126333215Y-103154165D01*
X126184678Y-103054916D01*
X126019633Y-102986552D01*
X126019630Y-102986551D01*
X126019629Y-102986551D01*
X125844424Y-102951700D01*
X125844422Y-102951700D01*
X124157778Y-102951700D01*
X124157776Y-102951700D01*
X123982570Y-102986551D01*
X123982567Y-102986552D01*
X123817523Y-103054915D01*
X123668982Y-103154167D01*
X123668979Y-103154169D01*
X123542669Y-103280479D01*
X123542667Y-103280482D01*
X123443415Y-103429023D01*
X123375052Y-103594067D01*
X123375051Y-103594070D01*
X123340200Y-103769276D01*
X123340200Y-103947923D01*
X121276600Y-103947923D01*
X121276600Y-101141199D01*
X123152575Y-101141199D01*
X123152576Y-101141200D01*
X124530997Y-101141200D01*
X124501100Y-101252774D01*
X124501100Y-101384426D01*
X124530997Y-101496000D01*
X123152576Y-101496000D01*
X123165600Y-101578240D01*
X123165604Y-101578257D01*
X123219533Y-101744231D01*
X123298771Y-101899742D01*
X123401347Y-102040927D01*
X123401358Y-102040940D01*
X123524759Y-102164341D01*
X123524772Y-102164352D01*
X123665957Y-102266928D01*
X123821468Y-102346166D01*
X123987442Y-102400095D01*
X123987459Y-102400099D01*
X124159831Y-102427399D01*
X124159842Y-102427400D01*
X124823700Y-102427400D01*
X124823700Y-101788703D01*
X124935274Y-101818600D01*
X125066926Y-101818600D01*
X125178500Y-101788703D01*
X125178500Y-102427400D01*
X125842358Y-102427400D01*
X125842368Y-102427399D01*
X126014740Y-102400099D01*
X126014757Y-102400095D01*
X126180731Y-102346166D01*
X126336242Y-102266928D01*
X126477427Y-102164352D01*
X126477440Y-102164341D01*
X126600841Y-102040940D01*
X126600852Y-102040927D01*
X126703428Y-101899742D01*
X126782666Y-101744231D01*
X126836595Y-101578257D01*
X126836599Y-101578240D01*
X126849624Y-101496000D01*
X125471203Y-101496000D01*
X125501100Y-101384426D01*
X125501100Y-101252774D01*
X125471203Y-101141200D01*
X126849624Y-101141200D01*
X126849624Y-101141199D01*
X126836599Y-101058959D01*
X126836595Y-101058942D01*
X126782666Y-100892968D01*
X126703428Y-100737457D01*
X126600852Y-100596272D01*
X126600841Y-100596259D01*
X126477440Y-100472858D01*
X126477427Y-100472847D01*
X126336242Y-100370271D01*
X126180731Y-100291033D01*
X126014757Y-100237104D01*
X126014740Y-100237100D01*
X125842368Y-100209800D01*
X125178500Y-100209800D01*
X125178500Y-100848496D01*
X125066926Y-100818600D01*
X124935274Y-100818600D01*
X124823700Y-100848496D01*
X124823700Y-100209800D01*
X124159831Y-100209800D01*
X123987459Y-100237100D01*
X123987442Y-100237104D01*
X123821468Y-100291033D01*
X123665957Y-100370271D01*
X123524772Y-100472847D01*
X123524759Y-100472858D01*
X123401358Y-100596259D01*
X123401347Y-100596272D01*
X123298771Y-100737457D01*
X123219533Y-100892968D01*
X123165604Y-101058942D01*
X123165600Y-101058959D01*
X123152575Y-101141199D01*
X121276600Y-101141199D01*
X121276600Y-98867922D01*
X123340200Y-98867922D01*
X123375052Y-99043133D01*
X123443416Y-99208178D01*
X123542665Y-99356715D01*
X123542667Y-99356717D01*
X123542669Y-99356720D01*
X123668979Y-99483030D01*
X123668982Y-99483032D01*
X123668985Y-99483035D01*
X123817522Y-99582284D01*
X123982567Y-99650648D01*
X124087693Y-99671559D01*
X124157776Y-99685500D01*
X124157778Y-99685500D01*
X125844424Y-99685500D01*
X125904387Y-99673572D01*
X126019633Y-99650648D01*
X126184678Y-99582284D01*
X126333215Y-99483035D01*
X126459535Y-99356715D01*
X126558784Y-99208178D01*
X126627148Y-99043133D01*
X126662000Y-98867922D01*
X126662000Y-98689278D01*
X126627148Y-98514067D01*
X126558784Y-98349022D01*
X126459535Y-98200485D01*
X126459532Y-98200482D01*
X126459530Y-98200479D01*
X126333220Y-98074169D01*
X126333217Y-98074167D01*
X126333215Y-98074165D01*
X126184678Y-97974916D01*
X126019633Y-97906552D01*
X126019630Y-97906551D01*
X126019629Y-97906551D01*
X125844424Y-97871700D01*
X125844422Y-97871700D01*
X124157778Y-97871700D01*
X124157776Y-97871700D01*
X123982570Y-97906551D01*
X123982567Y-97906552D01*
X123817523Y-97974915D01*
X123668982Y-98074167D01*
X123668979Y-98074169D01*
X123542669Y-98200479D01*
X123542667Y-98200482D01*
X123443415Y-98349023D01*
X123375052Y-98514067D01*
X123340200Y-98689278D01*
X123340200Y-98867922D01*
X121276600Y-98867922D01*
X121276600Y-96061199D01*
X123152575Y-96061199D01*
X123152576Y-96061200D01*
X124530997Y-96061200D01*
X124501100Y-96172774D01*
X124501100Y-96304426D01*
X124530997Y-96416000D01*
X123152576Y-96416000D01*
X123165600Y-96498240D01*
X123165604Y-96498257D01*
X123219533Y-96664231D01*
X123298771Y-96819742D01*
X123401347Y-96960927D01*
X123401358Y-96960940D01*
X123524759Y-97084341D01*
X123524772Y-97084352D01*
X123665957Y-97186928D01*
X123821468Y-97266166D01*
X123987442Y-97320095D01*
X123987459Y-97320099D01*
X124159831Y-97347399D01*
X124159842Y-97347400D01*
X124823700Y-97347400D01*
X124823700Y-96708703D01*
X124935274Y-96738600D01*
X125066926Y-96738600D01*
X125178500Y-96708703D01*
X125178500Y-97347400D01*
X125842358Y-97347400D01*
X125842368Y-97347399D01*
X126014740Y-97320099D01*
X126014757Y-97320095D01*
X126180731Y-97266166D01*
X126336242Y-97186928D01*
X126477427Y-97084352D01*
X126477440Y-97084341D01*
X126600841Y-96960940D01*
X126600852Y-96960927D01*
X126703428Y-96819742D01*
X126782666Y-96664231D01*
X126836595Y-96498257D01*
X126836599Y-96498240D01*
X126849624Y-96416000D01*
X125471203Y-96416000D01*
X125501100Y-96304426D01*
X125501100Y-96172774D01*
X125471203Y-96061200D01*
X126849624Y-96061200D01*
X126849624Y-96061199D01*
X126836599Y-95978959D01*
X126836595Y-95978942D01*
X126782666Y-95812968D01*
X126703428Y-95657457D01*
X126600852Y-95516272D01*
X126600841Y-95516259D01*
X126477440Y-95392858D01*
X126477427Y-95392847D01*
X126336242Y-95290271D01*
X126180731Y-95211033D01*
X126014757Y-95157104D01*
X126014740Y-95157100D01*
X125842368Y-95129800D01*
X125178500Y-95129800D01*
X125178500Y-95768496D01*
X125066926Y-95738600D01*
X124935274Y-95738600D01*
X124823700Y-95768496D01*
X124823700Y-95129800D01*
X124159831Y-95129800D01*
X123987459Y-95157100D01*
X123987442Y-95157104D01*
X123821468Y-95211033D01*
X123665957Y-95290271D01*
X123524772Y-95392847D01*
X123524759Y-95392858D01*
X123401358Y-95516259D01*
X123401347Y-95516272D01*
X123298771Y-95657457D01*
X123219533Y-95812968D01*
X123165604Y-95978942D01*
X123165600Y-95978959D01*
X123152575Y-96061199D01*
X121276600Y-96061199D01*
X121276600Y-93787923D01*
X123340200Y-93787923D01*
X123353084Y-93852697D01*
X123375052Y-93963133D01*
X123443416Y-94128178D01*
X123542665Y-94276715D01*
X123542667Y-94276717D01*
X123542669Y-94276720D01*
X123668979Y-94403030D01*
X123668982Y-94403032D01*
X123668985Y-94403035D01*
X123817522Y-94502284D01*
X123982567Y-94570648D01*
X124087693Y-94591559D01*
X124157776Y-94605500D01*
X124157778Y-94605500D01*
X125844424Y-94605500D01*
X125902825Y-94593882D01*
X126019633Y-94570648D01*
X126184678Y-94502284D01*
X126333215Y-94403035D01*
X126459535Y-94276715D01*
X126558784Y-94128178D01*
X126627148Y-93963133D01*
X126656492Y-93815613D01*
X126662000Y-93787923D01*
X126662000Y-93609276D01*
X126648059Y-93539193D01*
X126627148Y-93434067D01*
X126558784Y-93269022D01*
X126459535Y-93120485D01*
X126459532Y-93120482D01*
X126459530Y-93120479D01*
X126333220Y-92994169D01*
X126333217Y-92994167D01*
X126333215Y-92994165D01*
X126184678Y-92894916D01*
X126019633Y-92826552D01*
X126019630Y-92826551D01*
X126019629Y-92826551D01*
X125844424Y-92791700D01*
X125844422Y-92791700D01*
X124157778Y-92791700D01*
X124157776Y-92791700D01*
X123982570Y-92826551D01*
X123982567Y-92826552D01*
X123817523Y-92894915D01*
X123668982Y-92994167D01*
X123668979Y-92994169D01*
X123542669Y-93120479D01*
X123542667Y-93120482D01*
X123443415Y-93269023D01*
X123375052Y-93434067D01*
X123375051Y-93434070D01*
X123340200Y-93609276D01*
X123340200Y-93787923D01*
X121276600Y-93787923D01*
X121276600Y-92385000D01*
X162721738Y-92385000D01*
X162741837Y-92678838D01*
X162741837Y-92678842D01*
X162741838Y-92678844D01*
X162741838Y-92678846D01*
X162801758Y-92967196D01*
X162801762Y-92967208D01*
X162900386Y-93244713D01*
X162900389Y-93244720D01*
X163035894Y-93506232D01*
X163205730Y-93746834D01*
X163205733Y-93746837D01*
X163205738Y-93746844D01*
X163406766Y-93962094D01*
X163635233Y-94147965D01*
X163635238Y-94147969D01*
X163886877Y-94300993D01*
X163886884Y-94300997D01*
X164157012Y-94418330D01*
X164157015Y-94418331D01*
X164157022Y-94418334D01*
X164440625Y-94497796D01*
X164732407Y-94537900D01*
X164732412Y-94537900D01*
X165026926Y-94537900D01*
X165026931Y-94537900D01*
X165318713Y-94497796D01*
X165602316Y-94418334D01*
X165872458Y-94300995D01*
X166046215Y-94195330D01*
X166124099Y-94147969D01*
X166124100Y-94147967D01*
X166124105Y-94147965D01*
X166352572Y-93962094D01*
X166553600Y-93746844D01*
X166723447Y-93506226D01*
X166858948Y-93244722D01*
X166858949Y-93244716D01*
X166858952Y-93244713D01*
X166906558Y-93110759D01*
X166957578Y-92967203D01*
X167017501Y-92678838D01*
X167037600Y-92385000D01*
X167017501Y-92091162D01*
X166957578Y-91802797D01*
X166858948Y-91525278D01*
X166723447Y-91263774D01*
X166723445Y-91263772D01*
X166723443Y-91263767D01*
X166553607Y-91023165D01*
X166553604Y-91023162D01*
X166553600Y-91023156D01*
X166352572Y-90807906D01*
X166124105Y-90622035D01*
X166124099Y-90622030D01*
X165872460Y-90469006D01*
X165872453Y-90469002D01*
X165602325Y-90351669D01*
X165602316Y-90351666D01*
X165318712Y-90272203D01*
X165156313Y-90249883D01*
X165026931Y-90232100D01*
X164732407Y-90232100D01*
X164613563Y-90248434D01*
X164440625Y-90272203D01*
X164157021Y-90351666D01*
X164157012Y-90351669D01*
X163886884Y-90469002D01*
X163886877Y-90469006D01*
X163635238Y-90622030D01*
X163406763Y-90807908D01*
X163365965Y-90851593D01*
X163205738Y-91023156D01*
X163205735Y-91023159D01*
X163205735Y-91023160D01*
X163205730Y-91023165D01*
X163035894Y-91263767D01*
X162900389Y-91525279D01*
X162900388Y-91525280D01*
X162801762Y-91802791D01*
X162801758Y-91802803D01*
X162741838Y-92091153D01*
X162741838Y-92091155D01*
X162741837Y-92091162D01*
X162721738Y-92385000D01*
X121276600Y-92385000D01*
X121276600Y-90981199D01*
X123152575Y-90981199D01*
X123152576Y-90981200D01*
X124530997Y-90981200D01*
X124501100Y-91092774D01*
X124501100Y-91224426D01*
X124530997Y-91336000D01*
X123152576Y-91336000D01*
X123165600Y-91418240D01*
X123165604Y-91418257D01*
X123219533Y-91584231D01*
X123298771Y-91739742D01*
X123401347Y-91880927D01*
X123401358Y-91880940D01*
X123524759Y-92004341D01*
X123524772Y-92004352D01*
X123665957Y-92106928D01*
X123821468Y-92186166D01*
X123987442Y-92240095D01*
X123987459Y-92240099D01*
X124159831Y-92267399D01*
X124159842Y-92267400D01*
X124823700Y-92267400D01*
X124823700Y-91628703D01*
X124935274Y-91658600D01*
X125066926Y-91658600D01*
X125178500Y-91628703D01*
X125178500Y-92267400D01*
X125842358Y-92267400D01*
X125842368Y-92267399D01*
X126014740Y-92240099D01*
X126014757Y-92240095D01*
X126180731Y-92186166D01*
X126336242Y-92106928D01*
X126477427Y-92004352D01*
X126477440Y-92004341D01*
X126600841Y-91880940D01*
X126600852Y-91880927D01*
X126703428Y-91739742D01*
X126782666Y-91584231D01*
X126836595Y-91418257D01*
X126836599Y-91418240D01*
X126849624Y-91336000D01*
X125471203Y-91336000D01*
X125501100Y-91224426D01*
X125501100Y-91092774D01*
X125471203Y-90981200D01*
X126849624Y-90981200D01*
X126849624Y-90981199D01*
X126836599Y-90898959D01*
X126836595Y-90898942D01*
X126782666Y-90732968D01*
X126703428Y-90577457D01*
X126600852Y-90436272D01*
X126600841Y-90436259D01*
X126477440Y-90312858D01*
X126477427Y-90312847D01*
X126336242Y-90210271D01*
X126180731Y-90131033D01*
X126014757Y-90077104D01*
X126014740Y-90077100D01*
X125842368Y-90049800D01*
X125178500Y-90049800D01*
X125178500Y-90688496D01*
X125066926Y-90658600D01*
X124935274Y-90658600D01*
X124823700Y-90688496D01*
X124823700Y-90049800D01*
X124159831Y-90049800D01*
X123987459Y-90077100D01*
X123987442Y-90077104D01*
X123821468Y-90131033D01*
X123665957Y-90210271D01*
X123524772Y-90312847D01*
X123524759Y-90312858D01*
X123401358Y-90436259D01*
X123401347Y-90436272D01*
X123298771Y-90577457D01*
X123219533Y-90732968D01*
X123165604Y-90898942D01*
X123165600Y-90898959D01*
X123152575Y-90981199D01*
X121276600Y-90981199D01*
X121276600Y-88479300D01*
X121294193Y-88430962D01*
X121338742Y-88405242D01*
X121351800Y-88404100D01*
X175650400Y-88404100D01*
X175698738Y-88421693D01*
G37*
%TD.AperFunction*%
%TD*%
M02*
