M48
; DRILL file {KiCad 8.0.0} date 2025-12-15T01:28:30+0300
; FORMAT={-:-/ absolute / inch / decimal}
; #@! TF.CreationDate,2025-12-15T01:28:30+03:00
; #@! TF.GenerationSoftware,Kicad,Pcbnew,8.0.0
; #@! TF.FileFunction,Plated,1,2,PTH
FMAT,2
INCH
; #@! TA.AperFunction,Plated,PTH,ViaDrill
T1C0.0118
; #@! TA.AperFunction,Plated,PTH,ViaDrill
T2C0.0138
; #@! TA.AperFunction,Plated,PTH,ComponentDrill
T3C0.0374
; #@! TA.AperFunction,Plated,PTH,ComponentDrill
T4C0.0394
; #@! TA.AperFunction,Plated,PTH,ComponentDrill
T5C0.0787
%
G90
G05
T1
X5.7913Y-4.5827
T2
X6.0237Y-3.6763
X6.0237Y-4.5523
T3
X4.8898Y-3.589
X4.8898Y-3.689
X4.8898Y-3.789
X4.8898Y-3.889
X4.8898Y-3.989
X4.8898Y-4.089
X4.8898Y-4.189
X4.8898Y-4.289
X4.8898Y-4.389
X4.8898Y-4.489
X4.8898Y-4.589
X4.8898Y-4.689
T4
X6.4354Y-3.9386
X6.4354Y-4.0287
X6.4354Y-4.1189
X6.4354Y-4.2091
X6.4354Y-4.2992
X6.5134Y-3.9837
X6.5134Y-4.0738
X6.5134Y-4.164
X6.5134Y-4.2541
X6.5134Y-4.3443
X6.5913Y-3.9386
X6.5913Y-4.0287
X6.5913Y-4.1189
X6.5913Y-4.2091
X6.5913Y-4.2992
T5
G00X6.5161Y-3.6136
M15
G01X6.5161Y-3.6608
M16
G05
G00X6.5161Y-4.5978
M15
G01X6.5161Y-4.6451
M16
G05
M30
