%TF.GenerationSoftware,KiCad,Pcbnew,8.0.0*%
%TF.CreationDate,2025-11-06T21:26:23+03:00*%
%TF.ProjectId,Loewe VGA,4c6f6577-6520-4564-9741-2e6b69636164,rev?*%
%TF.SameCoordinates,Original*%
%TF.FileFunction,Paste,Top*%
%TF.FilePolarity,Positive*%
%FSLAX46Y46*%
G04 Gerber Fmt 4.6, Leading zero omitted, Abs format (unit mm)*
G04 Created by KiCad (PCBNEW 8.0.0) date 2025-11-06 21:26:23*
%MOMM*%
%LPD*%
G01*
G04 APERTURE LIST*
G04 Aperture macros list*
%AMRoundRect*
0 Rectangle with rounded corners*
0 $1 Rounding radius*
0 $2 $3 $4 $5 $6 $7 $8 $9 X,Y pos of 4 corners*
0 Add a 4 corners polygon primitive as box body*
4,1,4,$2,$3,$4,$5,$6,$7,$8,$9,$2,$3,0*
0 Add four circle primitives for the rounded corners*
1,1,$1+$1,$2,$3*
1,1,$1+$1,$4,$5*
1,1,$1+$1,$6,$7*
1,1,$1+$1,$8,$9*
0 Add four rect primitives between the rounded corners*
20,1,$1+$1,$2,$3,$4,$5,0*
20,1,$1+$1,$4,$5,$6,$7,0*
20,1,$1+$1,$6,$7,$8,$9,0*
20,1,$1+$1,$8,$9,$2,$3,0*%
G04 Aperture macros list end*
%ADD10RoundRect,0.250000X0.337500X0.475000X-0.337500X0.475000X-0.337500X-0.475000X0.337500X-0.475000X0*%
%ADD11RoundRect,0.250000X-0.337500X-0.475000X0.337500X-0.475000X0.337500X0.475000X-0.337500X0.475000X0*%
%ADD12RoundRect,0.250000X-0.350000X-0.450000X0.350000X-0.450000X0.350000X0.450000X-0.350000X0.450000X0*%
%ADD13RoundRect,0.250000X-0.450000X0.350000X-0.450000X-0.350000X0.450000X-0.350000X0.450000X0.350000X0*%
%ADD14RoundRect,0.250000X0.350000X0.450000X-0.350000X0.450000X-0.350000X-0.450000X0.350000X-0.450000X0*%
%ADD15R,2.200000X1.600000*%
%ADD16R,1.600000X2.200000*%
%ADD17RoundRect,0.250000X-0.475000X0.337500X-0.475000X-0.337500X0.475000X-0.337500X0.475000X0.337500X0*%
%ADD18RoundRect,0.150000X-0.825000X-0.150000X0.825000X-0.150000X0.825000X0.150000X-0.825000X0.150000X0*%
%ADD19RoundRect,0.250000X0.450000X-0.350000X0.450000X0.350000X-0.450000X0.350000X-0.450000X-0.350000X0*%
G04 APERTURE END LIST*
D10*
%TO.C,C814*%
X138290600Y-108526600D03*
X136215600Y-108526600D03*
%TD*%
D11*
%TO.C,C818*%
X138713600Y-115628600D03*
X140788600Y-115628600D03*
%TD*%
D10*
%TO.C,C811*%
X151538600Y-101628600D03*
X149463600Y-101628600D03*
%TD*%
D12*
%TO.C,R823*%
X145501100Y-101628600D03*
X147501100Y-101628600D03*
%TD*%
D13*
%TO.C,R838*%
X130501100Y-117128600D03*
X130501100Y-119128600D03*
%TD*%
D14*
%TO.C,R827*%
X143751100Y-94628600D03*
X141751100Y-94628600D03*
%TD*%
D15*
%TO.C,L826*%
X130251100Y-93478600D03*
X130251100Y-96278600D03*
%TD*%
D12*
%TO.C,R819*%
X136251100Y-111378600D03*
X138251100Y-111378600D03*
%TD*%
D10*
%TO.C,C829*%
X138290600Y-104526600D03*
X136215600Y-104526600D03*
%TD*%
D11*
%TO.C,C821*%
X156213600Y-108878600D03*
X158288600Y-108878600D03*
%TD*%
%TO.C,C817*%
X143463600Y-118378600D03*
X145538600Y-118378600D03*
%TD*%
%TO.C,C827*%
X141715600Y-97526600D03*
X143790600Y-97526600D03*
%TD*%
D14*
%TO.C,R829*%
X131501100Y-98878600D03*
X129501100Y-98878600D03*
%TD*%
D13*
%TO.C,R836*%
X130501100Y-107128600D03*
X130501100Y-109128600D03*
%TD*%
D10*
%TO.C,C828*%
X138290600Y-102026600D03*
X136215600Y-102026600D03*
%TD*%
D14*
%TO.C,R828*%
X143251100Y-101628600D03*
X141251100Y-101628600D03*
%TD*%
%TO.C,R818*%
X145251100Y-115628600D03*
X143251100Y-115628600D03*
%TD*%
D16*
%TO.C,L816*%
X151901100Y-118378600D03*
X149101100Y-118378600D03*
%TD*%
D17*
%TO.C,C826*%
X133001100Y-94341100D03*
X133001100Y-96416100D03*
%TD*%
D18*
%TO.C,U1*%
X142325000Y-104790000D03*
X142325000Y-106060000D03*
X142325000Y-107330000D03*
X142325000Y-108600000D03*
X142325000Y-109870000D03*
X142325000Y-111140000D03*
X142325000Y-112410000D03*
X147275000Y-112410000D03*
X147275000Y-111140000D03*
X147275000Y-109870000D03*
X147275000Y-108600000D03*
X147275000Y-107330000D03*
X147275000Y-106060000D03*
X147275000Y-104790000D03*
%TD*%
D11*
%TO.C,C822*%
X151963600Y-106128600D03*
X154038600Y-106128600D03*
%TD*%
%TO.C,C813*%
X156213600Y-111628600D03*
X158288600Y-111628600D03*
%TD*%
D12*
%TO.C,R817*%
X149001100Y-115628600D03*
X151001100Y-115628600D03*
%TD*%
%TO.C,R814*%
X152001100Y-111628600D03*
X154001100Y-111628600D03*
%TD*%
D19*
%TO.C,R837*%
X130501100Y-114128600D03*
X130501100Y-112128600D03*
%TD*%
D12*
%TO.C,R821*%
X152001100Y-108878600D03*
X154001100Y-108878600D03*
%TD*%
M02*
