%TF.GenerationSoftware,KiCad,Pcbnew,8.0.0*%
%TF.CreationDate,2025-10-24T15:06:22+03:00*%
%TF.ProjectId,Loewe VGA,4c6f6577-6520-4564-9741-2e6b69636164,rev?*%
%TF.SameCoordinates,Original*%
%TF.FileFunction,Legend,Bot*%
%TF.FilePolarity,Positive*%
%FSLAX46Y46*%
G04 Gerber Fmt 4.6, Leading zero omitted, Abs format (unit mm)*
G04 Created by KiCad (PCBNEW 8.0.0) date 2025-10-24 15:06:22*
%MOMM*%
%LPD*%
G01*
G04 APERTURE LIST*
%ADD10C,0.150000*%
%ADD11C,0.254000*%
%ADD12C,0.120000*%
G04 APERTURE END LIST*
D10*
X132539411Y-113417438D02*
X132634649Y-113369819D01*
X132634649Y-113369819D02*
X132777506Y-113369819D01*
X132777506Y-113369819D02*
X132920363Y-113417438D01*
X132920363Y-113417438D02*
X133015601Y-113512676D01*
X133015601Y-113512676D02*
X133063220Y-113607914D01*
X133063220Y-113607914D02*
X133110839Y-113798390D01*
X133110839Y-113798390D02*
X133110839Y-113941247D01*
X133110839Y-113941247D02*
X133063220Y-114131723D01*
X133063220Y-114131723D02*
X133015601Y-114226961D01*
X133015601Y-114226961D02*
X132920363Y-114322200D01*
X132920363Y-114322200D02*
X132777506Y-114369819D01*
X132777506Y-114369819D02*
X132682268Y-114369819D01*
X132682268Y-114369819D02*
X132539411Y-114322200D01*
X132539411Y-114322200D02*
X132491792Y-114274580D01*
X132491792Y-114274580D02*
X132491792Y-113941247D01*
X132491792Y-113941247D02*
X132682268Y-113941247D01*
X131491792Y-114369819D02*
X131825125Y-113893628D01*
X132063220Y-114369819D02*
X132063220Y-113369819D01*
X132063220Y-113369819D02*
X131682268Y-113369819D01*
X131682268Y-113369819D02*
X131587030Y-113417438D01*
X131587030Y-113417438D02*
X131539411Y-113465057D01*
X131539411Y-113465057D02*
X131491792Y-113560295D01*
X131491792Y-113560295D02*
X131491792Y-113703152D01*
X131491792Y-113703152D02*
X131539411Y-113798390D01*
X131539411Y-113798390D02*
X131587030Y-113846009D01*
X131587030Y-113846009D02*
X131682268Y-113893628D01*
X131682268Y-113893628D02*
X132063220Y-113893628D01*
X131063220Y-113846009D02*
X130729887Y-113846009D01*
X130587030Y-114369819D02*
X131063220Y-114369819D01*
X131063220Y-114369819D02*
X131063220Y-113369819D01*
X131063220Y-113369819D02*
X130587030Y-113369819D01*
X130158458Y-113846009D02*
X129825125Y-113846009D01*
X129682268Y-114369819D02*
X130158458Y-114369819D01*
X130158458Y-114369819D02*
X130158458Y-113369819D01*
X130158458Y-113369819D02*
X129682268Y-113369819D01*
X129253696Y-114369819D02*
X129253696Y-113369819D01*
X129253696Y-113369819D02*
X128682268Y-114369819D01*
X128682268Y-114369819D02*
X128682268Y-113369819D01*
X130739411Y-105917438D02*
X130834649Y-105869819D01*
X130834649Y-105869819D02*
X130977506Y-105869819D01*
X130977506Y-105869819D02*
X131120363Y-105917438D01*
X131120363Y-105917438D02*
X131215601Y-106012676D01*
X131215601Y-106012676D02*
X131263220Y-106107914D01*
X131263220Y-106107914D02*
X131310839Y-106298390D01*
X131310839Y-106298390D02*
X131310839Y-106441247D01*
X131310839Y-106441247D02*
X131263220Y-106631723D01*
X131263220Y-106631723D02*
X131215601Y-106726961D01*
X131215601Y-106726961D02*
X131120363Y-106822200D01*
X131120363Y-106822200D02*
X130977506Y-106869819D01*
X130977506Y-106869819D02*
X130882268Y-106869819D01*
X130882268Y-106869819D02*
X130739411Y-106822200D01*
X130739411Y-106822200D02*
X130691792Y-106774580D01*
X130691792Y-106774580D02*
X130691792Y-106441247D01*
X130691792Y-106441247D02*
X130882268Y-106441247D01*
X130263220Y-106869819D02*
X130263220Y-105869819D01*
X130263220Y-105869819D02*
X129691792Y-106869819D01*
X129691792Y-106869819D02*
X129691792Y-105869819D01*
X129215601Y-106869819D02*
X129215601Y-105869819D01*
X129215601Y-105869819D02*
X128977506Y-105869819D01*
X128977506Y-105869819D02*
X128834649Y-105917438D01*
X128834649Y-105917438D02*
X128739411Y-106012676D01*
X128739411Y-106012676D02*
X128691792Y-106107914D01*
X128691792Y-106107914D02*
X128644173Y-106298390D01*
X128644173Y-106298390D02*
X128644173Y-106441247D01*
X128644173Y-106441247D02*
X128691792Y-106631723D01*
X128691792Y-106631723D02*
X128739411Y-106726961D01*
X128739411Y-106726961D02*
X128834649Y-106822200D01*
X128834649Y-106822200D02*
X128977506Y-106869819D01*
X128977506Y-106869819D02*
X129215601Y-106869819D01*
X130591792Y-119569819D02*
X130925125Y-119093628D01*
X131163220Y-119569819D02*
X131163220Y-118569819D01*
X131163220Y-118569819D02*
X130782268Y-118569819D01*
X130782268Y-118569819D02*
X130687030Y-118617438D01*
X130687030Y-118617438D02*
X130639411Y-118665057D01*
X130639411Y-118665057D02*
X130591792Y-118760295D01*
X130591792Y-118760295D02*
X130591792Y-118903152D01*
X130591792Y-118903152D02*
X130639411Y-118998390D01*
X130639411Y-118998390D02*
X130687030Y-119046009D01*
X130687030Y-119046009D02*
X130782268Y-119093628D01*
X130782268Y-119093628D02*
X131163220Y-119093628D01*
X130163220Y-119046009D02*
X129829887Y-119046009D01*
X129687030Y-119569819D02*
X130163220Y-119569819D01*
X130163220Y-119569819D02*
X130163220Y-118569819D01*
X130163220Y-118569819D02*
X129687030Y-118569819D01*
X129258458Y-119569819D02*
X129258458Y-118569819D01*
X129258458Y-118569819D02*
X129020363Y-118569819D01*
X129020363Y-118569819D02*
X128877506Y-118617438D01*
X128877506Y-118617438D02*
X128782268Y-118712676D01*
X128782268Y-118712676D02*
X128734649Y-118807914D01*
X128734649Y-118807914D02*
X128687030Y-118998390D01*
X128687030Y-118998390D02*
X128687030Y-119141247D01*
X128687030Y-119141247D02*
X128734649Y-119331723D01*
X128734649Y-119331723D02*
X128782268Y-119426961D01*
X128782268Y-119426961D02*
X128877506Y-119522200D01*
X128877506Y-119522200D02*
X129020363Y-119569819D01*
X129020363Y-119569819D02*
X129258458Y-119569819D01*
X130739411Y-100817438D02*
X130834649Y-100769819D01*
X130834649Y-100769819D02*
X130977506Y-100769819D01*
X130977506Y-100769819D02*
X131120363Y-100817438D01*
X131120363Y-100817438D02*
X131215601Y-100912676D01*
X131215601Y-100912676D02*
X131263220Y-101007914D01*
X131263220Y-101007914D02*
X131310839Y-101198390D01*
X131310839Y-101198390D02*
X131310839Y-101341247D01*
X131310839Y-101341247D02*
X131263220Y-101531723D01*
X131263220Y-101531723D02*
X131215601Y-101626961D01*
X131215601Y-101626961D02*
X131120363Y-101722200D01*
X131120363Y-101722200D02*
X130977506Y-101769819D01*
X130977506Y-101769819D02*
X130882268Y-101769819D01*
X130882268Y-101769819D02*
X130739411Y-101722200D01*
X130739411Y-101722200D02*
X130691792Y-101674580D01*
X130691792Y-101674580D02*
X130691792Y-101341247D01*
X130691792Y-101341247D02*
X130882268Y-101341247D01*
X130263220Y-101769819D02*
X130263220Y-100769819D01*
X130263220Y-100769819D02*
X129691792Y-101769819D01*
X129691792Y-101769819D02*
X129691792Y-100769819D01*
X129215601Y-101769819D02*
X129215601Y-100769819D01*
X129215601Y-100769819D02*
X128977506Y-100769819D01*
X128977506Y-100769819D02*
X128834649Y-100817438D01*
X128834649Y-100817438D02*
X128739411Y-100912676D01*
X128739411Y-100912676D02*
X128691792Y-101007914D01*
X128691792Y-101007914D02*
X128644173Y-101198390D01*
X128644173Y-101198390D02*
X128644173Y-101341247D01*
X128644173Y-101341247D02*
X128691792Y-101531723D01*
X128691792Y-101531723D02*
X128739411Y-101626961D01*
X128739411Y-101626961D02*
X128834649Y-101722200D01*
X128834649Y-101722200D02*
X128977506Y-101769819D01*
X128977506Y-101769819D02*
X129215601Y-101769819D01*
X131306077Y-93169819D02*
X130972744Y-94169819D01*
X130972744Y-94169819D02*
X130639411Y-93169819D01*
X129734649Y-94074580D02*
X129782268Y-94122200D01*
X129782268Y-94122200D02*
X129925125Y-94169819D01*
X129925125Y-94169819D02*
X130020363Y-94169819D01*
X130020363Y-94169819D02*
X130163220Y-94122200D01*
X130163220Y-94122200D02*
X130258458Y-94026961D01*
X130258458Y-94026961D02*
X130306077Y-93931723D01*
X130306077Y-93931723D02*
X130353696Y-93741247D01*
X130353696Y-93741247D02*
X130353696Y-93598390D01*
X130353696Y-93598390D02*
X130306077Y-93407914D01*
X130306077Y-93407914D02*
X130258458Y-93312676D01*
X130258458Y-93312676D02*
X130163220Y-93217438D01*
X130163220Y-93217438D02*
X130020363Y-93169819D01*
X130020363Y-93169819D02*
X129925125Y-93169819D01*
X129925125Y-93169819D02*
X129782268Y-93217438D01*
X129782268Y-93217438D02*
X129734649Y-93265057D01*
X128734649Y-94074580D02*
X128782268Y-94122200D01*
X128782268Y-94122200D02*
X128925125Y-94169819D01*
X128925125Y-94169819D02*
X129020363Y-94169819D01*
X129020363Y-94169819D02*
X129163220Y-94122200D01*
X129163220Y-94122200D02*
X129258458Y-94026961D01*
X129258458Y-94026961D02*
X129306077Y-93931723D01*
X129306077Y-93931723D02*
X129353696Y-93741247D01*
X129353696Y-93741247D02*
X129353696Y-93598390D01*
X129353696Y-93598390D02*
X129306077Y-93407914D01*
X129306077Y-93407914D02*
X129258458Y-93312676D01*
X129258458Y-93312676D02*
X129163220Y-93217438D01*
X129163220Y-93217438D02*
X129020363Y-93169819D01*
X129020363Y-93169819D02*
X128925125Y-93169819D01*
X128925125Y-93169819D02*
X128782268Y-93217438D01*
X128782268Y-93217438D02*
X128734649Y-93265057D01*
X130739411Y-95717438D02*
X130834649Y-95669819D01*
X130834649Y-95669819D02*
X130977506Y-95669819D01*
X130977506Y-95669819D02*
X131120363Y-95717438D01*
X131120363Y-95717438D02*
X131215601Y-95812676D01*
X131215601Y-95812676D02*
X131263220Y-95907914D01*
X131263220Y-95907914D02*
X131310839Y-96098390D01*
X131310839Y-96098390D02*
X131310839Y-96241247D01*
X131310839Y-96241247D02*
X131263220Y-96431723D01*
X131263220Y-96431723D02*
X131215601Y-96526961D01*
X131215601Y-96526961D02*
X131120363Y-96622200D01*
X131120363Y-96622200D02*
X130977506Y-96669819D01*
X130977506Y-96669819D02*
X130882268Y-96669819D01*
X130882268Y-96669819D02*
X130739411Y-96622200D01*
X130739411Y-96622200D02*
X130691792Y-96574580D01*
X130691792Y-96574580D02*
X130691792Y-96241247D01*
X130691792Y-96241247D02*
X130882268Y-96241247D01*
X130263220Y-96669819D02*
X130263220Y-95669819D01*
X130263220Y-95669819D02*
X129691792Y-96669819D01*
X129691792Y-96669819D02*
X129691792Y-95669819D01*
X129215601Y-96669819D02*
X129215601Y-95669819D01*
X129215601Y-95669819D02*
X128977506Y-95669819D01*
X128977506Y-95669819D02*
X128834649Y-95717438D01*
X128834649Y-95717438D02*
X128739411Y-95812676D01*
X128739411Y-95812676D02*
X128691792Y-95907914D01*
X128691792Y-95907914D02*
X128644173Y-96098390D01*
X128644173Y-96098390D02*
X128644173Y-96241247D01*
X128644173Y-96241247D02*
X128691792Y-96431723D01*
X128691792Y-96431723D02*
X128739411Y-96526961D01*
X128739411Y-96526961D02*
X128834649Y-96622200D01*
X128834649Y-96622200D02*
X128977506Y-96669819D01*
X128977506Y-96669819D02*
X129215601Y-96669819D01*
X130739411Y-90617438D02*
X130834649Y-90569819D01*
X130834649Y-90569819D02*
X130977506Y-90569819D01*
X130977506Y-90569819D02*
X131120363Y-90617438D01*
X131120363Y-90617438D02*
X131215601Y-90712676D01*
X131215601Y-90712676D02*
X131263220Y-90807914D01*
X131263220Y-90807914D02*
X131310839Y-90998390D01*
X131310839Y-90998390D02*
X131310839Y-91141247D01*
X131310839Y-91141247D02*
X131263220Y-91331723D01*
X131263220Y-91331723D02*
X131215601Y-91426961D01*
X131215601Y-91426961D02*
X131120363Y-91522200D01*
X131120363Y-91522200D02*
X130977506Y-91569819D01*
X130977506Y-91569819D02*
X130882268Y-91569819D01*
X130882268Y-91569819D02*
X130739411Y-91522200D01*
X130739411Y-91522200D02*
X130691792Y-91474580D01*
X130691792Y-91474580D02*
X130691792Y-91141247D01*
X130691792Y-91141247D02*
X130882268Y-91141247D01*
X130263220Y-91569819D02*
X130263220Y-90569819D01*
X130263220Y-90569819D02*
X129691792Y-91569819D01*
X129691792Y-91569819D02*
X129691792Y-90569819D01*
X129215601Y-91569819D02*
X129215601Y-90569819D01*
X129215601Y-90569819D02*
X128977506Y-90569819D01*
X128977506Y-90569819D02*
X128834649Y-90617438D01*
X128834649Y-90617438D02*
X128739411Y-90712676D01*
X128739411Y-90712676D02*
X128691792Y-90807914D01*
X128691792Y-90807914D02*
X128644173Y-90998390D01*
X128644173Y-90998390D02*
X128644173Y-91141247D01*
X128644173Y-91141247D02*
X128691792Y-91331723D01*
X128691792Y-91331723D02*
X128739411Y-91426961D01*
X128739411Y-91426961D02*
X128834649Y-91522200D01*
X128834649Y-91522200D02*
X128977506Y-91569819D01*
X128977506Y-91569819D02*
X129215601Y-91569819D01*
X133063220Y-104069819D02*
X133063220Y-103069819D01*
X133063220Y-103546009D02*
X132491792Y-103546009D01*
X132491792Y-104069819D02*
X132491792Y-103069819D01*
X132063220Y-104022200D02*
X131920363Y-104069819D01*
X131920363Y-104069819D02*
X131682268Y-104069819D01*
X131682268Y-104069819D02*
X131587030Y-104022200D01*
X131587030Y-104022200D02*
X131539411Y-103974580D01*
X131539411Y-103974580D02*
X131491792Y-103879342D01*
X131491792Y-103879342D02*
X131491792Y-103784104D01*
X131491792Y-103784104D02*
X131539411Y-103688866D01*
X131539411Y-103688866D02*
X131587030Y-103641247D01*
X131587030Y-103641247D02*
X131682268Y-103593628D01*
X131682268Y-103593628D02*
X131872744Y-103546009D01*
X131872744Y-103546009D02*
X131967982Y-103498390D01*
X131967982Y-103498390D02*
X132015601Y-103450771D01*
X132015601Y-103450771D02*
X132063220Y-103355533D01*
X132063220Y-103355533D02*
X132063220Y-103260295D01*
X132063220Y-103260295D02*
X132015601Y-103165057D01*
X132015601Y-103165057D02*
X131967982Y-103117438D01*
X131967982Y-103117438D02*
X131872744Y-103069819D01*
X131872744Y-103069819D02*
X131634649Y-103069819D01*
X131634649Y-103069819D02*
X131491792Y-103117438D01*
X130872744Y-103593628D02*
X130872744Y-104069819D01*
X131206077Y-103069819D02*
X130872744Y-103593628D01*
X130872744Y-103593628D02*
X130539411Y-103069819D01*
X130206077Y-104069819D02*
X130206077Y-103069819D01*
X130206077Y-103069819D02*
X129634649Y-104069819D01*
X129634649Y-104069819D02*
X129634649Y-103069819D01*
X128587030Y-103974580D02*
X128634649Y-104022200D01*
X128634649Y-104022200D02*
X128777506Y-104069819D01*
X128777506Y-104069819D02*
X128872744Y-104069819D01*
X128872744Y-104069819D02*
X129015601Y-104022200D01*
X129015601Y-104022200D02*
X129110839Y-103926961D01*
X129110839Y-103926961D02*
X129158458Y-103831723D01*
X129158458Y-103831723D02*
X129206077Y-103641247D01*
X129206077Y-103641247D02*
X129206077Y-103498390D01*
X129206077Y-103498390D02*
X129158458Y-103307914D01*
X129158458Y-103307914D02*
X129110839Y-103212676D01*
X129110839Y-103212676D02*
X129015601Y-103117438D01*
X129015601Y-103117438D02*
X128872744Y-103069819D01*
X128872744Y-103069819D02*
X128777506Y-103069819D01*
X128777506Y-103069819D02*
X128634649Y-103117438D01*
X128634649Y-103117438D02*
X128587030Y-103165057D01*
X130739411Y-116017438D02*
X130834649Y-115969819D01*
X130834649Y-115969819D02*
X130977506Y-115969819D01*
X130977506Y-115969819D02*
X131120363Y-116017438D01*
X131120363Y-116017438D02*
X131215601Y-116112676D01*
X131215601Y-116112676D02*
X131263220Y-116207914D01*
X131263220Y-116207914D02*
X131310839Y-116398390D01*
X131310839Y-116398390D02*
X131310839Y-116541247D01*
X131310839Y-116541247D02*
X131263220Y-116731723D01*
X131263220Y-116731723D02*
X131215601Y-116826961D01*
X131215601Y-116826961D02*
X131120363Y-116922200D01*
X131120363Y-116922200D02*
X130977506Y-116969819D01*
X130977506Y-116969819D02*
X130882268Y-116969819D01*
X130882268Y-116969819D02*
X130739411Y-116922200D01*
X130739411Y-116922200D02*
X130691792Y-116874580D01*
X130691792Y-116874580D02*
X130691792Y-116541247D01*
X130691792Y-116541247D02*
X130882268Y-116541247D01*
X130263220Y-116969819D02*
X130263220Y-115969819D01*
X130263220Y-115969819D02*
X129691792Y-116969819D01*
X129691792Y-116969819D02*
X129691792Y-115969819D01*
X129215601Y-116969819D02*
X129215601Y-115969819D01*
X129215601Y-115969819D02*
X128977506Y-115969819D01*
X128977506Y-115969819D02*
X128834649Y-116017438D01*
X128834649Y-116017438D02*
X128739411Y-116112676D01*
X128739411Y-116112676D02*
X128691792Y-116207914D01*
X128691792Y-116207914D02*
X128644173Y-116398390D01*
X128644173Y-116398390D02*
X128644173Y-116541247D01*
X128644173Y-116541247D02*
X128691792Y-116731723D01*
X128691792Y-116731723D02*
X128739411Y-116826961D01*
X128739411Y-116826961D02*
X128834649Y-116922200D01*
X128834649Y-116922200D02*
X128977506Y-116969819D01*
X128977506Y-116969819D02*
X129215601Y-116969819D01*
X130739411Y-111017438D02*
X130834649Y-110969819D01*
X130834649Y-110969819D02*
X130977506Y-110969819D01*
X130977506Y-110969819D02*
X131120363Y-111017438D01*
X131120363Y-111017438D02*
X131215601Y-111112676D01*
X131215601Y-111112676D02*
X131263220Y-111207914D01*
X131263220Y-111207914D02*
X131310839Y-111398390D01*
X131310839Y-111398390D02*
X131310839Y-111541247D01*
X131310839Y-111541247D02*
X131263220Y-111731723D01*
X131263220Y-111731723D02*
X131215601Y-111826961D01*
X131215601Y-111826961D02*
X131120363Y-111922200D01*
X131120363Y-111922200D02*
X130977506Y-111969819D01*
X130977506Y-111969819D02*
X130882268Y-111969819D01*
X130882268Y-111969819D02*
X130739411Y-111922200D01*
X130739411Y-111922200D02*
X130691792Y-111874580D01*
X130691792Y-111874580D02*
X130691792Y-111541247D01*
X130691792Y-111541247D02*
X130882268Y-111541247D01*
X130263220Y-111969819D02*
X130263220Y-110969819D01*
X130263220Y-110969819D02*
X129691792Y-111969819D01*
X129691792Y-111969819D02*
X129691792Y-110969819D01*
X129215601Y-111969819D02*
X129215601Y-110969819D01*
X129215601Y-110969819D02*
X128977506Y-110969819D01*
X128977506Y-110969819D02*
X128834649Y-111017438D01*
X128834649Y-111017438D02*
X128739411Y-111112676D01*
X128739411Y-111112676D02*
X128691792Y-111207914D01*
X128691792Y-111207914D02*
X128644173Y-111398390D01*
X128644173Y-111398390D02*
X128644173Y-111541247D01*
X128644173Y-111541247D02*
X128691792Y-111731723D01*
X128691792Y-111731723D02*
X128739411Y-111826961D01*
X128739411Y-111826961D02*
X128834649Y-111922200D01*
X128834649Y-111922200D02*
X128977506Y-111969819D01*
X128977506Y-111969819D02*
X129215601Y-111969819D01*
X133006077Y-98269819D02*
X132672744Y-99269819D01*
X132672744Y-99269819D02*
X132339411Y-98269819D01*
X132053696Y-99222200D02*
X131910839Y-99269819D01*
X131910839Y-99269819D02*
X131672744Y-99269819D01*
X131672744Y-99269819D02*
X131577506Y-99222200D01*
X131577506Y-99222200D02*
X131529887Y-99174580D01*
X131529887Y-99174580D02*
X131482268Y-99079342D01*
X131482268Y-99079342D02*
X131482268Y-98984104D01*
X131482268Y-98984104D02*
X131529887Y-98888866D01*
X131529887Y-98888866D02*
X131577506Y-98841247D01*
X131577506Y-98841247D02*
X131672744Y-98793628D01*
X131672744Y-98793628D02*
X131863220Y-98746009D01*
X131863220Y-98746009D02*
X131958458Y-98698390D01*
X131958458Y-98698390D02*
X132006077Y-98650771D01*
X132006077Y-98650771D02*
X132053696Y-98555533D01*
X132053696Y-98555533D02*
X132053696Y-98460295D01*
X132053696Y-98460295D02*
X132006077Y-98365057D01*
X132006077Y-98365057D02*
X131958458Y-98317438D01*
X131958458Y-98317438D02*
X131863220Y-98269819D01*
X131863220Y-98269819D02*
X131625125Y-98269819D01*
X131625125Y-98269819D02*
X131482268Y-98317438D01*
X130863220Y-98793628D02*
X130863220Y-99269819D01*
X131196553Y-98269819D02*
X130863220Y-98793628D01*
X130863220Y-98793628D02*
X130529887Y-98269819D01*
X130196553Y-99269819D02*
X130196553Y-98269819D01*
X130196553Y-98269819D02*
X129625125Y-99269819D01*
X129625125Y-99269819D02*
X129625125Y-98269819D01*
X128577506Y-99174580D02*
X128625125Y-99222200D01*
X128625125Y-99222200D02*
X128767982Y-99269819D01*
X128767982Y-99269819D02*
X128863220Y-99269819D01*
X128863220Y-99269819D02*
X129006077Y-99222200D01*
X129006077Y-99222200D02*
X129101315Y-99126961D01*
X129101315Y-99126961D02*
X129148934Y-99031723D01*
X129148934Y-99031723D02*
X129196553Y-98841247D01*
X129196553Y-98841247D02*
X129196553Y-98698390D01*
X129196553Y-98698390D02*
X129148934Y-98507914D01*
X129148934Y-98507914D02*
X129101315Y-98412676D01*
X129101315Y-98412676D02*
X129006077Y-98317438D01*
X129006077Y-98317438D02*
X128863220Y-98269819D01*
X128863220Y-98269819D02*
X128767982Y-98269819D01*
X128767982Y-98269819D02*
X128625125Y-98317438D01*
X128625125Y-98317438D02*
X128577506Y-98365057D01*
X131629887Y-108846009D02*
X131487030Y-108893628D01*
X131487030Y-108893628D02*
X131439411Y-108941247D01*
X131439411Y-108941247D02*
X131391792Y-109036485D01*
X131391792Y-109036485D02*
X131391792Y-109179342D01*
X131391792Y-109179342D02*
X131439411Y-109274580D01*
X131439411Y-109274580D02*
X131487030Y-109322200D01*
X131487030Y-109322200D02*
X131582268Y-109369819D01*
X131582268Y-109369819D02*
X131963220Y-109369819D01*
X131963220Y-109369819D02*
X131963220Y-108369819D01*
X131963220Y-108369819D02*
X131629887Y-108369819D01*
X131629887Y-108369819D02*
X131534649Y-108417438D01*
X131534649Y-108417438D02*
X131487030Y-108465057D01*
X131487030Y-108465057D02*
X131439411Y-108560295D01*
X131439411Y-108560295D02*
X131439411Y-108655533D01*
X131439411Y-108655533D02*
X131487030Y-108750771D01*
X131487030Y-108750771D02*
X131534649Y-108798390D01*
X131534649Y-108798390D02*
X131629887Y-108846009D01*
X131629887Y-108846009D02*
X131963220Y-108846009D01*
X130487030Y-109369819D02*
X130963220Y-109369819D01*
X130963220Y-109369819D02*
X130963220Y-108369819D01*
X130153696Y-108369819D02*
X130153696Y-109179342D01*
X130153696Y-109179342D02*
X130106077Y-109274580D01*
X130106077Y-109274580D02*
X130058458Y-109322200D01*
X130058458Y-109322200D02*
X129963220Y-109369819D01*
X129963220Y-109369819D02*
X129772744Y-109369819D01*
X129772744Y-109369819D02*
X129677506Y-109322200D01*
X129677506Y-109322200D02*
X129629887Y-109274580D01*
X129629887Y-109274580D02*
X129582268Y-109179342D01*
X129582268Y-109179342D02*
X129582268Y-108369819D01*
X129106077Y-108846009D02*
X128772744Y-108846009D01*
X128629887Y-109369819D02*
X129106077Y-109369819D01*
X129106077Y-109369819D02*
X129106077Y-108369819D01*
X129106077Y-108369819D02*
X128629887Y-108369819D01*
X134960180Y-107155826D02*
X133960180Y-106917731D01*
X133960180Y-106917731D02*
X134674466Y-106727255D01*
X134674466Y-106727255D02*
X133960180Y-106536779D01*
X133960180Y-106536779D02*
X134960180Y-106298684D01*
X134531609Y-105774874D02*
X134579228Y-105870112D01*
X134579228Y-105870112D02*
X134626847Y-105917731D01*
X134626847Y-105917731D02*
X134722085Y-105965350D01*
X134722085Y-105965350D02*
X134769704Y-105965350D01*
X134769704Y-105965350D02*
X134864942Y-105917731D01*
X134864942Y-105917731D02*
X134912561Y-105870112D01*
X134912561Y-105870112D02*
X134960180Y-105774874D01*
X134960180Y-105774874D02*
X134960180Y-105584398D01*
X134960180Y-105584398D02*
X134912561Y-105489160D01*
X134912561Y-105489160D02*
X134864942Y-105441541D01*
X134864942Y-105441541D02*
X134769704Y-105393922D01*
X134769704Y-105393922D02*
X134722085Y-105393922D01*
X134722085Y-105393922D02*
X134626847Y-105441541D01*
X134626847Y-105441541D02*
X134579228Y-105489160D01*
X134579228Y-105489160D02*
X134531609Y-105584398D01*
X134531609Y-105584398D02*
X134531609Y-105774874D01*
X134531609Y-105774874D02*
X134483990Y-105870112D01*
X134483990Y-105870112D02*
X134436371Y-105917731D01*
X134436371Y-105917731D02*
X134341133Y-105965350D01*
X134341133Y-105965350D02*
X134150657Y-105965350D01*
X134150657Y-105965350D02*
X134055419Y-105917731D01*
X134055419Y-105917731D02*
X134007800Y-105870112D01*
X134007800Y-105870112D02*
X133960180Y-105774874D01*
X133960180Y-105774874D02*
X133960180Y-105584398D01*
X133960180Y-105584398D02*
X134007800Y-105489160D01*
X134007800Y-105489160D02*
X134055419Y-105441541D01*
X134055419Y-105441541D02*
X134150657Y-105393922D01*
X134150657Y-105393922D02*
X134341133Y-105393922D01*
X134341133Y-105393922D02*
X134436371Y-105441541D01*
X134436371Y-105441541D02*
X134483990Y-105489160D01*
X134483990Y-105489160D02*
X134531609Y-105584398D01*
X134960180Y-105060588D02*
X134960180Y-104441541D01*
X134960180Y-104441541D02*
X134579228Y-104774874D01*
X134579228Y-104774874D02*
X134579228Y-104632017D01*
X134579228Y-104632017D02*
X134531609Y-104536779D01*
X134531609Y-104536779D02*
X134483990Y-104489160D01*
X134483990Y-104489160D02*
X134388752Y-104441541D01*
X134388752Y-104441541D02*
X134150657Y-104441541D01*
X134150657Y-104441541D02*
X134055419Y-104489160D01*
X134055419Y-104489160D02*
X134007800Y-104536779D01*
X134007800Y-104536779D02*
X133960180Y-104632017D01*
X133960180Y-104632017D02*
X133960180Y-104917731D01*
X133960180Y-104917731D02*
X134007800Y-105012969D01*
X134007800Y-105012969D02*
X134055419Y-105060588D01*
X133960180Y-103489160D02*
X133960180Y-104060588D01*
X133960180Y-103774874D02*
X134960180Y-103774874D01*
X134960180Y-103774874D02*
X134817323Y-103870112D01*
X134817323Y-103870112D02*
X134722085Y-103965350D01*
X134722085Y-103965350D02*
X134674466Y-104060588D01*
X145142857Y-114154819D02*
X145714285Y-114154819D01*
X145428571Y-114154819D02*
X145428571Y-113154819D01*
X145428571Y-113154819D02*
X145523809Y-113297676D01*
X145523809Y-113297676D02*
X145619047Y-113392914D01*
X145619047Y-113392914D02*
X145714285Y-113440533D01*
X144523809Y-113154819D02*
X144428571Y-113154819D01*
X144428571Y-113154819D02*
X144333333Y-113202438D01*
X144333333Y-113202438D02*
X144285714Y-113250057D01*
X144285714Y-113250057D02*
X144238095Y-113345295D01*
X144238095Y-113345295D02*
X144190476Y-113535771D01*
X144190476Y-113535771D02*
X144190476Y-113773866D01*
X144190476Y-113773866D02*
X144238095Y-113964342D01*
X144238095Y-113964342D02*
X144285714Y-114059580D01*
X144285714Y-114059580D02*
X144333333Y-114107200D01*
X144333333Y-114107200D02*
X144428571Y-114154819D01*
X144428571Y-114154819D02*
X144523809Y-114154819D01*
X144523809Y-114154819D02*
X144619047Y-114107200D01*
X144619047Y-114107200D02*
X144666666Y-114059580D01*
X144666666Y-114059580D02*
X144714285Y-113964342D01*
X144714285Y-113964342D02*
X144761904Y-113773866D01*
X144761904Y-113773866D02*
X144761904Y-113535771D01*
X144761904Y-113535771D02*
X144714285Y-113345295D01*
X144714285Y-113345295D02*
X144666666Y-113250057D01*
X144666666Y-113250057D02*
X144619047Y-113202438D01*
X144619047Y-113202438D02*
X144523809Y-113154819D01*
X143333333Y-113488152D02*
X143333333Y-114154819D01*
X143761904Y-113488152D02*
X143761904Y-114011961D01*
X143761904Y-114011961D02*
X143714285Y-114107200D01*
X143714285Y-114107200D02*
X143619047Y-114154819D01*
X143619047Y-114154819D02*
X143476190Y-114154819D01*
X143476190Y-114154819D02*
X143380952Y-114107200D01*
X143380952Y-114107200D02*
X143333333Y-114059580D01*
D11*
%TO.C,W831*%
X121826100Y-89888600D02*
X123731100Y-89888600D01*
X121826100Y-120368600D02*
X121826100Y-89888600D01*
X123101100Y-120368600D02*
X123101100Y-89888600D01*
X123731100Y-89888600D02*
X128176100Y-89888600D01*
X123731100Y-120368600D02*
X121826100Y-120368600D01*
X128176100Y-89888600D02*
X128176100Y-120368600D01*
X128176100Y-120368600D02*
X123731100Y-120368600D01*
D12*
%TO.C,C816*%
X141090000Y-114590000D02*
X146845563Y-114590000D01*
X141090000Y-116940000D02*
X141090000Y-114590000D01*
X141090000Y-119060000D02*
X141090000Y-121410000D01*
X141090000Y-121410000D02*
X146845563Y-121410000D01*
X146845563Y-114590000D02*
X147910000Y-115654437D01*
X146845563Y-121410000D02*
X147910000Y-120345563D01*
X147910000Y-116940000D02*
X147910000Y-115654437D01*
X147910000Y-119060000D02*
X147910000Y-120345563D01*
X148150000Y-116152500D02*
X148937500Y-116152500D01*
X148543750Y-116546250D02*
X148543750Y-115758750D01*
%TD*%
M02*
