%TF.GenerationSoftware,KiCad,Pcbnew,8.0.0*%
%TF.CreationDate,2026-06-22T15:27:44+03:00*%
%TF.ProjectId,Loewe VGA,4c6f6577-6520-4564-9741-2e6b69636164,rev?*%
%TF.SameCoordinates,Original*%
%TF.FileFunction,Legend,Bot*%
%TF.FilePolarity,Positive*%
%FSLAX46Y46*%
G04 Gerber Fmt 4.6, Leading zero omitted, Abs format (unit mm)*
G04 Created by KiCad (PCBNEW 8.0.0) date 2026-06-22 15:27:44*
%MOMM*%
%LPD*%
G01*
G04 APERTURE LIST*
%ADD10C,0.150000*%
%ADD11C,0.200000*%
%ADD12C,0.120000*%
G04 APERTURE END LIST*
D10*
X132039411Y-113417438D02*
X132134649Y-113369819D01*
X132134649Y-113369819D02*
X132277506Y-113369819D01*
X132277506Y-113369819D02*
X132420363Y-113417438D01*
X132420363Y-113417438D02*
X132515601Y-113512676D01*
X132515601Y-113512676D02*
X132563220Y-113607914D01*
X132563220Y-113607914D02*
X132610839Y-113798390D01*
X132610839Y-113798390D02*
X132610839Y-113941247D01*
X132610839Y-113941247D02*
X132563220Y-114131723D01*
X132563220Y-114131723D02*
X132515601Y-114226961D01*
X132515601Y-114226961D02*
X132420363Y-114322200D01*
X132420363Y-114322200D02*
X132277506Y-114369819D01*
X132277506Y-114369819D02*
X132182268Y-114369819D01*
X132182268Y-114369819D02*
X132039411Y-114322200D01*
X132039411Y-114322200D02*
X131991792Y-114274580D01*
X131991792Y-114274580D02*
X131991792Y-113941247D01*
X131991792Y-113941247D02*
X132182268Y-113941247D01*
X130991792Y-114369819D02*
X131325125Y-113893628D01*
X131563220Y-114369819D02*
X131563220Y-113369819D01*
X131563220Y-113369819D02*
X131182268Y-113369819D01*
X131182268Y-113369819D02*
X131087030Y-113417438D01*
X131087030Y-113417438D02*
X131039411Y-113465057D01*
X131039411Y-113465057D02*
X130991792Y-113560295D01*
X130991792Y-113560295D02*
X130991792Y-113703152D01*
X130991792Y-113703152D02*
X131039411Y-113798390D01*
X131039411Y-113798390D02*
X131087030Y-113846009D01*
X131087030Y-113846009D02*
X131182268Y-113893628D01*
X131182268Y-113893628D02*
X131563220Y-113893628D01*
X130563220Y-113846009D02*
X130229887Y-113846009D01*
X130087030Y-114369819D02*
X130563220Y-114369819D01*
X130563220Y-114369819D02*
X130563220Y-113369819D01*
X130563220Y-113369819D02*
X130087030Y-113369819D01*
X129658458Y-113846009D02*
X129325125Y-113846009D01*
X129182268Y-114369819D02*
X129658458Y-114369819D01*
X129658458Y-114369819D02*
X129658458Y-113369819D01*
X129658458Y-113369819D02*
X129182268Y-113369819D01*
X128753696Y-114369819D02*
X128753696Y-113369819D01*
X128753696Y-113369819D02*
X128182268Y-114369819D01*
X128182268Y-114369819D02*
X128182268Y-113369819D01*
X130239411Y-105917438D02*
X130334649Y-105869819D01*
X130334649Y-105869819D02*
X130477506Y-105869819D01*
X130477506Y-105869819D02*
X130620363Y-105917438D01*
X130620363Y-105917438D02*
X130715601Y-106012676D01*
X130715601Y-106012676D02*
X130763220Y-106107914D01*
X130763220Y-106107914D02*
X130810839Y-106298390D01*
X130810839Y-106298390D02*
X130810839Y-106441247D01*
X130810839Y-106441247D02*
X130763220Y-106631723D01*
X130763220Y-106631723D02*
X130715601Y-106726961D01*
X130715601Y-106726961D02*
X130620363Y-106822200D01*
X130620363Y-106822200D02*
X130477506Y-106869819D01*
X130477506Y-106869819D02*
X130382268Y-106869819D01*
X130382268Y-106869819D02*
X130239411Y-106822200D01*
X130239411Y-106822200D02*
X130191792Y-106774580D01*
X130191792Y-106774580D02*
X130191792Y-106441247D01*
X130191792Y-106441247D02*
X130382268Y-106441247D01*
X129763220Y-106869819D02*
X129763220Y-105869819D01*
X129763220Y-105869819D02*
X129191792Y-106869819D01*
X129191792Y-106869819D02*
X129191792Y-105869819D01*
X128715601Y-106869819D02*
X128715601Y-105869819D01*
X128715601Y-105869819D02*
X128477506Y-105869819D01*
X128477506Y-105869819D02*
X128334649Y-105917438D01*
X128334649Y-105917438D02*
X128239411Y-106012676D01*
X128239411Y-106012676D02*
X128191792Y-106107914D01*
X128191792Y-106107914D02*
X128144173Y-106298390D01*
X128144173Y-106298390D02*
X128144173Y-106441247D01*
X128144173Y-106441247D02*
X128191792Y-106631723D01*
X128191792Y-106631723D02*
X128239411Y-106726961D01*
X128239411Y-106726961D02*
X128334649Y-106822200D01*
X128334649Y-106822200D02*
X128477506Y-106869819D01*
X128477506Y-106869819D02*
X128715601Y-106869819D01*
X130091792Y-119569819D02*
X130425125Y-119093628D01*
X130663220Y-119569819D02*
X130663220Y-118569819D01*
X130663220Y-118569819D02*
X130282268Y-118569819D01*
X130282268Y-118569819D02*
X130187030Y-118617438D01*
X130187030Y-118617438D02*
X130139411Y-118665057D01*
X130139411Y-118665057D02*
X130091792Y-118760295D01*
X130091792Y-118760295D02*
X130091792Y-118903152D01*
X130091792Y-118903152D02*
X130139411Y-118998390D01*
X130139411Y-118998390D02*
X130187030Y-119046009D01*
X130187030Y-119046009D02*
X130282268Y-119093628D01*
X130282268Y-119093628D02*
X130663220Y-119093628D01*
X129663220Y-119046009D02*
X129329887Y-119046009D01*
X129187030Y-119569819D02*
X129663220Y-119569819D01*
X129663220Y-119569819D02*
X129663220Y-118569819D01*
X129663220Y-118569819D02*
X129187030Y-118569819D01*
X128758458Y-119569819D02*
X128758458Y-118569819D01*
X128758458Y-118569819D02*
X128520363Y-118569819D01*
X128520363Y-118569819D02*
X128377506Y-118617438D01*
X128377506Y-118617438D02*
X128282268Y-118712676D01*
X128282268Y-118712676D02*
X128234649Y-118807914D01*
X128234649Y-118807914D02*
X128187030Y-118998390D01*
X128187030Y-118998390D02*
X128187030Y-119141247D01*
X128187030Y-119141247D02*
X128234649Y-119331723D01*
X128234649Y-119331723D02*
X128282268Y-119426961D01*
X128282268Y-119426961D02*
X128377506Y-119522200D01*
X128377506Y-119522200D02*
X128520363Y-119569819D01*
X128520363Y-119569819D02*
X128758458Y-119569819D01*
X130239411Y-100817438D02*
X130334649Y-100769819D01*
X130334649Y-100769819D02*
X130477506Y-100769819D01*
X130477506Y-100769819D02*
X130620363Y-100817438D01*
X130620363Y-100817438D02*
X130715601Y-100912676D01*
X130715601Y-100912676D02*
X130763220Y-101007914D01*
X130763220Y-101007914D02*
X130810839Y-101198390D01*
X130810839Y-101198390D02*
X130810839Y-101341247D01*
X130810839Y-101341247D02*
X130763220Y-101531723D01*
X130763220Y-101531723D02*
X130715601Y-101626961D01*
X130715601Y-101626961D02*
X130620363Y-101722200D01*
X130620363Y-101722200D02*
X130477506Y-101769819D01*
X130477506Y-101769819D02*
X130382268Y-101769819D01*
X130382268Y-101769819D02*
X130239411Y-101722200D01*
X130239411Y-101722200D02*
X130191792Y-101674580D01*
X130191792Y-101674580D02*
X130191792Y-101341247D01*
X130191792Y-101341247D02*
X130382268Y-101341247D01*
X129763220Y-101769819D02*
X129763220Y-100769819D01*
X129763220Y-100769819D02*
X129191792Y-101769819D01*
X129191792Y-101769819D02*
X129191792Y-100769819D01*
X128715601Y-101769819D02*
X128715601Y-100769819D01*
X128715601Y-100769819D02*
X128477506Y-100769819D01*
X128477506Y-100769819D02*
X128334649Y-100817438D01*
X128334649Y-100817438D02*
X128239411Y-100912676D01*
X128239411Y-100912676D02*
X128191792Y-101007914D01*
X128191792Y-101007914D02*
X128144173Y-101198390D01*
X128144173Y-101198390D02*
X128144173Y-101341247D01*
X128144173Y-101341247D02*
X128191792Y-101531723D01*
X128191792Y-101531723D02*
X128239411Y-101626961D01*
X128239411Y-101626961D02*
X128334649Y-101722200D01*
X128334649Y-101722200D02*
X128477506Y-101769819D01*
X128477506Y-101769819D02*
X128715601Y-101769819D01*
X160906077Y-119269819D02*
X160572744Y-120269819D01*
X160572744Y-120269819D02*
X160239411Y-119269819D01*
X159906077Y-120174580D02*
X159858458Y-120222200D01*
X159858458Y-120222200D02*
X159906077Y-120269819D01*
X159906077Y-120269819D02*
X159953696Y-120222200D01*
X159953696Y-120222200D02*
X159906077Y-120174580D01*
X159906077Y-120174580D02*
X159906077Y-120269819D01*
X158906078Y-120269819D02*
X159477506Y-120269819D01*
X159191792Y-120269819D02*
X159191792Y-119269819D01*
X159191792Y-119269819D02*
X159287030Y-119412676D01*
X159287030Y-119412676D02*
X159382268Y-119507914D01*
X159382268Y-119507914D02*
X159477506Y-119555533D01*
X158477506Y-120174580D02*
X158429887Y-120222200D01*
X158429887Y-120222200D02*
X158477506Y-120269819D01*
X158477506Y-120269819D02*
X158525125Y-120222200D01*
X158525125Y-120222200D02*
X158477506Y-120174580D01*
X158477506Y-120174580D02*
X158477506Y-120269819D01*
X158048935Y-119365057D02*
X158001316Y-119317438D01*
X158001316Y-119317438D02*
X157906078Y-119269819D01*
X157906078Y-119269819D02*
X157667983Y-119269819D01*
X157667983Y-119269819D02*
X157572745Y-119317438D01*
X157572745Y-119317438D02*
X157525126Y-119365057D01*
X157525126Y-119365057D02*
X157477507Y-119460295D01*
X157477507Y-119460295D02*
X157477507Y-119555533D01*
X157477507Y-119555533D02*
X157525126Y-119698390D01*
X157525126Y-119698390D02*
X158096554Y-120269819D01*
X158096554Y-120269819D02*
X157477507Y-120269819D01*
X155314286Y-94083264D02*
X155314286Y-94892788D01*
X155314286Y-94892788D02*
X155361905Y-94988026D01*
X155361905Y-94988026D02*
X155409524Y-95035645D01*
X155409524Y-95035645D02*
X155504762Y-95083264D01*
X155504762Y-95083264D02*
X155647619Y-95083264D01*
X155647619Y-95083264D02*
X155742857Y-95035645D01*
X155314286Y-94702312D02*
X155409524Y-94749931D01*
X155409524Y-94749931D02*
X155600000Y-94749931D01*
X155600000Y-94749931D02*
X155695238Y-94702312D01*
X155695238Y-94702312D02*
X155742857Y-94654692D01*
X155742857Y-94654692D02*
X155790476Y-94559454D01*
X155790476Y-94559454D02*
X155790476Y-94273740D01*
X155790476Y-94273740D02*
X155742857Y-94178502D01*
X155742857Y-94178502D02*
X155695238Y-94130883D01*
X155695238Y-94130883D02*
X155600000Y-94083264D01*
X155600000Y-94083264D02*
X155409524Y-94083264D01*
X155409524Y-94083264D02*
X155314286Y-94130883D01*
X154838095Y-94749931D02*
X154838095Y-94083264D01*
X154838095Y-93749931D02*
X154885714Y-93797550D01*
X154885714Y-93797550D02*
X154838095Y-93845169D01*
X154838095Y-93845169D02*
X154790476Y-93797550D01*
X154790476Y-93797550D02*
X154838095Y-93749931D01*
X154838095Y-93749931D02*
X154838095Y-93845169D01*
X154504762Y-94083264D02*
X154123810Y-94083264D01*
X154361905Y-93749931D02*
X154361905Y-94607073D01*
X154361905Y-94607073D02*
X154314286Y-94702312D01*
X154314286Y-94702312D02*
X154219048Y-94749931D01*
X154219048Y-94749931D02*
X154123810Y-94749931D01*
X153790476Y-94749931D02*
X153790476Y-93749931D01*
X153361905Y-94749931D02*
X153361905Y-94226121D01*
X153361905Y-94226121D02*
X153409524Y-94130883D01*
X153409524Y-94130883D02*
X153504762Y-94083264D01*
X153504762Y-94083264D02*
X153647619Y-94083264D01*
X153647619Y-94083264D02*
X153742857Y-94130883D01*
X153742857Y-94130883D02*
X153790476Y-94178502D01*
X152457143Y-94083264D02*
X152457143Y-94749931D01*
X152885714Y-94083264D02*
X152885714Y-94607073D01*
X152885714Y-94607073D02*
X152838095Y-94702312D01*
X152838095Y-94702312D02*
X152742857Y-94749931D01*
X152742857Y-94749931D02*
X152600000Y-94749931D01*
X152600000Y-94749931D02*
X152504762Y-94702312D01*
X152504762Y-94702312D02*
X152457143Y-94654692D01*
X151980952Y-94749931D02*
X151980952Y-93749931D01*
X151980952Y-94130883D02*
X151885714Y-94083264D01*
X151885714Y-94083264D02*
X151695238Y-94083264D01*
X151695238Y-94083264D02*
X151600000Y-94130883D01*
X151600000Y-94130883D02*
X151552381Y-94178502D01*
X151552381Y-94178502D02*
X151504762Y-94273740D01*
X151504762Y-94273740D02*
X151504762Y-94559454D01*
X151504762Y-94559454D02*
X151552381Y-94654692D01*
X151552381Y-94654692D02*
X151600000Y-94702312D01*
X151600000Y-94702312D02*
X151695238Y-94749931D01*
X151695238Y-94749931D02*
X151885714Y-94749931D01*
X151885714Y-94749931D02*
X151980952Y-94702312D01*
X151076190Y-94654692D02*
X151028571Y-94702312D01*
X151028571Y-94702312D02*
X151076190Y-94749931D01*
X151076190Y-94749931D02*
X151123809Y-94702312D01*
X151123809Y-94702312D02*
X151076190Y-94654692D01*
X151076190Y-94654692D02*
X151076190Y-94749931D01*
X150171429Y-94702312D02*
X150266667Y-94749931D01*
X150266667Y-94749931D02*
X150457143Y-94749931D01*
X150457143Y-94749931D02*
X150552381Y-94702312D01*
X150552381Y-94702312D02*
X150600000Y-94654692D01*
X150600000Y-94654692D02*
X150647619Y-94559454D01*
X150647619Y-94559454D02*
X150647619Y-94273740D01*
X150647619Y-94273740D02*
X150600000Y-94178502D01*
X150600000Y-94178502D02*
X150552381Y-94130883D01*
X150552381Y-94130883D02*
X150457143Y-94083264D01*
X150457143Y-94083264D02*
X150266667Y-94083264D01*
X150266667Y-94083264D02*
X150171429Y-94130883D01*
X149600000Y-94749931D02*
X149695238Y-94702312D01*
X149695238Y-94702312D02*
X149742857Y-94654692D01*
X149742857Y-94654692D02*
X149790476Y-94559454D01*
X149790476Y-94559454D02*
X149790476Y-94273740D01*
X149790476Y-94273740D02*
X149742857Y-94178502D01*
X149742857Y-94178502D02*
X149695238Y-94130883D01*
X149695238Y-94130883D02*
X149600000Y-94083264D01*
X149600000Y-94083264D02*
X149457143Y-94083264D01*
X149457143Y-94083264D02*
X149361905Y-94130883D01*
X149361905Y-94130883D02*
X149314286Y-94178502D01*
X149314286Y-94178502D02*
X149266667Y-94273740D01*
X149266667Y-94273740D02*
X149266667Y-94559454D01*
X149266667Y-94559454D02*
X149314286Y-94654692D01*
X149314286Y-94654692D02*
X149361905Y-94702312D01*
X149361905Y-94702312D02*
X149457143Y-94749931D01*
X149457143Y-94749931D02*
X149600000Y-94749931D01*
X148838095Y-94749931D02*
X148838095Y-94083264D01*
X148838095Y-94178502D02*
X148790476Y-94130883D01*
X148790476Y-94130883D02*
X148695238Y-94083264D01*
X148695238Y-94083264D02*
X148552381Y-94083264D01*
X148552381Y-94083264D02*
X148457143Y-94130883D01*
X148457143Y-94130883D02*
X148409524Y-94226121D01*
X148409524Y-94226121D02*
X148409524Y-94749931D01*
X148409524Y-94226121D02*
X148361905Y-94130883D01*
X148361905Y-94130883D02*
X148266667Y-94083264D01*
X148266667Y-94083264D02*
X148123810Y-94083264D01*
X148123810Y-94083264D02*
X148028571Y-94130883D01*
X148028571Y-94130883D02*
X147980952Y-94226121D01*
X147980952Y-94226121D02*
X147980952Y-94749931D01*
X146790477Y-93702312D02*
X147647619Y-94988026D01*
X146457143Y-94083264D02*
X146457143Y-95083264D01*
X146457143Y-94130883D02*
X146361905Y-94083264D01*
X146361905Y-94083264D02*
X146171429Y-94083264D01*
X146171429Y-94083264D02*
X146076191Y-94130883D01*
X146076191Y-94130883D02*
X146028572Y-94178502D01*
X146028572Y-94178502D02*
X145980953Y-94273740D01*
X145980953Y-94273740D02*
X145980953Y-94559454D01*
X145980953Y-94559454D02*
X146028572Y-94654692D01*
X146028572Y-94654692D02*
X146076191Y-94702312D01*
X146076191Y-94702312D02*
X146171429Y-94749931D01*
X146171429Y-94749931D02*
X146361905Y-94749931D01*
X146361905Y-94749931D02*
X146457143Y-94702312D01*
X145552381Y-94749931D02*
X145552381Y-94083264D01*
X145552381Y-94273740D02*
X145504762Y-94178502D01*
X145504762Y-94178502D02*
X145457143Y-94130883D01*
X145457143Y-94130883D02*
X145361905Y-94083264D01*
X145361905Y-94083264D02*
X145266667Y-94083264D01*
X144790476Y-94749931D02*
X144885714Y-94702312D01*
X144885714Y-94702312D02*
X144933333Y-94654692D01*
X144933333Y-94654692D02*
X144980952Y-94559454D01*
X144980952Y-94559454D02*
X144980952Y-94273740D01*
X144980952Y-94273740D02*
X144933333Y-94178502D01*
X144933333Y-94178502D02*
X144885714Y-94130883D01*
X144885714Y-94130883D02*
X144790476Y-94083264D01*
X144790476Y-94083264D02*
X144647619Y-94083264D01*
X144647619Y-94083264D02*
X144552381Y-94130883D01*
X144552381Y-94130883D02*
X144504762Y-94178502D01*
X144504762Y-94178502D02*
X144457143Y-94273740D01*
X144457143Y-94273740D02*
X144457143Y-94559454D01*
X144457143Y-94559454D02*
X144504762Y-94654692D01*
X144504762Y-94654692D02*
X144552381Y-94702312D01*
X144552381Y-94702312D02*
X144647619Y-94749931D01*
X144647619Y-94749931D02*
X144790476Y-94749931D01*
X144028571Y-94749931D02*
X144028571Y-93749931D01*
X144028571Y-94130883D02*
X143933333Y-94083264D01*
X143933333Y-94083264D02*
X143742857Y-94083264D01*
X143742857Y-94083264D02*
X143647619Y-94130883D01*
X143647619Y-94130883D02*
X143600000Y-94178502D01*
X143600000Y-94178502D02*
X143552381Y-94273740D01*
X143552381Y-94273740D02*
X143552381Y-94559454D01*
X143552381Y-94559454D02*
X143600000Y-94654692D01*
X143600000Y-94654692D02*
X143647619Y-94702312D01*
X143647619Y-94702312D02*
X143742857Y-94749931D01*
X143742857Y-94749931D02*
X143933333Y-94749931D01*
X143933333Y-94749931D02*
X144028571Y-94702312D01*
X142980952Y-94749931D02*
X143076190Y-94702312D01*
X143076190Y-94702312D02*
X143123809Y-94654692D01*
X143123809Y-94654692D02*
X143171428Y-94559454D01*
X143171428Y-94559454D02*
X143171428Y-94273740D01*
X143171428Y-94273740D02*
X143123809Y-94178502D01*
X143123809Y-94178502D02*
X143076190Y-94130883D01*
X143076190Y-94130883D02*
X142980952Y-94083264D01*
X142980952Y-94083264D02*
X142838095Y-94083264D01*
X142838095Y-94083264D02*
X142742857Y-94130883D01*
X142742857Y-94130883D02*
X142695238Y-94178502D01*
X142695238Y-94178502D02*
X142647619Y-94273740D01*
X142647619Y-94273740D02*
X142647619Y-94559454D01*
X142647619Y-94559454D02*
X142695238Y-94654692D01*
X142695238Y-94654692D02*
X142742857Y-94702312D01*
X142742857Y-94702312D02*
X142838095Y-94749931D01*
X142838095Y-94749931D02*
X142980952Y-94749931D01*
X142361904Y-94083264D02*
X141980952Y-94083264D01*
X142219047Y-93749931D02*
X142219047Y-94607073D01*
X142219047Y-94607073D02*
X142171428Y-94702312D01*
X142171428Y-94702312D02*
X142076190Y-94749931D01*
X142076190Y-94749931D02*
X141980952Y-94749931D01*
X141266666Y-94702312D02*
X141361904Y-94749931D01*
X141361904Y-94749931D02*
X141552380Y-94749931D01*
X141552380Y-94749931D02*
X141647618Y-94702312D01*
X141647618Y-94702312D02*
X141695237Y-94607073D01*
X141695237Y-94607073D02*
X141695237Y-94226121D01*
X141695237Y-94226121D02*
X141647618Y-94130883D01*
X141647618Y-94130883D02*
X141552380Y-94083264D01*
X141552380Y-94083264D02*
X141361904Y-94083264D01*
X141361904Y-94083264D02*
X141266666Y-94130883D01*
X141266666Y-94130883D02*
X141219047Y-94226121D01*
X141219047Y-94226121D02*
X141219047Y-94321359D01*
X141219047Y-94321359D02*
X141695237Y-94416597D01*
X140790475Y-94749931D02*
X140790475Y-94083264D01*
X140790475Y-94273740D02*
X140742856Y-94178502D01*
X140742856Y-94178502D02*
X140695237Y-94130883D01*
X140695237Y-94130883D02*
X140599999Y-94083264D01*
X140599999Y-94083264D02*
X140504761Y-94083264D01*
X140171427Y-94749931D02*
X140171427Y-94083264D01*
X140171427Y-94273740D02*
X140123808Y-94178502D01*
X140123808Y-94178502D02*
X140076189Y-94130883D01*
X140076189Y-94130883D02*
X139980951Y-94083264D01*
X139980951Y-94083264D02*
X139885713Y-94083264D01*
X139409522Y-94749931D02*
X139504760Y-94702312D01*
X139504760Y-94702312D02*
X139552379Y-94654692D01*
X139552379Y-94654692D02*
X139599998Y-94559454D01*
X139599998Y-94559454D02*
X139599998Y-94273740D01*
X139599998Y-94273740D02*
X139552379Y-94178502D01*
X139552379Y-94178502D02*
X139504760Y-94130883D01*
X139504760Y-94130883D02*
X139409522Y-94083264D01*
X139409522Y-94083264D02*
X139266665Y-94083264D01*
X139266665Y-94083264D02*
X139171427Y-94130883D01*
X139171427Y-94130883D02*
X139123808Y-94178502D01*
X139123808Y-94178502D02*
X139076189Y-94273740D01*
X139076189Y-94273740D02*
X139076189Y-94559454D01*
X139076189Y-94559454D02*
X139123808Y-94654692D01*
X139123808Y-94654692D02*
X139171427Y-94702312D01*
X139171427Y-94702312D02*
X139266665Y-94749931D01*
X139266665Y-94749931D02*
X139409522Y-94749931D01*
X138647617Y-94749931D02*
X138647617Y-94083264D01*
X138647617Y-94273740D02*
X138599998Y-94178502D01*
X138599998Y-94178502D02*
X138552379Y-94130883D01*
X138552379Y-94130883D02*
X138457141Y-94083264D01*
X138457141Y-94083264D02*
X138361903Y-94083264D01*
X137314284Y-93702312D02*
X138171426Y-94988026D01*
X155671429Y-96359875D02*
X156147619Y-96359875D01*
X156147619Y-96359875D02*
X156147619Y-95359875D01*
X155195238Y-96359875D02*
X155290476Y-96312256D01*
X155290476Y-96312256D02*
X155338095Y-96264636D01*
X155338095Y-96264636D02*
X155385714Y-96169398D01*
X155385714Y-96169398D02*
X155385714Y-95883684D01*
X155385714Y-95883684D02*
X155338095Y-95788446D01*
X155338095Y-95788446D02*
X155290476Y-95740827D01*
X155290476Y-95740827D02*
X155195238Y-95693208D01*
X155195238Y-95693208D02*
X155052381Y-95693208D01*
X155052381Y-95693208D02*
X154957143Y-95740827D01*
X154957143Y-95740827D02*
X154909524Y-95788446D01*
X154909524Y-95788446D02*
X154861905Y-95883684D01*
X154861905Y-95883684D02*
X154861905Y-96169398D01*
X154861905Y-96169398D02*
X154909524Y-96264636D01*
X154909524Y-96264636D02*
X154957143Y-96312256D01*
X154957143Y-96312256D02*
X155052381Y-96359875D01*
X155052381Y-96359875D02*
X155195238Y-96359875D01*
X154052381Y-96312256D02*
X154147619Y-96359875D01*
X154147619Y-96359875D02*
X154338095Y-96359875D01*
X154338095Y-96359875D02*
X154433333Y-96312256D01*
X154433333Y-96312256D02*
X154480952Y-96217017D01*
X154480952Y-96217017D02*
X154480952Y-95836065D01*
X154480952Y-95836065D02*
X154433333Y-95740827D01*
X154433333Y-95740827D02*
X154338095Y-95693208D01*
X154338095Y-95693208D02*
X154147619Y-95693208D01*
X154147619Y-95693208D02*
X154052381Y-95740827D01*
X154052381Y-95740827D02*
X154004762Y-95836065D01*
X154004762Y-95836065D02*
X154004762Y-95931303D01*
X154004762Y-95931303D02*
X154480952Y-96026541D01*
X153671428Y-95693208D02*
X153480952Y-96359875D01*
X153480952Y-96359875D02*
X153290476Y-95883684D01*
X153290476Y-95883684D02*
X153100000Y-96359875D01*
X153100000Y-96359875D02*
X152909524Y-95693208D01*
X152147619Y-96312256D02*
X152242857Y-96359875D01*
X152242857Y-96359875D02*
X152433333Y-96359875D01*
X152433333Y-96359875D02*
X152528571Y-96312256D01*
X152528571Y-96312256D02*
X152576190Y-96217017D01*
X152576190Y-96217017D02*
X152576190Y-95836065D01*
X152576190Y-95836065D02*
X152528571Y-95740827D01*
X152528571Y-95740827D02*
X152433333Y-95693208D01*
X152433333Y-95693208D02*
X152242857Y-95693208D01*
X152242857Y-95693208D02*
X152147619Y-95740827D01*
X152147619Y-95740827D02*
X152100000Y-95836065D01*
X152100000Y-95836065D02*
X152100000Y-95931303D01*
X152100000Y-95931303D02*
X152576190Y-96026541D01*
X151909524Y-96455113D02*
X151147619Y-96455113D01*
X151052380Y-95359875D02*
X150719047Y-96359875D01*
X150719047Y-96359875D02*
X150385714Y-95359875D01*
X149528571Y-95407494D02*
X149623809Y-95359875D01*
X149623809Y-95359875D02*
X149766666Y-95359875D01*
X149766666Y-95359875D02*
X149909523Y-95407494D01*
X149909523Y-95407494D02*
X150004761Y-95502732D01*
X150004761Y-95502732D02*
X150052380Y-95597970D01*
X150052380Y-95597970D02*
X150099999Y-95788446D01*
X150099999Y-95788446D02*
X150099999Y-95931303D01*
X150099999Y-95931303D02*
X150052380Y-96121779D01*
X150052380Y-96121779D02*
X150004761Y-96217017D01*
X150004761Y-96217017D02*
X149909523Y-96312256D01*
X149909523Y-96312256D02*
X149766666Y-96359875D01*
X149766666Y-96359875D02*
X149671428Y-96359875D01*
X149671428Y-96359875D02*
X149528571Y-96312256D01*
X149528571Y-96312256D02*
X149480952Y-96264636D01*
X149480952Y-96264636D02*
X149480952Y-95931303D01*
X149480952Y-95931303D02*
X149671428Y-95931303D01*
X149099999Y-96074160D02*
X148623809Y-96074160D01*
X149195237Y-96359875D02*
X148861904Y-95359875D01*
X148861904Y-95359875D02*
X148528571Y-96359875D01*
X148433333Y-96455113D02*
X147671428Y-96455113D01*
X147433332Y-96359875D02*
X147433332Y-95359875D01*
X147433332Y-95359875D02*
X147099999Y-96074160D01*
X147099999Y-96074160D02*
X146766666Y-95359875D01*
X146766666Y-95359875D02*
X146766666Y-96359875D01*
X146147618Y-96359875D02*
X146242856Y-96312256D01*
X146242856Y-96312256D02*
X146290475Y-96264636D01*
X146290475Y-96264636D02*
X146338094Y-96169398D01*
X146338094Y-96169398D02*
X146338094Y-95883684D01*
X146338094Y-95883684D02*
X146290475Y-95788446D01*
X146290475Y-95788446D02*
X146242856Y-95740827D01*
X146242856Y-95740827D02*
X146147618Y-95693208D01*
X146147618Y-95693208D02*
X146004761Y-95693208D01*
X146004761Y-95693208D02*
X145909523Y-95740827D01*
X145909523Y-95740827D02*
X145861904Y-95788446D01*
X145861904Y-95788446D02*
X145814285Y-95883684D01*
X145814285Y-95883684D02*
X145814285Y-96169398D01*
X145814285Y-96169398D02*
X145861904Y-96264636D01*
X145861904Y-96264636D02*
X145909523Y-96312256D01*
X145909523Y-96312256D02*
X146004761Y-96359875D01*
X146004761Y-96359875D02*
X146147618Y-96359875D01*
X144957142Y-96359875D02*
X144957142Y-95359875D01*
X144957142Y-96312256D02*
X145052380Y-96359875D01*
X145052380Y-96359875D02*
X145242856Y-96359875D01*
X145242856Y-96359875D02*
X145338094Y-96312256D01*
X145338094Y-96312256D02*
X145385713Y-96264636D01*
X145385713Y-96264636D02*
X145433332Y-96169398D01*
X145433332Y-96169398D02*
X145433332Y-95883684D01*
X145433332Y-95883684D02*
X145385713Y-95788446D01*
X145385713Y-95788446D02*
X145338094Y-95740827D01*
X145338094Y-95740827D02*
X145242856Y-95693208D01*
X145242856Y-95693208D02*
X145052380Y-95693208D01*
X145052380Y-95693208D02*
X144957142Y-95740827D01*
X144052380Y-95693208D02*
X144052380Y-96359875D01*
X144480951Y-95693208D02*
X144480951Y-96217017D01*
X144480951Y-96217017D02*
X144433332Y-96312256D01*
X144433332Y-96312256D02*
X144338094Y-96359875D01*
X144338094Y-96359875D02*
X144195237Y-96359875D01*
X144195237Y-96359875D02*
X144099999Y-96312256D01*
X144099999Y-96312256D02*
X144052380Y-96264636D01*
X143433332Y-96359875D02*
X143528570Y-96312256D01*
X143528570Y-96312256D02*
X143576189Y-96217017D01*
X143576189Y-96217017D02*
X143576189Y-95359875D01*
X142671427Y-96312256D02*
X142766665Y-96359875D01*
X142766665Y-96359875D02*
X142957141Y-96359875D01*
X142957141Y-96359875D02*
X143052379Y-96312256D01*
X143052379Y-96312256D02*
X143099998Y-96217017D01*
X143099998Y-96217017D02*
X143099998Y-95836065D01*
X143099998Y-95836065D02*
X143052379Y-95740827D01*
X143052379Y-95740827D02*
X142957141Y-95693208D01*
X142957141Y-95693208D02*
X142766665Y-95693208D01*
X142766665Y-95693208D02*
X142671427Y-95740827D01*
X142671427Y-95740827D02*
X142623808Y-95836065D01*
X142623808Y-95836065D02*
X142623808Y-95931303D01*
X142623808Y-95931303D02*
X143099998Y-96026541D01*
X142433332Y-96455113D02*
X141671427Y-96455113D01*
X140766665Y-96455113D02*
X140861903Y-96407494D01*
X140861903Y-96407494D02*
X140957141Y-96312256D01*
X140957141Y-96312256D02*
X141099998Y-96169398D01*
X141099998Y-96169398D02*
X141195236Y-96121779D01*
X141195236Y-96121779D02*
X141290474Y-96121779D01*
X141242855Y-96359875D02*
X141338093Y-96312256D01*
X141338093Y-96312256D02*
X141433331Y-96217017D01*
X141433331Y-96217017D02*
X141480950Y-96026541D01*
X141480950Y-96026541D02*
X141480950Y-95693208D01*
X141480950Y-95693208D02*
X141433331Y-95502732D01*
X141433331Y-95502732D02*
X141338093Y-95407494D01*
X141338093Y-95407494D02*
X141242855Y-95359875D01*
X141242855Y-95359875D02*
X141052379Y-95359875D01*
X141052379Y-95359875D02*
X140957141Y-95407494D01*
X140957141Y-95407494D02*
X140861903Y-95502732D01*
X140861903Y-95502732D02*
X140814284Y-95693208D01*
X140814284Y-95693208D02*
X140814284Y-96026541D01*
X140814284Y-96026541D02*
X140861903Y-96217017D01*
X140861903Y-96217017D02*
X140957141Y-96312256D01*
X140957141Y-96312256D02*
X141052379Y-96359875D01*
X141052379Y-96359875D02*
X141242855Y-96359875D01*
X140433331Y-95455113D02*
X140385712Y-95407494D01*
X140385712Y-95407494D02*
X140290474Y-95359875D01*
X140290474Y-95359875D02*
X140052379Y-95359875D01*
X140052379Y-95359875D02*
X139957141Y-95407494D01*
X139957141Y-95407494D02*
X139909522Y-95455113D01*
X139909522Y-95455113D02*
X139861903Y-95550351D01*
X139861903Y-95550351D02*
X139861903Y-95645589D01*
X139861903Y-95645589D02*
X139909522Y-95788446D01*
X139909522Y-95788446D02*
X140480950Y-96359875D01*
X140480950Y-96359875D02*
X139861903Y-96359875D01*
X138957141Y-95359875D02*
X139433331Y-95359875D01*
X139433331Y-95359875D02*
X139480950Y-95836065D01*
X139480950Y-95836065D02*
X139433331Y-95788446D01*
X139433331Y-95788446D02*
X139338093Y-95740827D01*
X139338093Y-95740827D02*
X139099998Y-95740827D01*
X139099998Y-95740827D02*
X139004760Y-95788446D01*
X139004760Y-95788446D02*
X138957141Y-95836065D01*
X138957141Y-95836065D02*
X138909522Y-95931303D01*
X138909522Y-95931303D02*
X138909522Y-96169398D01*
X138909522Y-96169398D02*
X138957141Y-96264636D01*
X138957141Y-96264636D02*
X139004760Y-96312256D01*
X139004760Y-96312256D02*
X139099998Y-96359875D01*
X139099998Y-96359875D02*
X139338093Y-96359875D01*
X139338093Y-96359875D02*
X139433331Y-96312256D01*
X139433331Y-96312256D02*
X139480950Y-96264636D01*
X138290474Y-95359875D02*
X138195236Y-95359875D01*
X138195236Y-95359875D02*
X138099998Y-95407494D01*
X138099998Y-95407494D02*
X138052379Y-95455113D01*
X138052379Y-95455113D02*
X138004760Y-95550351D01*
X138004760Y-95550351D02*
X137957141Y-95740827D01*
X137957141Y-95740827D02*
X137957141Y-95978922D01*
X137957141Y-95978922D02*
X138004760Y-96169398D01*
X138004760Y-96169398D02*
X138052379Y-96264636D01*
X138052379Y-96264636D02*
X138099998Y-96312256D01*
X138099998Y-96312256D02*
X138195236Y-96359875D01*
X138195236Y-96359875D02*
X138290474Y-96359875D01*
X138290474Y-96359875D02*
X138385712Y-96312256D01*
X138385712Y-96312256D02*
X138433331Y-96264636D01*
X138433331Y-96264636D02*
X138480950Y-96169398D01*
X138480950Y-96169398D02*
X138528569Y-95978922D01*
X138528569Y-95978922D02*
X138528569Y-95740827D01*
X138528569Y-95740827D02*
X138480950Y-95550351D01*
X138480950Y-95550351D02*
X138433331Y-95455113D01*
X138433331Y-95455113D02*
X138385712Y-95407494D01*
X138385712Y-95407494D02*
X138290474Y-95359875D01*
X137338093Y-95359875D02*
X137242855Y-95359875D01*
X137242855Y-95359875D02*
X137147617Y-95407494D01*
X137147617Y-95407494D02*
X137099998Y-95455113D01*
X137099998Y-95455113D02*
X137052379Y-95550351D01*
X137052379Y-95550351D02*
X137004760Y-95740827D01*
X137004760Y-95740827D02*
X137004760Y-95978922D01*
X137004760Y-95978922D02*
X137052379Y-96169398D01*
X137052379Y-96169398D02*
X137099998Y-96264636D01*
X137099998Y-96264636D02*
X137147617Y-96312256D01*
X137147617Y-96312256D02*
X137242855Y-96359875D01*
X137242855Y-96359875D02*
X137338093Y-96359875D01*
X137338093Y-96359875D02*
X137433331Y-96312256D01*
X137433331Y-96312256D02*
X137480950Y-96264636D01*
X137480950Y-96264636D02*
X137528569Y-96169398D01*
X137528569Y-96169398D02*
X137576188Y-95978922D01*
X137576188Y-95978922D02*
X137576188Y-95740827D01*
X137576188Y-95740827D02*
X137528569Y-95550351D01*
X137528569Y-95550351D02*
X137480950Y-95455113D01*
X137480950Y-95455113D02*
X137433331Y-95407494D01*
X137433331Y-95407494D02*
X137338093Y-95359875D01*
X151623809Y-97303152D02*
X151242857Y-97303152D01*
X151480952Y-96969819D02*
X151480952Y-97826961D01*
X151480952Y-97826961D02*
X151433333Y-97922200D01*
X151433333Y-97922200D02*
X151338095Y-97969819D01*
X151338095Y-97969819D02*
X151242857Y-97969819D01*
X150909523Y-97874580D02*
X150861904Y-97922200D01*
X150861904Y-97922200D02*
X150909523Y-97969819D01*
X150909523Y-97969819D02*
X150957142Y-97922200D01*
X150957142Y-97922200D02*
X150909523Y-97874580D01*
X150909523Y-97874580D02*
X150909523Y-97969819D01*
X150433333Y-97969819D02*
X150433333Y-97303152D01*
X150433333Y-97398390D02*
X150385714Y-97350771D01*
X150385714Y-97350771D02*
X150290476Y-97303152D01*
X150290476Y-97303152D02*
X150147619Y-97303152D01*
X150147619Y-97303152D02*
X150052381Y-97350771D01*
X150052381Y-97350771D02*
X150004762Y-97446009D01*
X150004762Y-97446009D02*
X150004762Y-97969819D01*
X150004762Y-97446009D02*
X149957143Y-97350771D01*
X149957143Y-97350771D02*
X149861905Y-97303152D01*
X149861905Y-97303152D02*
X149719048Y-97303152D01*
X149719048Y-97303152D02*
X149623809Y-97350771D01*
X149623809Y-97350771D02*
X149576190Y-97446009D01*
X149576190Y-97446009D02*
X149576190Y-97969819D01*
X148719048Y-97922200D02*
X148814286Y-97969819D01*
X148814286Y-97969819D02*
X149004762Y-97969819D01*
X149004762Y-97969819D02*
X149100000Y-97922200D01*
X149100000Y-97922200D02*
X149147619Y-97826961D01*
X149147619Y-97826961D02*
X149147619Y-97446009D01*
X149147619Y-97446009D02*
X149100000Y-97350771D01*
X149100000Y-97350771D02*
X149004762Y-97303152D01*
X149004762Y-97303152D02*
X148814286Y-97303152D01*
X148814286Y-97303152D02*
X148719048Y-97350771D01*
X148719048Y-97350771D02*
X148671429Y-97446009D01*
X148671429Y-97446009D02*
X148671429Y-97541247D01*
X148671429Y-97541247D02*
X149147619Y-97636485D01*
X147528572Y-96922200D02*
X148385714Y-98207914D01*
X146766667Y-97969819D02*
X146766667Y-96969819D01*
X146766667Y-97922200D02*
X146861905Y-97969819D01*
X146861905Y-97969819D02*
X147052381Y-97969819D01*
X147052381Y-97969819D02*
X147147619Y-97922200D01*
X147147619Y-97922200D02*
X147195238Y-97874580D01*
X147195238Y-97874580D02*
X147242857Y-97779342D01*
X147242857Y-97779342D02*
X147242857Y-97493628D01*
X147242857Y-97493628D02*
X147195238Y-97398390D01*
X147195238Y-97398390D02*
X147147619Y-97350771D01*
X147147619Y-97350771D02*
X147052381Y-97303152D01*
X147052381Y-97303152D02*
X146861905Y-97303152D01*
X146861905Y-97303152D02*
X146766667Y-97350771D01*
X146290476Y-97969819D02*
X146290476Y-97303152D01*
X146290476Y-97398390D02*
X146242857Y-97350771D01*
X146242857Y-97350771D02*
X146147619Y-97303152D01*
X146147619Y-97303152D02*
X146004762Y-97303152D01*
X146004762Y-97303152D02*
X145909524Y-97350771D01*
X145909524Y-97350771D02*
X145861905Y-97446009D01*
X145861905Y-97446009D02*
X145861905Y-97969819D01*
X145861905Y-97446009D02*
X145814286Y-97350771D01*
X145814286Y-97350771D02*
X145719048Y-97303152D01*
X145719048Y-97303152D02*
X145576191Y-97303152D01*
X145576191Y-97303152D02*
X145480952Y-97350771D01*
X145480952Y-97350771D02*
X145433333Y-97446009D01*
X145433333Y-97446009D02*
X145433333Y-97969819D01*
X144528572Y-97303152D02*
X144528572Y-98112676D01*
X144528572Y-98112676D02*
X144576191Y-98207914D01*
X144576191Y-98207914D02*
X144623810Y-98255533D01*
X144623810Y-98255533D02*
X144719048Y-98303152D01*
X144719048Y-98303152D02*
X144861905Y-98303152D01*
X144861905Y-98303152D02*
X144957143Y-98255533D01*
X144528572Y-97922200D02*
X144623810Y-97969819D01*
X144623810Y-97969819D02*
X144814286Y-97969819D01*
X144814286Y-97969819D02*
X144909524Y-97922200D01*
X144909524Y-97922200D02*
X144957143Y-97874580D01*
X144957143Y-97874580D02*
X145004762Y-97779342D01*
X145004762Y-97779342D02*
X145004762Y-97493628D01*
X145004762Y-97493628D02*
X144957143Y-97398390D01*
X144957143Y-97398390D02*
X144909524Y-97350771D01*
X144909524Y-97350771D02*
X144814286Y-97303152D01*
X144814286Y-97303152D02*
X144623810Y-97303152D01*
X144623810Y-97303152D02*
X144528572Y-97350771D01*
X144290477Y-98065057D02*
X143528572Y-98065057D01*
X142861905Y-97922200D02*
X142957143Y-97969819D01*
X142957143Y-97969819D02*
X143147619Y-97969819D01*
X143147619Y-97969819D02*
X143242857Y-97922200D01*
X143242857Y-97922200D02*
X143290476Y-97874580D01*
X143290476Y-97874580D02*
X143338095Y-97779342D01*
X143338095Y-97779342D02*
X143338095Y-97493628D01*
X143338095Y-97493628D02*
X143290476Y-97398390D01*
X143290476Y-97398390D02*
X143242857Y-97350771D01*
X143242857Y-97350771D02*
X143147619Y-97303152D01*
X143147619Y-97303152D02*
X142957143Y-97303152D01*
X142957143Y-97303152D02*
X142861905Y-97350771D01*
X142433333Y-97969819D02*
X142433333Y-97303152D01*
X142433333Y-97493628D02*
X142385714Y-97398390D01*
X142385714Y-97398390D02*
X142338095Y-97350771D01*
X142338095Y-97350771D02*
X142242857Y-97303152D01*
X142242857Y-97303152D02*
X142147619Y-97303152D01*
X141957142Y-97303152D02*
X141576190Y-97303152D01*
X141814285Y-96969819D02*
X141814285Y-97826961D01*
X141814285Y-97826961D02*
X141766666Y-97922200D01*
X141766666Y-97922200D02*
X141671428Y-97969819D01*
X141671428Y-97969819D02*
X141576190Y-97969819D01*
X130806077Y-93169819D02*
X130472744Y-94169819D01*
X130472744Y-94169819D02*
X130139411Y-93169819D01*
X129234649Y-94074580D02*
X129282268Y-94122200D01*
X129282268Y-94122200D02*
X129425125Y-94169819D01*
X129425125Y-94169819D02*
X129520363Y-94169819D01*
X129520363Y-94169819D02*
X129663220Y-94122200D01*
X129663220Y-94122200D02*
X129758458Y-94026961D01*
X129758458Y-94026961D02*
X129806077Y-93931723D01*
X129806077Y-93931723D02*
X129853696Y-93741247D01*
X129853696Y-93741247D02*
X129853696Y-93598390D01*
X129853696Y-93598390D02*
X129806077Y-93407914D01*
X129806077Y-93407914D02*
X129758458Y-93312676D01*
X129758458Y-93312676D02*
X129663220Y-93217438D01*
X129663220Y-93217438D02*
X129520363Y-93169819D01*
X129520363Y-93169819D02*
X129425125Y-93169819D01*
X129425125Y-93169819D02*
X129282268Y-93217438D01*
X129282268Y-93217438D02*
X129234649Y-93265057D01*
X128234649Y-94074580D02*
X128282268Y-94122200D01*
X128282268Y-94122200D02*
X128425125Y-94169819D01*
X128425125Y-94169819D02*
X128520363Y-94169819D01*
X128520363Y-94169819D02*
X128663220Y-94122200D01*
X128663220Y-94122200D02*
X128758458Y-94026961D01*
X128758458Y-94026961D02*
X128806077Y-93931723D01*
X128806077Y-93931723D02*
X128853696Y-93741247D01*
X128853696Y-93741247D02*
X128853696Y-93598390D01*
X128853696Y-93598390D02*
X128806077Y-93407914D01*
X128806077Y-93407914D02*
X128758458Y-93312676D01*
X128758458Y-93312676D02*
X128663220Y-93217438D01*
X128663220Y-93217438D02*
X128520363Y-93169819D01*
X128520363Y-93169819D02*
X128425125Y-93169819D01*
X128425125Y-93169819D02*
X128282268Y-93217438D01*
X128282268Y-93217438D02*
X128234649Y-93265057D01*
X130239411Y-95717438D02*
X130334649Y-95669819D01*
X130334649Y-95669819D02*
X130477506Y-95669819D01*
X130477506Y-95669819D02*
X130620363Y-95717438D01*
X130620363Y-95717438D02*
X130715601Y-95812676D01*
X130715601Y-95812676D02*
X130763220Y-95907914D01*
X130763220Y-95907914D02*
X130810839Y-96098390D01*
X130810839Y-96098390D02*
X130810839Y-96241247D01*
X130810839Y-96241247D02*
X130763220Y-96431723D01*
X130763220Y-96431723D02*
X130715601Y-96526961D01*
X130715601Y-96526961D02*
X130620363Y-96622200D01*
X130620363Y-96622200D02*
X130477506Y-96669819D01*
X130477506Y-96669819D02*
X130382268Y-96669819D01*
X130382268Y-96669819D02*
X130239411Y-96622200D01*
X130239411Y-96622200D02*
X130191792Y-96574580D01*
X130191792Y-96574580D02*
X130191792Y-96241247D01*
X130191792Y-96241247D02*
X130382268Y-96241247D01*
X129763220Y-96669819D02*
X129763220Y-95669819D01*
X129763220Y-95669819D02*
X129191792Y-96669819D01*
X129191792Y-96669819D02*
X129191792Y-95669819D01*
X128715601Y-96669819D02*
X128715601Y-95669819D01*
X128715601Y-95669819D02*
X128477506Y-95669819D01*
X128477506Y-95669819D02*
X128334649Y-95717438D01*
X128334649Y-95717438D02*
X128239411Y-95812676D01*
X128239411Y-95812676D02*
X128191792Y-95907914D01*
X128191792Y-95907914D02*
X128144173Y-96098390D01*
X128144173Y-96098390D02*
X128144173Y-96241247D01*
X128144173Y-96241247D02*
X128191792Y-96431723D01*
X128191792Y-96431723D02*
X128239411Y-96526961D01*
X128239411Y-96526961D02*
X128334649Y-96622200D01*
X128334649Y-96622200D02*
X128477506Y-96669819D01*
X128477506Y-96669819D02*
X128715601Y-96669819D01*
X130239411Y-90617438D02*
X130334649Y-90569819D01*
X130334649Y-90569819D02*
X130477506Y-90569819D01*
X130477506Y-90569819D02*
X130620363Y-90617438D01*
X130620363Y-90617438D02*
X130715601Y-90712676D01*
X130715601Y-90712676D02*
X130763220Y-90807914D01*
X130763220Y-90807914D02*
X130810839Y-90998390D01*
X130810839Y-90998390D02*
X130810839Y-91141247D01*
X130810839Y-91141247D02*
X130763220Y-91331723D01*
X130763220Y-91331723D02*
X130715601Y-91426961D01*
X130715601Y-91426961D02*
X130620363Y-91522200D01*
X130620363Y-91522200D02*
X130477506Y-91569819D01*
X130477506Y-91569819D02*
X130382268Y-91569819D01*
X130382268Y-91569819D02*
X130239411Y-91522200D01*
X130239411Y-91522200D02*
X130191792Y-91474580D01*
X130191792Y-91474580D02*
X130191792Y-91141247D01*
X130191792Y-91141247D02*
X130382268Y-91141247D01*
X129763220Y-91569819D02*
X129763220Y-90569819D01*
X129763220Y-90569819D02*
X129191792Y-91569819D01*
X129191792Y-91569819D02*
X129191792Y-90569819D01*
X128715601Y-91569819D02*
X128715601Y-90569819D01*
X128715601Y-90569819D02*
X128477506Y-90569819D01*
X128477506Y-90569819D02*
X128334649Y-90617438D01*
X128334649Y-90617438D02*
X128239411Y-90712676D01*
X128239411Y-90712676D02*
X128191792Y-90807914D01*
X128191792Y-90807914D02*
X128144173Y-90998390D01*
X128144173Y-90998390D02*
X128144173Y-91141247D01*
X128144173Y-91141247D02*
X128191792Y-91331723D01*
X128191792Y-91331723D02*
X128239411Y-91426961D01*
X128239411Y-91426961D02*
X128334649Y-91522200D01*
X128334649Y-91522200D02*
X128477506Y-91569819D01*
X128477506Y-91569819D02*
X128715601Y-91569819D01*
X132563220Y-104069819D02*
X132563220Y-103069819D01*
X132563220Y-103546009D02*
X131991792Y-103546009D01*
X131991792Y-104069819D02*
X131991792Y-103069819D01*
X131563220Y-104022200D02*
X131420363Y-104069819D01*
X131420363Y-104069819D02*
X131182268Y-104069819D01*
X131182268Y-104069819D02*
X131087030Y-104022200D01*
X131087030Y-104022200D02*
X131039411Y-103974580D01*
X131039411Y-103974580D02*
X130991792Y-103879342D01*
X130991792Y-103879342D02*
X130991792Y-103784104D01*
X130991792Y-103784104D02*
X131039411Y-103688866D01*
X131039411Y-103688866D02*
X131087030Y-103641247D01*
X131087030Y-103641247D02*
X131182268Y-103593628D01*
X131182268Y-103593628D02*
X131372744Y-103546009D01*
X131372744Y-103546009D02*
X131467982Y-103498390D01*
X131467982Y-103498390D02*
X131515601Y-103450771D01*
X131515601Y-103450771D02*
X131563220Y-103355533D01*
X131563220Y-103355533D02*
X131563220Y-103260295D01*
X131563220Y-103260295D02*
X131515601Y-103165057D01*
X131515601Y-103165057D02*
X131467982Y-103117438D01*
X131467982Y-103117438D02*
X131372744Y-103069819D01*
X131372744Y-103069819D02*
X131134649Y-103069819D01*
X131134649Y-103069819D02*
X130991792Y-103117438D01*
X130372744Y-103593628D02*
X130372744Y-104069819D01*
X130706077Y-103069819D02*
X130372744Y-103593628D01*
X130372744Y-103593628D02*
X130039411Y-103069819D01*
X129706077Y-104069819D02*
X129706077Y-103069819D01*
X129706077Y-103069819D02*
X129134649Y-104069819D01*
X129134649Y-104069819D02*
X129134649Y-103069819D01*
X128087030Y-103974580D02*
X128134649Y-104022200D01*
X128134649Y-104022200D02*
X128277506Y-104069819D01*
X128277506Y-104069819D02*
X128372744Y-104069819D01*
X128372744Y-104069819D02*
X128515601Y-104022200D01*
X128515601Y-104022200D02*
X128610839Y-103926961D01*
X128610839Y-103926961D02*
X128658458Y-103831723D01*
X128658458Y-103831723D02*
X128706077Y-103641247D01*
X128706077Y-103641247D02*
X128706077Y-103498390D01*
X128706077Y-103498390D02*
X128658458Y-103307914D01*
X128658458Y-103307914D02*
X128610839Y-103212676D01*
X128610839Y-103212676D02*
X128515601Y-103117438D01*
X128515601Y-103117438D02*
X128372744Y-103069819D01*
X128372744Y-103069819D02*
X128277506Y-103069819D01*
X128277506Y-103069819D02*
X128134649Y-103117438D01*
X128134649Y-103117438D02*
X128087030Y-103165057D01*
X130239411Y-116017438D02*
X130334649Y-115969819D01*
X130334649Y-115969819D02*
X130477506Y-115969819D01*
X130477506Y-115969819D02*
X130620363Y-116017438D01*
X130620363Y-116017438D02*
X130715601Y-116112676D01*
X130715601Y-116112676D02*
X130763220Y-116207914D01*
X130763220Y-116207914D02*
X130810839Y-116398390D01*
X130810839Y-116398390D02*
X130810839Y-116541247D01*
X130810839Y-116541247D02*
X130763220Y-116731723D01*
X130763220Y-116731723D02*
X130715601Y-116826961D01*
X130715601Y-116826961D02*
X130620363Y-116922200D01*
X130620363Y-116922200D02*
X130477506Y-116969819D01*
X130477506Y-116969819D02*
X130382268Y-116969819D01*
X130382268Y-116969819D02*
X130239411Y-116922200D01*
X130239411Y-116922200D02*
X130191792Y-116874580D01*
X130191792Y-116874580D02*
X130191792Y-116541247D01*
X130191792Y-116541247D02*
X130382268Y-116541247D01*
X129763220Y-116969819D02*
X129763220Y-115969819D01*
X129763220Y-115969819D02*
X129191792Y-116969819D01*
X129191792Y-116969819D02*
X129191792Y-115969819D01*
X128715601Y-116969819D02*
X128715601Y-115969819D01*
X128715601Y-115969819D02*
X128477506Y-115969819D01*
X128477506Y-115969819D02*
X128334649Y-116017438D01*
X128334649Y-116017438D02*
X128239411Y-116112676D01*
X128239411Y-116112676D02*
X128191792Y-116207914D01*
X128191792Y-116207914D02*
X128144173Y-116398390D01*
X128144173Y-116398390D02*
X128144173Y-116541247D01*
X128144173Y-116541247D02*
X128191792Y-116731723D01*
X128191792Y-116731723D02*
X128239411Y-116826961D01*
X128239411Y-116826961D02*
X128334649Y-116922200D01*
X128334649Y-116922200D02*
X128477506Y-116969819D01*
X128477506Y-116969819D02*
X128715601Y-116969819D01*
X130239411Y-111017438D02*
X130334649Y-110969819D01*
X130334649Y-110969819D02*
X130477506Y-110969819D01*
X130477506Y-110969819D02*
X130620363Y-111017438D01*
X130620363Y-111017438D02*
X130715601Y-111112676D01*
X130715601Y-111112676D02*
X130763220Y-111207914D01*
X130763220Y-111207914D02*
X130810839Y-111398390D01*
X130810839Y-111398390D02*
X130810839Y-111541247D01*
X130810839Y-111541247D02*
X130763220Y-111731723D01*
X130763220Y-111731723D02*
X130715601Y-111826961D01*
X130715601Y-111826961D02*
X130620363Y-111922200D01*
X130620363Y-111922200D02*
X130477506Y-111969819D01*
X130477506Y-111969819D02*
X130382268Y-111969819D01*
X130382268Y-111969819D02*
X130239411Y-111922200D01*
X130239411Y-111922200D02*
X130191792Y-111874580D01*
X130191792Y-111874580D02*
X130191792Y-111541247D01*
X130191792Y-111541247D02*
X130382268Y-111541247D01*
X129763220Y-111969819D02*
X129763220Y-110969819D01*
X129763220Y-110969819D02*
X129191792Y-111969819D01*
X129191792Y-111969819D02*
X129191792Y-110969819D01*
X128715601Y-111969819D02*
X128715601Y-110969819D01*
X128715601Y-110969819D02*
X128477506Y-110969819D01*
X128477506Y-110969819D02*
X128334649Y-111017438D01*
X128334649Y-111017438D02*
X128239411Y-111112676D01*
X128239411Y-111112676D02*
X128191792Y-111207914D01*
X128191792Y-111207914D02*
X128144173Y-111398390D01*
X128144173Y-111398390D02*
X128144173Y-111541247D01*
X128144173Y-111541247D02*
X128191792Y-111731723D01*
X128191792Y-111731723D02*
X128239411Y-111826961D01*
X128239411Y-111826961D02*
X128334649Y-111922200D01*
X128334649Y-111922200D02*
X128477506Y-111969819D01*
X128477506Y-111969819D02*
X128715601Y-111969819D01*
D11*
X160296993Y-92606028D02*
X161011279Y-92606028D01*
X161011279Y-92606028D02*
X161011279Y-91106028D01*
X159582707Y-92606028D02*
X159725564Y-92534600D01*
X159725564Y-92534600D02*
X159796993Y-92463171D01*
X159796993Y-92463171D02*
X159868421Y-92320314D01*
X159868421Y-92320314D02*
X159868421Y-91891742D01*
X159868421Y-91891742D02*
X159796993Y-91748885D01*
X159796993Y-91748885D02*
X159725564Y-91677457D01*
X159725564Y-91677457D02*
X159582707Y-91606028D01*
X159582707Y-91606028D02*
X159368421Y-91606028D01*
X159368421Y-91606028D02*
X159225564Y-91677457D01*
X159225564Y-91677457D02*
X159154136Y-91748885D01*
X159154136Y-91748885D02*
X159082707Y-91891742D01*
X159082707Y-91891742D02*
X159082707Y-92320314D01*
X159082707Y-92320314D02*
X159154136Y-92463171D01*
X159154136Y-92463171D02*
X159225564Y-92534600D01*
X159225564Y-92534600D02*
X159368421Y-92606028D01*
X159368421Y-92606028D02*
X159582707Y-92606028D01*
X157868421Y-92534600D02*
X158011278Y-92606028D01*
X158011278Y-92606028D02*
X158296993Y-92606028D01*
X158296993Y-92606028D02*
X158439850Y-92534600D01*
X158439850Y-92534600D02*
X158511278Y-92391742D01*
X158511278Y-92391742D02*
X158511278Y-91820314D01*
X158511278Y-91820314D02*
X158439850Y-91677457D01*
X158439850Y-91677457D02*
X158296993Y-91606028D01*
X158296993Y-91606028D02*
X158011278Y-91606028D01*
X158011278Y-91606028D02*
X157868421Y-91677457D01*
X157868421Y-91677457D02*
X157796993Y-91820314D01*
X157796993Y-91820314D02*
X157796993Y-91963171D01*
X157796993Y-91963171D02*
X158511278Y-92106028D01*
X157296993Y-91606028D02*
X157011279Y-92606028D01*
X157011279Y-92606028D02*
X156725564Y-91891742D01*
X156725564Y-91891742D02*
X156439850Y-92606028D01*
X156439850Y-92606028D02*
X156154136Y-91606028D01*
X155011278Y-92534600D02*
X155154135Y-92606028D01*
X155154135Y-92606028D02*
X155439850Y-92606028D01*
X155439850Y-92606028D02*
X155582707Y-92534600D01*
X155582707Y-92534600D02*
X155654135Y-92391742D01*
X155654135Y-92391742D02*
X155654135Y-91820314D01*
X155654135Y-91820314D02*
X155582707Y-91677457D01*
X155582707Y-91677457D02*
X155439850Y-91606028D01*
X155439850Y-91606028D02*
X155154135Y-91606028D01*
X155154135Y-91606028D02*
X155011278Y-91677457D01*
X155011278Y-91677457D02*
X154939850Y-91820314D01*
X154939850Y-91820314D02*
X154939850Y-91963171D01*
X154939850Y-91963171D02*
X155654135Y-92106028D01*
X152154136Y-92748885D02*
X152296993Y-92677457D01*
X152296993Y-92677457D02*
X152439850Y-92534600D01*
X152439850Y-92534600D02*
X152654136Y-92320314D01*
X152654136Y-92320314D02*
X152796993Y-92248885D01*
X152796993Y-92248885D02*
X152939850Y-92248885D01*
X152868421Y-92606028D02*
X153011279Y-92534600D01*
X153011279Y-92534600D02*
X153154136Y-92391742D01*
X153154136Y-92391742D02*
X153225564Y-92106028D01*
X153225564Y-92106028D02*
X153225564Y-91606028D01*
X153225564Y-91606028D02*
X153154136Y-91320314D01*
X153154136Y-91320314D02*
X153011279Y-91177457D01*
X153011279Y-91177457D02*
X152868421Y-91106028D01*
X152868421Y-91106028D02*
X152582707Y-91106028D01*
X152582707Y-91106028D02*
X152439850Y-91177457D01*
X152439850Y-91177457D02*
X152296993Y-91320314D01*
X152296993Y-91320314D02*
X152225564Y-91606028D01*
X152225564Y-91606028D02*
X152225564Y-92106028D01*
X152225564Y-92106028D02*
X152296993Y-92391742D01*
X152296993Y-92391742D02*
X152439850Y-92534600D01*
X152439850Y-92534600D02*
X152582707Y-92606028D01*
X152582707Y-92606028D02*
X152868421Y-92606028D01*
X151654135Y-91248885D02*
X151582707Y-91177457D01*
X151582707Y-91177457D02*
X151439850Y-91106028D01*
X151439850Y-91106028D02*
X151082707Y-91106028D01*
X151082707Y-91106028D02*
X150939850Y-91177457D01*
X150939850Y-91177457D02*
X150868421Y-91248885D01*
X150868421Y-91248885D02*
X150796992Y-91391742D01*
X150796992Y-91391742D02*
X150796992Y-91534600D01*
X150796992Y-91534600D02*
X150868421Y-91748885D01*
X150868421Y-91748885D02*
X151725564Y-92606028D01*
X151725564Y-92606028D02*
X150796992Y-92606028D01*
X149439850Y-91106028D02*
X150154136Y-91106028D01*
X150154136Y-91106028D02*
X150225564Y-91820314D01*
X150225564Y-91820314D02*
X150154136Y-91748885D01*
X150154136Y-91748885D02*
X150011279Y-91677457D01*
X150011279Y-91677457D02*
X149654136Y-91677457D01*
X149654136Y-91677457D02*
X149511279Y-91748885D01*
X149511279Y-91748885D02*
X149439850Y-91820314D01*
X149439850Y-91820314D02*
X149368421Y-91963171D01*
X149368421Y-91963171D02*
X149368421Y-92320314D01*
X149368421Y-92320314D02*
X149439850Y-92463171D01*
X149439850Y-92463171D02*
X149511279Y-92534600D01*
X149511279Y-92534600D02*
X149654136Y-92606028D01*
X149654136Y-92606028D02*
X150011279Y-92606028D01*
X150011279Y-92606028D02*
X150154136Y-92534600D01*
X150154136Y-92534600D02*
X150225564Y-92463171D01*
X148439850Y-91106028D02*
X148296993Y-91106028D01*
X148296993Y-91106028D02*
X148154136Y-91177457D01*
X148154136Y-91177457D02*
X148082708Y-91248885D01*
X148082708Y-91248885D02*
X148011279Y-91391742D01*
X148011279Y-91391742D02*
X147939850Y-91677457D01*
X147939850Y-91677457D02*
X147939850Y-92034600D01*
X147939850Y-92034600D02*
X148011279Y-92320314D01*
X148011279Y-92320314D02*
X148082708Y-92463171D01*
X148082708Y-92463171D02*
X148154136Y-92534600D01*
X148154136Y-92534600D02*
X148296993Y-92606028D01*
X148296993Y-92606028D02*
X148439850Y-92606028D01*
X148439850Y-92606028D02*
X148582708Y-92534600D01*
X148582708Y-92534600D02*
X148654136Y-92463171D01*
X148654136Y-92463171D02*
X148725565Y-92320314D01*
X148725565Y-92320314D02*
X148796993Y-92034600D01*
X148796993Y-92034600D02*
X148796993Y-91677457D01*
X148796993Y-91677457D02*
X148725565Y-91391742D01*
X148725565Y-91391742D02*
X148654136Y-91248885D01*
X148654136Y-91248885D02*
X148582708Y-91177457D01*
X148582708Y-91177457D02*
X148439850Y-91106028D01*
X147011279Y-91106028D02*
X146868422Y-91106028D01*
X146868422Y-91106028D02*
X146725565Y-91177457D01*
X146725565Y-91177457D02*
X146654137Y-91248885D01*
X146654137Y-91248885D02*
X146582708Y-91391742D01*
X146582708Y-91391742D02*
X146511279Y-91677457D01*
X146511279Y-91677457D02*
X146511279Y-92034600D01*
X146511279Y-92034600D02*
X146582708Y-92320314D01*
X146582708Y-92320314D02*
X146654137Y-92463171D01*
X146654137Y-92463171D02*
X146725565Y-92534600D01*
X146725565Y-92534600D02*
X146868422Y-92606028D01*
X146868422Y-92606028D02*
X147011279Y-92606028D01*
X147011279Y-92606028D02*
X147154137Y-92534600D01*
X147154137Y-92534600D02*
X147225565Y-92463171D01*
X147225565Y-92463171D02*
X147296994Y-92320314D01*
X147296994Y-92320314D02*
X147368422Y-92034600D01*
X147368422Y-92034600D02*
X147368422Y-91677457D01*
X147368422Y-91677457D02*
X147296994Y-91391742D01*
X147296994Y-91391742D02*
X147225565Y-91248885D01*
X147225565Y-91248885D02*
X147154137Y-91177457D01*
X147154137Y-91177457D02*
X147011279Y-91106028D01*
X144939851Y-91106028D02*
X144439851Y-92606028D01*
X144439851Y-92606028D02*
X143939851Y-91106028D01*
X142654137Y-91177457D02*
X142796995Y-91106028D01*
X142796995Y-91106028D02*
X143011280Y-91106028D01*
X143011280Y-91106028D02*
X143225566Y-91177457D01*
X143225566Y-91177457D02*
X143368423Y-91320314D01*
X143368423Y-91320314D02*
X143439852Y-91463171D01*
X143439852Y-91463171D02*
X143511280Y-91748885D01*
X143511280Y-91748885D02*
X143511280Y-91963171D01*
X143511280Y-91963171D02*
X143439852Y-92248885D01*
X143439852Y-92248885D02*
X143368423Y-92391742D01*
X143368423Y-92391742D02*
X143225566Y-92534600D01*
X143225566Y-92534600D02*
X143011280Y-92606028D01*
X143011280Y-92606028D02*
X142868423Y-92606028D01*
X142868423Y-92606028D02*
X142654137Y-92534600D01*
X142654137Y-92534600D02*
X142582709Y-92463171D01*
X142582709Y-92463171D02*
X142582709Y-91963171D01*
X142582709Y-91963171D02*
X142868423Y-91963171D01*
X142011280Y-92177457D02*
X141296995Y-92177457D01*
X142154137Y-92606028D02*
X141654137Y-91106028D01*
X141654137Y-91106028D02*
X141154137Y-92606028D01*
X139511281Y-92606028D02*
X139511281Y-91106028D01*
X139511281Y-91106028D02*
X139011281Y-92177457D01*
X139011281Y-92177457D02*
X138511281Y-91106028D01*
X138511281Y-91106028D02*
X138511281Y-92606028D01*
X137582709Y-92606028D02*
X137725566Y-92534600D01*
X137725566Y-92534600D02*
X137796995Y-92463171D01*
X137796995Y-92463171D02*
X137868423Y-92320314D01*
X137868423Y-92320314D02*
X137868423Y-91891742D01*
X137868423Y-91891742D02*
X137796995Y-91748885D01*
X137796995Y-91748885D02*
X137725566Y-91677457D01*
X137725566Y-91677457D02*
X137582709Y-91606028D01*
X137582709Y-91606028D02*
X137368423Y-91606028D01*
X137368423Y-91606028D02*
X137225566Y-91677457D01*
X137225566Y-91677457D02*
X137154138Y-91748885D01*
X137154138Y-91748885D02*
X137082709Y-91891742D01*
X137082709Y-91891742D02*
X137082709Y-92320314D01*
X137082709Y-92320314D02*
X137154138Y-92463171D01*
X137154138Y-92463171D02*
X137225566Y-92534600D01*
X137225566Y-92534600D02*
X137368423Y-92606028D01*
X137368423Y-92606028D02*
X137582709Y-92606028D01*
X135796995Y-92606028D02*
X135796995Y-91106028D01*
X135796995Y-92534600D02*
X135939852Y-92606028D01*
X135939852Y-92606028D02*
X136225566Y-92606028D01*
X136225566Y-92606028D02*
X136368423Y-92534600D01*
X136368423Y-92534600D02*
X136439852Y-92463171D01*
X136439852Y-92463171D02*
X136511280Y-92320314D01*
X136511280Y-92320314D02*
X136511280Y-91891742D01*
X136511280Y-91891742D02*
X136439852Y-91748885D01*
X136439852Y-91748885D02*
X136368423Y-91677457D01*
X136368423Y-91677457D02*
X136225566Y-91606028D01*
X136225566Y-91606028D02*
X135939852Y-91606028D01*
X135939852Y-91606028D02*
X135796995Y-91677457D01*
X134439852Y-91606028D02*
X134439852Y-92606028D01*
X135082709Y-91606028D02*
X135082709Y-92391742D01*
X135082709Y-92391742D02*
X135011280Y-92534600D01*
X135011280Y-92534600D02*
X134868423Y-92606028D01*
X134868423Y-92606028D02*
X134654137Y-92606028D01*
X134654137Y-92606028D02*
X134511280Y-92534600D01*
X134511280Y-92534600D02*
X134439852Y-92463171D01*
X133511280Y-92606028D02*
X133654137Y-92534600D01*
X133654137Y-92534600D02*
X133725566Y-92391742D01*
X133725566Y-92391742D02*
X133725566Y-91106028D01*
X132368423Y-92534600D02*
X132511280Y-92606028D01*
X132511280Y-92606028D02*
X132796995Y-92606028D01*
X132796995Y-92606028D02*
X132939852Y-92534600D01*
X132939852Y-92534600D02*
X133011280Y-92391742D01*
X133011280Y-92391742D02*
X133011280Y-91820314D01*
X133011280Y-91820314D02*
X132939852Y-91677457D01*
X132939852Y-91677457D02*
X132796995Y-91606028D01*
X132796995Y-91606028D02*
X132511280Y-91606028D01*
X132511280Y-91606028D02*
X132368423Y-91677457D01*
X132368423Y-91677457D02*
X132296995Y-91820314D01*
X132296995Y-91820314D02*
X132296995Y-91963171D01*
X132296995Y-91963171D02*
X133011280Y-92106028D01*
D10*
X132506077Y-98269819D02*
X132172744Y-99269819D01*
X132172744Y-99269819D02*
X131839411Y-98269819D01*
X131553696Y-99222200D02*
X131410839Y-99269819D01*
X131410839Y-99269819D02*
X131172744Y-99269819D01*
X131172744Y-99269819D02*
X131077506Y-99222200D01*
X131077506Y-99222200D02*
X131029887Y-99174580D01*
X131029887Y-99174580D02*
X130982268Y-99079342D01*
X130982268Y-99079342D02*
X130982268Y-98984104D01*
X130982268Y-98984104D02*
X131029887Y-98888866D01*
X131029887Y-98888866D02*
X131077506Y-98841247D01*
X131077506Y-98841247D02*
X131172744Y-98793628D01*
X131172744Y-98793628D02*
X131363220Y-98746009D01*
X131363220Y-98746009D02*
X131458458Y-98698390D01*
X131458458Y-98698390D02*
X131506077Y-98650771D01*
X131506077Y-98650771D02*
X131553696Y-98555533D01*
X131553696Y-98555533D02*
X131553696Y-98460295D01*
X131553696Y-98460295D02*
X131506077Y-98365057D01*
X131506077Y-98365057D02*
X131458458Y-98317438D01*
X131458458Y-98317438D02*
X131363220Y-98269819D01*
X131363220Y-98269819D02*
X131125125Y-98269819D01*
X131125125Y-98269819D02*
X130982268Y-98317438D01*
X130363220Y-98793628D02*
X130363220Y-99269819D01*
X130696553Y-98269819D02*
X130363220Y-98793628D01*
X130363220Y-98793628D02*
X130029887Y-98269819D01*
X129696553Y-99269819D02*
X129696553Y-98269819D01*
X129696553Y-98269819D02*
X129125125Y-99269819D01*
X129125125Y-99269819D02*
X129125125Y-98269819D01*
X128077506Y-99174580D02*
X128125125Y-99222200D01*
X128125125Y-99222200D02*
X128267982Y-99269819D01*
X128267982Y-99269819D02*
X128363220Y-99269819D01*
X128363220Y-99269819D02*
X128506077Y-99222200D01*
X128506077Y-99222200D02*
X128601315Y-99126961D01*
X128601315Y-99126961D02*
X128648934Y-99031723D01*
X128648934Y-99031723D02*
X128696553Y-98841247D01*
X128696553Y-98841247D02*
X128696553Y-98698390D01*
X128696553Y-98698390D02*
X128648934Y-98507914D01*
X128648934Y-98507914D02*
X128601315Y-98412676D01*
X128601315Y-98412676D02*
X128506077Y-98317438D01*
X128506077Y-98317438D02*
X128363220Y-98269819D01*
X128363220Y-98269819D02*
X128267982Y-98269819D01*
X128267982Y-98269819D02*
X128125125Y-98317438D01*
X128125125Y-98317438D02*
X128077506Y-98365057D01*
X131129887Y-108846009D02*
X130987030Y-108893628D01*
X130987030Y-108893628D02*
X130939411Y-108941247D01*
X130939411Y-108941247D02*
X130891792Y-109036485D01*
X130891792Y-109036485D02*
X130891792Y-109179342D01*
X130891792Y-109179342D02*
X130939411Y-109274580D01*
X130939411Y-109274580D02*
X130987030Y-109322200D01*
X130987030Y-109322200D02*
X131082268Y-109369819D01*
X131082268Y-109369819D02*
X131463220Y-109369819D01*
X131463220Y-109369819D02*
X131463220Y-108369819D01*
X131463220Y-108369819D02*
X131129887Y-108369819D01*
X131129887Y-108369819D02*
X131034649Y-108417438D01*
X131034649Y-108417438D02*
X130987030Y-108465057D01*
X130987030Y-108465057D02*
X130939411Y-108560295D01*
X130939411Y-108560295D02*
X130939411Y-108655533D01*
X130939411Y-108655533D02*
X130987030Y-108750771D01*
X130987030Y-108750771D02*
X131034649Y-108798390D01*
X131034649Y-108798390D02*
X131129887Y-108846009D01*
X131129887Y-108846009D02*
X131463220Y-108846009D01*
X129987030Y-109369819D02*
X130463220Y-109369819D01*
X130463220Y-109369819D02*
X130463220Y-108369819D01*
X129653696Y-108369819D02*
X129653696Y-109179342D01*
X129653696Y-109179342D02*
X129606077Y-109274580D01*
X129606077Y-109274580D02*
X129558458Y-109322200D01*
X129558458Y-109322200D02*
X129463220Y-109369819D01*
X129463220Y-109369819D02*
X129272744Y-109369819D01*
X129272744Y-109369819D02*
X129177506Y-109322200D01*
X129177506Y-109322200D02*
X129129887Y-109274580D01*
X129129887Y-109274580D02*
X129082268Y-109179342D01*
X129082268Y-109179342D02*
X129082268Y-108369819D01*
X128606077Y-108846009D02*
X128272744Y-108846009D01*
X128129887Y-109369819D02*
X128606077Y-109369819D01*
X128606077Y-109369819D02*
X128606077Y-108369819D01*
X128606077Y-108369819D02*
X128129887Y-108369819D01*
X160911904Y-101700057D02*
X160864285Y-101652438D01*
X160864285Y-101652438D02*
X160769047Y-101604819D01*
X160769047Y-101604819D02*
X160530952Y-101604819D01*
X160530952Y-101604819D02*
X160435714Y-101652438D01*
X160435714Y-101652438D02*
X160388095Y-101700057D01*
X160388095Y-101700057D02*
X160340476Y-101795295D01*
X160340476Y-101795295D02*
X160340476Y-101890533D01*
X160340476Y-101890533D02*
X160388095Y-102033390D01*
X160388095Y-102033390D02*
X160959523Y-102604819D01*
X160959523Y-102604819D02*
X160340476Y-102604819D01*
X159911904Y-102604819D02*
X159911904Y-101604819D01*
X159340476Y-102604819D02*
X159769047Y-102033390D01*
X159340476Y-101604819D02*
X159911904Y-102176247D01*
X158959523Y-101700057D02*
X158911904Y-101652438D01*
X158911904Y-101652438D02*
X158816666Y-101604819D01*
X158816666Y-101604819D02*
X158578571Y-101604819D01*
X158578571Y-101604819D02*
X158483333Y-101652438D01*
X158483333Y-101652438D02*
X158435714Y-101700057D01*
X158435714Y-101700057D02*
X158388095Y-101795295D01*
X158388095Y-101795295D02*
X158388095Y-101890533D01*
X158388095Y-101890533D02*
X158435714Y-102033390D01*
X158435714Y-102033390D02*
X159007142Y-102604819D01*
X159007142Y-102604819D02*
X158388095Y-102604819D01*
X159799104Y-104876190D02*
X159799104Y-105352380D01*
X160084819Y-104780952D02*
X159084819Y-105114285D01*
X159084819Y-105114285D02*
X160084819Y-105447618D01*
X159084819Y-105638095D02*
X159084819Y-106209523D01*
X160084819Y-105923809D02*
X159084819Y-105923809D01*
X159180057Y-106495238D02*
X159132438Y-106542857D01*
X159132438Y-106542857D02*
X159084819Y-106638095D01*
X159084819Y-106638095D02*
X159084819Y-106876190D01*
X159084819Y-106876190D02*
X159132438Y-106971428D01*
X159132438Y-106971428D02*
X159180057Y-107019047D01*
X159180057Y-107019047D02*
X159275295Y-107066666D01*
X159275295Y-107066666D02*
X159370533Y-107066666D01*
X159370533Y-107066666D02*
X159513390Y-107019047D01*
X159513390Y-107019047D02*
X160084819Y-106447619D01*
X160084819Y-106447619D02*
X160084819Y-107066666D01*
X159418152Y-107923809D02*
X160084819Y-107923809D01*
X159037200Y-107685714D02*
X159751485Y-107447619D01*
X159751485Y-107447619D02*
X159751485Y-108066666D01*
X159989580Y-109019047D02*
X160037200Y-108971428D01*
X160037200Y-108971428D02*
X160084819Y-108828571D01*
X160084819Y-108828571D02*
X160084819Y-108733333D01*
X160084819Y-108733333D02*
X160037200Y-108590476D01*
X160037200Y-108590476D02*
X159941961Y-108495238D01*
X159941961Y-108495238D02*
X159846723Y-108447619D01*
X159846723Y-108447619D02*
X159656247Y-108400000D01*
X159656247Y-108400000D02*
X159513390Y-108400000D01*
X159513390Y-108400000D02*
X159322914Y-108447619D01*
X159322914Y-108447619D02*
X159227676Y-108495238D01*
X159227676Y-108495238D02*
X159132438Y-108590476D01*
X159132438Y-108590476D02*
X159084819Y-108733333D01*
X159084819Y-108733333D02*
X159084819Y-108828571D01*
X159084819Y-108828571D02*
X159132438Y-108971428D01*
X159132438Y-108971428D02*
X159180057Y-109019047D01*
X159084819Y-109638095D02*
X159084819Y-109733333D01*
X159084819Y-109733333D02*
X159132438Y-109828571D01*
X159132438Y-109828571D02*
X159180057Y-109876190D01*
X159180057Y-109876190D02*
X159275295Y-109923809D01*
X159275295Y-109923809D02*
X159465771Y-109971428D01*
X159465771Y-109971428D02*
X159703866Y-109971428D01*
X159703866Y-109971428D02*
X159894342Y-109923809D01*
X159894342Y-109923809D02*
X159989580Y-109876190D01*
X159989580Y-109876190D02*
X160037200Y-109828571D01*
X160037200Y-109828571D02*
X160084819Y-109733333D01*
X160084819Y-109733333D02*
X160084819Y-109638095D01*
X160084819Y-109638095D02*
X160037200Y-109542857D01*
X160037200Y-109542857D02*
X159989580Y-109495238D01*
X159989580Y-109495238D02*
X159894342Y-109447619D01*
X159894342Y-109447619D02*
X159703866Y-109400000D01*
X159703866Y-109400000D02*
X159465771Y-109400000D01*
X159465771Y-109400000D02*
X159275295Y-109447619D01*
X159275295Y-109447619D02*
X159180057Y-109495238D01*
X159180057Y-109495238D02*
X159132438Y-109542857D01*
X159132438Y-109542857D02*
X159084819Y-109638095D01*
X159180057Y-110352381D02*
X159132438Y-110400000D01*
X159132438Y-110400000D02*
X159084819Y-110495238D01*
X159084819Y-110495238D02*
X159084819Y-110733333D01*
X159084819Y-110733333D02*
X159132438Y-110828571D01*
X159132438Y-110828571D02*
X159180057Y-110876190D01*
X159180057Y-110876190D02*
X159275295Y-110923809D01*
X159275295Y-110923809D02*
X159370533Y-110923809D01*
X159370533Y-110923809D02*
X159513390Y-110876190D01*
X159513390Y-110876190D02*
X160084819Y-110304762D01*
X160084819Y-110304762D02*
X160084819Y-110923809D01*
X160911904Y-99050057D02*
X160864285Y-99002438D01*
X160864285Y-99002438D02*
X160769047Y-98954819D01*
X160769047Y-98954819D02*
X160530952Y-98954819D01*
X160530952Y-98954819D02*
X160435714Y-99002438D01*
X160435714Y-99002438D02*
X160388095Y-99050057D01*
X160388095Y-99050057D02*
X160340476Y-99145295D01*
X160340476Y-99145295D02*
X160340476Y-99240533D01*
X160340476Y-99240533D02*
X160388095Y-99383390D01*
X160388095Y-99383390D02*
X160959523Y-99954819D01*
X160959523Y-99954819D02*
X160340476Y-99954819D01*
X159911904Y-99954819D02*
X159911904Y-98954819D01*
X159340476Y-99954819D02*
X159769047Y-99383390D01*
X159340476Y-98954819D02*
X159911904Y-99526247D01*
X158959523Y-99050057D02*
X158911904Y-99002438D01*
X158911904Y-99002438D02*
X158816666Y-98954819D01*
X158816666Y-98954819D02*
X158578571Y-98954819D01*
X158578571Y-98954819D02*
X158483333Y-99002438D01*
X158483333Y-99002438D02*
X158435714Y-99050057D01*
X158435714Y-99050057D02*
X158388095Y-99145295D01*
X158388095Y-99145295D02*
X158388095Y-99240533D01*
X158388095Y-99240533D02*
X158435714Y-99383390D01*
X158435714Y-99383390D02*
X159007142Y-99954819D01*
X159007142Y-99954819D02*
X158388095Y-99954819D01*
X145142857Y-114154819D02*
X145714285Y-114154819D01*
X145428571Y-114154819D02*
X145428571Y-113154819D01*
X145428571Y-113154819D02*
X145523809Y-113297676D01*
X145523809Y-113297676D02*
X145619047Y-113392914D01*
X145619047Y-113392914D02*
X145714285Y-113440533D01*
X144523809Y-113154819D02*
X144428571Y-113154819D01*
X144428571Y-113154819D02*
X144333333Y-113202438D01*
X144333333Y-113202438D02*
X144285714Y-113250057D01*
X144285714Y-113250057D02*
X144238095Y-113345295D01*
X144238095Y-113345295D02*
X144190476Y-113535771D01*
X144190476Y-113535771D02*
X144190476Y-113773866D01*
X144190476Y-113773866D02*
X144238095Y-113964342D01*
X144238095Y-113964342D02*
X144285714Y-114059580D01*
X144285714Y-114059580D02*
X144333333Y-114107200D01*
X144333333Y-114107200D02*
X144428571Y-114154819D01*
X144428571Y-114154819D02*
X144523809Y-114154819D01*
X144523809Y-114154819D02*
X144619047Y-114107200D01*
X144619047Y-114107200D02*
X144666666Y-114059580D01*
X144666666Y-114059580D02*
X144714285Y-113964342D01*
X144714285Y-113964342D02*
X144761904Y-113773866D01*
X144761904Y-113773866D02*
X144761904Y-113535771D01*
X144761904Y-113535771D02*
X144714285Y-113345295D01*
X144714285Y-113345295D02*
X144666666Y-113250057D01*
X144666666Y-113250057D02*
X144619047Y-113202438D01*
X144619047Y-113202438D02*
X144523809Y-113154819D01*
X143333333Y-113488152D02*
X143333333Y-114154819D01*
X143761904Y-113488152D02*
X143761904Y-114011961D01*
X143761904Y-114011961D02*
X143714285Y-114107200D01*
X143714285Y-114107200D02*
X143619047Y-114154819D01*
X143619047Y-114154819D02*
X143476190Y-114154819D01*
X143476190Y-114154819D02*
X143380952Y-114107200D01*
X143380952Y-114107200D02*
X143333333Y-114059580D01*
D12*
%TO.C,R2*%
X156477064Y-101465000D02*
X156022936Y-101465000D01*
X156477064Y-102935000D02*
X156022936Y-102935000D01*
%TO.C,U2*%
X153190000Y-105950000D02*
X153190000Y-107900000D01*
X153190000Y-109850000D02*
X153190000Y-107900000D01*
X158310000Y-105950000D02*
X158310000Y-107900000D01*
X158310000Y-109850000D02*
X158310000Y-107900000D01*
X158545000Y-110840000D02*
X158215000Y-110600000D01*
X158545000Y-110360000D01*
X158545000Y-110840000D01*
G36*
X158545000Y-110840000D02*
G01*
X158215000Y-110600000D01*
X158545000Y-110360000D01*
X158545000Y-110840000D01*
G37*
%TO.C,R1*%
X156477064Y-98765000D02*
X156022936Y-98765000D01*
X156477064Y-100235000D02*
X156022936Y-100235000D01*
%TO.C,W801*%
X160895331Y-108950000D02*
X161328344Y-109200000D01*
X160895331Y-109450000D02*
X160895331Y-108950000D01*
X161328344Y-109200000D02*
X160895331Y-109450000D01*
X161789669Y-89400000D02*
X170389669Y-89400000D01*
X161789669Y-120370000D02*
X161789669Y-89400000D01*
X170389669Y-120370000D02*
X161789669Y-120370000D01*
%TO.C,W831*%
X121450000Y-88310000D02*
X121450000Y-89560000D01*
X121740000Y-88600000D02*
X121740000Y-121660000D01*
X121740000Y-121660000D02*
X127710000Y-121660000D01*
X121750000Y-88610000D02*
X121750000Y-90410000D01*
X121750000Y-90410000D02*
X122500000Y-90410000D01*
X121750000Y-91910000D02*
X121750000Y-118360000D01*
X121750000Y-118360000D02*
X122500000Y-118360000D01*
X121750000Y-119860000D02*
X121750000Y-121660000D01*
X121750000Y-121660000D02*
X122500000Y-121660000D01*
X122500000Y-88610000D02*
X121750000Y-88610000D01*
X122500000Y-90410000D02*
X122500000Y-88610000D01*
X122500000Y-91910000D02*
X121750000Y-91910000D01*
X122500000Y-118360000D02*
X122500000Y-91910000D01*
X122500000Y-119860000D02*
X121750000Y-119860000D01*
X122500000Y-121660000D02*
X122500000Y-119860000D01*
X122700000Y-88310000D02*
X121450000Y-88310000D01*
X124000000Y-89360000D02*
X124000000Y-88610000D01*
X124000000Y-120860000D02*
X124000000Y-121610000D01*
X126950000Y-89360000D02*
X124000000Y-89360000D01*
X126950000Y-104910000D02*
X126950000Y-89360000D01*
X126950000Y-104910000D02*
X126950000Y-120860000D01*
X126950000Y-120860000D02*
X124000000Y-120860000D01*
X127710000Y-88600000D02*
X121740000Y-88600000D01*
X127710000Y-121660000D02*
X127710000Y-88600000D01*
%TO.C,C816*%
X141090000Y-114590000D02*
X146845563Y-114590000D01*
X141090000Y-116940000D02*
X141090000Y-114590000D01*
X141090000Y-119060000D02*
X141090000Y-121410000D01*
X141090000Y-121410000D02*
X146845563Y-121410000D01*
X146845563Y-114590000D02*
X147910000Y-115654437D01*
X146845563Y-121410000D02*
X147910000Y-120345563D01*
X147910000Y-116940000D02*
X147910000Y-115654437D01*
X147910000Y-119060000D02*
X147910000Y-120345563D01*
X148150000Y-116152500D02*
X148937500Y-116152500D01*
X148543750Y-116546250D02*
X148543750Y-115758750D01*
%TD*%
M02*
