%TF.GenerationSoftware,KiCad,Pcbnew,8.0.0*%
%TF.CreationDate,2025-11-06T21:26:23+03:00*%
%TF.ProjectId,Loewe VGA,4c6f6577-6520-4564-9741-2e6b69636164,rev?*%
%TF.SameCoordinates,Original*%
%TF.FileFunction,Legend,Bot*%
%TF.FilePolarity,Positive*%
%FSLAX46Y46*%
G04 Gerber Fmt 4.6, Leading zero omitted, Abs format (unit mm)*
G04 Created by KiCad (PCBNEW 8.0.0) date 2025-11-06 21:26:23*
%MOMM*%
%LPD*%
G01*
G04 APERTURE LIST*
%ADD10C,0.150000*%
%ADD11C,0.200000*%
%ADD12C,0.254000*%
%ADD13C,0.120000*%
G04 APERTURE END LIST*
D10*
X132539411Y-113417438D02*
X132634649Y-113369819D01*
X132634649Y-113369819D02*
X132777506Y-113369819D01*
X132777506Y-113369819D02*
X132920363Y-113417438D01*
X132920363Y-113417438D02*
X133015601Y-113512676D01*
X133015601Y-113512676D02*
X133063220Y-113607914D01*
X133063220Y-113607914D02*
X133110839Y-113798390D01*
X133110839Y-113798390D02*
X133110839Y-113941247D01*
X133110839Y-113941247D02*
X133063220Y-114131723D01*
X133063220Y-114131723D02*
X133015601Y-114226961D01*
X133015601Y-114226961D02*
X132920363Y-114322200D01*
X132920363Y-114322200D02*
X132777506Y-114369819D01*
X132777506Y-114369819D02*
X132682268Y-114369819D01*
X132682268Y-114369819D02*
X132539411Y-114322200D01*
X132539411Y-114322200D02*
X132491792Y-114274580D01*
X132491792Y-114274580D02*
X132491792Y-113941247D01*
X132491792Y-113941247D02*
X132682268Y-113941247D01*
X131491792Y-114369819D02*
X131825125Y-113893628D01*
X132063220Y-114369819D02*
X132063220Y-113369819D01*
X132063220Y-113369819D02*
X131682268Y-113369819D01*
X131682268Y-113369819D02*
X131587030Y-113417438D01*
X131587030Y-113417438D02*
X131539411Y-113465057D01*
X131539411Y-113465057D02*
X131491792Y-113560295D01*
X131491792Y-113560295D02*
X131491792Y-113703152D01*
X131491792Y-113703152D02*
X131539411Y-113798390D01*
X131539411Y-113798390D02*
X131587030Y-113846009D01*
X131587030Y-113846009D02*
X131682268Y-113893628D01*
X131682268Y-113893628D02*
X132063220Y-113893628D01*
X131063220Y-113846009D02*
X130729887Y-113846009D01*
X130587030Y-114369819D02*
X131063220Y-114369819D01*
X131063220Y-114369819D02*
X131063220Y-113369819D01*
X131063220Y-113369819D02*
X130587030Y-113369819D01*
X130158458Y-113846009D02*
X129825125Y-113846009D01*
X129682268Y-114369819D02*
X130158458Y-114369819D01*
X130158458Y-114369819D02*
X130158458Y-113369819D01*
X130158458Y-113369819D02*
X129682268Y-113369819D01*
X129253696Y-114369819D02*
X129253696Y-113369819D01*
X129253696Y-113369819D02*
X128682268Y-114369819D01*
X128682268Y-114369819D02*
X128682268Y-113369819D01*
X130739411Y-105917438D02*
X130834649Y-105869819D01*
X130834649Y-105869819D02*
X130977506Y-105869819D01*
X130977506Y-105869819D02*
X131120363Y-105917438D01*
X131120363Y-105917438D02*
X131215601Y-106012676D01*
X131215601Y-106012676D02*
X131263220Y-106107914D01*
X131263220Y-106107914D02*
X131310839Y-106298390D01*
X131310839Y-106298390D02*
X131310839Y-106441247D01*
X131310839Y-106441247D02*
X131263220Y-106631723D01*
X131263220Y-106631723D02*
X131215601Y-106726961D01*
X131215601Y-106726961D02*
X131120363Y-106822200D01*
X131120363Y-106822200D02*
X130977506Y-106869819D01*
X130977506Y-106869819D02*
X130882268Y-106869819D01*
X130882268Y-106869819D02*
X130739411Y-106822200D01*
X130739411Y-106822200D02*
X130691792Y-106774580D01*
X130691792Y-106774580D02*
X130691792Y-106441247D01*
X130691792Y-106441247D02*
X130882268Y-106441247D01*
X130263220Y-106869819D02*
X130263220Y-105869819D01*
X130263220Y-105869819D02*
X129691792Y-106869819D01*
X129691792Y-106869819D02*
X129691792Y-105869819D01*
X129215601Y-106869819D02*
X129215601Y-105869819D01*
X129215601Y-105869819D02*
X128977506Y-105869819D01*
X128977506Y-105869819D02*
X128834649Y-105917438D01*
X128834649Y-105917438D02*
X128739411Y-106012676D01*
X128739411Y-106012676D02*
X128691792Y-106107914D01*
X128691792Y-106107914D02*
X128644173Y-106298390D01*
X128644173Y-106298390D02*
X128644173Y-106441247D01*
X128644173Y-106441247D02*
X128691792Y-106631723D01*
X128691792Y-106631723D02*
X128739411Y-106726961D01*
X128739411Y-106726961D02*
X128834649Y-106822200D01*
X128834649Y-106822200D02*
X128977506Y-106869819D01*
X128977506Y-106869819D02*
X129215601Y-106869819D01*
X130591792Y-119569819D02*
X130925125Y-119093628D01*
X131163220Y-119569819D02*
X131163220Y-118569819D01*
X131163220Y-118569819D02*
X130782268Y-118569819D01*
X130782268Y-118569819D02*
X130687030Y-118617438D01*
X130687030Y-118617438D02*
X130639411Y-118665057D01*
X130639411Y-118665057D02*
X130591792Y-118760295D01*
X130591792Y-118760295D02*
X130591792Y-118903152D01*
X130591792Y-118903152D02*
X130639411Y-118998390D01*
X130639411Y-118998390D02*
X130687030Y-119046009D01*
X130687030Y-119046009D02*
X130782268Y-119093628D01*
X130782268Y-119093628D02*
X131163220Y-119093628D01*
X130163220Y-119046009D02*
X129829887Y-119046009D01*
X129687030Y-119569819D02*
X130163220Y-119569819D01*
X130163220Y-119569819D02*
X130163220Y-118569819D01*
X130163220Y-118569819D02*
X129687030Y-118569819D01*
X129258458Y-119569819D02*
X129258458Y-118569819D01*
X129258458Y-118569819D02*
X129020363Y-118569819D01*
X129020363Y-118569819D02*
X128877506Y-118617438D01*
X128877506Y-118617438D02*
X128782268Y-118712676D01*
X128782268Y-118712676D02*
X128734649Y-118807914D01*
X128734649Y-118807914D02*
X128687030Y-118998390D01*
X128687030Y-118998390D02*
X128687030Y-119141247D01*
X128687030Y-119141247D02*
X128734649Y-119331723D01*
X128734649Y-119331723D02*
X128782268Y-119426961D01*
X128782268Y-119426961D02*
X128877506Y-119522200D01*
X128877506Y-119522200D02*
X129020363Y-119569819D01*
X129020363Y-119569819D02*
X129258458Y-119569819D01*
X130739411Y-100817438D02*
X130834649Y-100769819D01*
X130834649Y-100769819D02*
X130977506Y-100769819D01*
X130977506Y-100769819D02*
X131120363Y-100817438D01*
X131120363Y-100817438D02*
X131215601Y-100912676D01*
X131215601Y-100912676D02*
X131263220Y-101007914D01*
X131263220Y-101007914D02*
X131310839Y-101198390D01*
X131310839Y-101198390D02*
X131310839Y-101341247D01*
X131310839Y-101341247D02*
X131263220Y-101531723D01*
X131263220Y-101531723D02*
X131215601Y-101626961D01*
X131215601Y-101626961D02*
X131120363Y-101722200D01*
X131120363Y-101722200D02*
X130977506Y-101769819D01*
X130977506Y-101769819D02*
X130882268Y-101769819D01*
X130882268Y-101769819D02*
X130739411Y-101722200D01*
X130739411Y-101722200D02*
X130691792Y-101674580D01*
X130691792Y-101674580D02*
X130691792Y-101341247D01*
X130691792Y-101341247D02*
X130882268Y-101341247D01*
X130263220Y-101769819D02*
X130263220Y-100769819D01*
X130263220Y-100769819D02*
X129691792Y-101769819D01*
X129691792Y-101769819D02*
X129691792Y-100769819D01*
X129215601Y-101769819D02*
X129215601Y-100769819D01*
X129215601Y-100769819D02*
X128977506Y-100769819D01*
X128977506Y-100769819D02*
X128834649Y-100817438D01*
X128834649Y-100817438D02*
X128739411Y-100912676D01*
X128739411Y-100912676D02*
X128691792Y-101007914D01*
X128691792Y-101007914D02*
X128644173Y-101198390D01*
X128644173Y-101198390D02*
X128644173Y-101341247D01*
X128644173Y-101341247D02*
X128691792Y-101531723D01*
X128691792Y-101531723D02*
X128739411Y-101626961D01*
X128739411Y-101626961D02*
X128834649Y-101722200D01*
X128834649Y-101722200D02*
X128977506Y-101769819D01*
X128977506Y-101769819D02*
X129215601Y-101769819D01*
X171541723Y-97703152D02*
X171541723Y-98512676D01*
X171541723Y-98512676D02*
X171589342Y-98607914D01*
X171589342Y-98607914D02*
X171636961Y-98655533D01*
X171636961Y-98655533D02*
X171732199Y-98703152D01*
X171732199Y-98703152D02*
X171875056Y-98703152D01*
X171875056Y-98703152D02*
X171970294Y-98655533D01*
X171541723Y-98322200D02*
X171636961Y-98369819D01*
X171636961Y-98369819D02*
X171827437Y-98369819D01*
X171827437Y-98369819D02*
X171922675Y-98322200D01*
X171922675Y-98322200D02*
X171970294Y-98274580D01*
X171970294Y-98274580D02*
X172017913Y-98179342D01*
X172017913Y-98179342D02*
X172017913Y-97893628D01*
X172017913Y-97893628D02*
X171970294Y-97798390D01*
X171970294Y-97798390D02*
X171922675Y-97750771D01*
X171922675Y-97750771D02*
X171827437Y-97703152D01*
X171827437Y-97703152D02*
X171636961Y-97703152D01*
X171636961Y-97703152D02*
X171541723Y-97750771D01*
X171065532Y-98369819D02*
X171065532Y-97703152D01*
X171065532Y-97369819D02*
X171113151Y-97417438D01*
X171113151Y-97417438D02*
X171065532Y-97465057D01*
X171065532Y-97465057D02*
X171017913Y-97417438D01*
X171017913Y-97417438D02*
X171065532Y-97369819D01*
X171065532Y-97369819D02*
X171065532Y-97465057D01*
X170732199Y-97703152D02*
X170351247Y-97703152D01*
X170589342Y-97369819D02*
X170589342Y-98226961D01*
X170589342Y-98226961D02*
X170541723Y-98322200D01*
X170541723Y-98322200D02*
X170446485Y-98369819D01*
X170446485Y-98369819D02*
X170351247Y-98369819D01*
X170017913Y-98369819D02*
X170017913Y-97369819D01*
X169589342Y-98369819D02*
X169589342Y-97846009D01*
X169589342Y-97846009D02*
X169636961Y-97750771D01*
X169636961Y-97750771D02*
X169732199Y-97703152D01*
X169732199Y-97703152D02*
X169875056Y-97703152D01*
X169875056Y-97703152D02*
X169970294Y-97750771D01*
X169970294Y-97750771D02*
X170017913Y-97798390D01*
X168684580Y-97703152D02*
X168684580Y-98369819D01*
X169113151Y-97703152D02*
X169113151Y-98226961D01*
X169113151Y-98226961D02*
X169065532Y-98322200D01*
X169065532Y-98322200D02*
X168970294Y-98369819D01*
X168970294Y-98369819D02*
X168827437Y-98369819D01*
X168827437Y-98369819D02*
X168732199Y-98322200D01*
X168732199Y-98322200D02*
X168684580Y-98274580D01*
X168208389Y-98369819D02*
X168208389Y-97369819D01*
X168208389Y-97750771D02*
X168113151Y-97703152D01*
X168113151Y-97703152D02*
X167922675Y-97703152D01*
X167922675Y-97703152D02*
X167827437Y-97750771D01*
X167827437Y-97750771D02*
X167779818Y-97798390D01*
X167779818Y-97798390D02*
X167732199Y-97893628D01*
X167732199Y-97893628D02*
X167732199Y-98179342D01*
X167732199Y-98179342D02*
X167779818Y-98274580D01*
X167779818Y-98274580D02*
X167827437Y-98322200D01*
X167827437Y-98322200D02*
X167922675Y-98369819D01*
X167922675Y-98369819D02*
X168113151Y-98369819D01*
X168113151Y-98369819D02*
X168208389Y-98322200D01*
X167303627Y-98274580D02*
X167256008Y-98322200D01*
X167256008Y-98322200D02*
X167303627Y-98369819D01*
X167303627Y-98369819D02*
X167351246Y-98322200D01*
X167351246Y-98322200D02*
X167303627Y-98274580D01*
X167303627Y-98274580D02*
X167303627Y-98369819D01*
X166398866Y-98322200D02*
X166494104Y-98369819D01*
X166494104Y-98369819D02*
X166684580Y-98369819D01*
X166684580Y-98369819D02*
X166779818Y-98322200D01*
X166779818Y-98322200D02*
X166827437Y-98274580D01*
X166827437Y-98274580D02*
X166875056Y-98179342D01*
X166875056Y-98179342D02*
X166875056Y-97893628D01*
X166875056Y-97893628D02*
X166827437Y-97798390D01*
X166827437Y-97798390D02*
X166779818Y-97750771D01*
X166779818Y-97750771D02*
X166684580Y-97703152D01*
X166684580Y-97703152D02*
X166494104Y-97703152D01*
X166494104Y-97703152D02*
X166398866Y-97750771D01*
X165827437Y-98369819D02*
X165922675Y-98322200D01*
X165922675Y-98322200D02*
X165970294Y-98274580D01*
X165970294Y-98274580D02*
X166017913Y-98179342D01*
X166017913Y-98179342D02*
X166017913Y-97893628D01*
X166017913Y-97893628D02*
X165970294Y-97798390D01*
X165970294Y-97798390D02*
X165922675Y-97750771D01*
X165922675Y-97750771D02*
X165827437Y-97703152D01*
X165827437Y-97703152D02*
X165684580Y-97703152D01*
X165684580Y-97703152D02*
X165589342Y-97750771D01*
X165589342Y-97750771D02*
X165541723Y-97798390D01*
X165541723Y-97798390D02*
X165494104Y-97893628D01*
X165494104Y-97893628D02*
X165494104Y-98179342D01*
X165494104Y-98179342D02*
X165541723Y-98274580D01*
X165541723Y-98274580D02*
X165589342Y-98322200D01*
X165589342Y-98322200D02*
X165684580Y-98369819D01*
X165684580Y-98369819D02*
X165827437Y-98369819D01*
X165065532Y-98369819D02*
X165065532Y-97703152D01*
X165065532Y-97798390D02*
X165017913Y-97750771D01*
X165017913Y-97750771D02*
X164922675Y-97703152D01*
X164922675Y-97703152D02*
X164779818Y-97703152D01*
X164779818Y-97703152D02*
X164684580Y-97750771D01*
X164684580Y-97750771D02*
X164636961Y-97846009D01*
X164636961Y-97846009D02*
X164636961Y-98369819D01*
X164636961Y-97846009D02*
X164589342Y-97750771D01*
X164589342Y-97750771D02*
X164494104Y-97703152D01*
X164494104Y-97703152D02*
X164351247Y-97703152D01*
X164351247Y-97703152D02*
X164256008Y-97750771D01*
X164256008Y-97750771D02*
X164208389Y-97846009D01*
X164208389Y-97846009D02*
X164208389Y-98369819D01*
X163017914Y-97322200D02*
X163875056Y-98607914D01*
X162684580Y-97703152D02*
X162684580Y-98703152D01*
X162684580Y-97750771D02*
X162589342Y-97703152D01*
X162589342Y-97703152D02*
X162398866Y-97703152D01*
X162398866Y-97703152D02*
X162303628Y-97750771D01*
X162303628Y-97750771D02*
X162256009Y-97798390D01*
X162256009Y-97798390D02*
X162208390Y-97893628D01*
X162208390Y-97893628D02*
X162208390Y-98179342D01*
X162208390Y-98179342D02*
X162256009Y-98274580D01*
X162256009Y-98274580D02*
X162303628Y-98322200D01*
X162303628Y-98322200D02*
X162398866Y-98369819D01*
X162398866Y-98369819D02*
X162589342Y-98369819D01*
X162589342Y-98369819D02*
X162684580Y-98322200D01*
X161779818Y-98369819D02*
X161779818Y-97703152D01*
X161779818Y-97893628D02*
X161732199Y-97798390D01*
X161732199Y-97798390D02*
X161684580Y-97750771D01*
X161684580Y-97750771D02*
X161589342Y-97703152D01*
X161589342Y-97703152D02*
X161494104Y-97703152D01*
X161017913Y-98369819D02*
X161113151Y-98322200D01*
X161113151Y-98322200D02*
X161160770Y-98274580D01*
X161160770Y-98274580D02*
X161208389Y-98179342D01*
X161208389Y-98179342D02*
X161208389Y-97893628D01*
X161208389Y-97893628D02*
X161160770Y-97798390D01*
X161160770Y-97798390D02*
X161113151Y-97750771D01*
X161113151Y-97750771D02*
X161017913Y-97703152D01*
X161017913Y-97703152D02*
X160875056Y-97703152D01*
X160875056Y-97703152D02*
X160779818Y-97750771D01*
X160779818Y-97750771D02*
X160732199Y-97798390D01*
X160732199Y-97798390D02*
X160684580Y-97893628D01*
X160684580Y-97893628D02*
X160684580Y-98179342D01*
X160684580Y-98179342D02*
X160732199Y-98274580D01*
X160732199Y-98274580D02*
X160779818Y-98322200D01*
X160779818Y-98322200D02*
X160875056Y-98369819D01*
X160875056Y-98369819D02*
X161017913Y-98369819D01*
X160256008Y-98369819D02*
X160256008Y-97369819D01*
X160256008Y-97750771D02*
X160160770Y-97703152D01*
X160160770Y-97703152D02*
X159970294Y-97703152D01*
X159970294Y-97703152D02*
X159875056Y-97750771D01*
X159875056Y-97750771D02*
X159827437Y-97798390D01*
X159827437Y-97798390D02*
X159779818Y-97893628D01*
X159779818Y-97893628D02*
X159779818Y-98179342D01*
X159779818Y-98179342D02*
X159827437Y-98274580D01*
X159827437Y-98274580D02*
X159875056Y-98322200D01*
X159875056Y-98322200D02*
X159970294Y-98369819D01*
X159970294Y-98369819D02*
X160160770Y-98369819D01*
X160160770Y-98369819D02*
X160256008Y-98322200D01*
X159208389Y-98369819D02*
X159303627Y-98322200D01*
X159303627Y-98322200D02*
X159351246Y-98274580D01*
X159351246Y-98274580D02*
X159398865Y-98179342D01*
X159398865Y-98179342D02*
X159398865Y-97893628D01*
X159398865Y-97893628D02*
X159351246Y-97798390D01*
X159351246Y-97798390D02*
X159303627Y-97750771D01*
X159303627Y-97750771D02*
X159208389Y-97703152D01*
X159208389Y-97703152D02*
X159065532Y-97703152D01*
X159065532Y-97703152D02*
X158970294Y-97750771D01*
X158970294Y-97750771D02*
X158922675Y-97798390D01*
X158922675Y-97798390D02*
X158875056Y-97893628D01*
X158875056Y-97893628D02*
X158875056Y-98179342D01*
X158875056Y-98179342D02*
X158922675Y-98274580D01*
X158922675Y-98274580D02*
X158970294Y-98322200D01*
X158970294Y-98322200D02*
X159065532Y-98369819D01*
X159065532Y-98369819D02*
X159208389Y-98369819D01*
X158589341Y-97703152D02*
X158208389Y-97703152D01*
X158446484Y-97369819D02*
X158446484Y-98226961D01*
X158446484Y-98226961D02*
X158398865Y-98322200D01*
X158398865Y-98322200D02*
X158303627Y-98369819D01*
X158303627Y-98369819D02*
X158208389Y-98369819D01*
X157494103Y-98322200D02*
X157589341Y-98369819D01*
X157589341Y-98369819D02*
X157779817Y-98369819D01*
X157779817Y-98369819D02*
X157875055Y-98322200D01*
X157875055Y-98322200D02*
X157922674Y-98226961D01*
X157922674Y-98226961D02*
X157922674Y-97846009D01*
X157922674Y-97846009D02*
X157875055Y-97750771D01*
X157875055Y-97750771D02*
X157779817Y-97703152D01*
X157779817Y-97703152D02*
X157589341Y-97703152D01*
X157589341Y-97703152D02*
X157494103Y-97750771D01*
X157494103Y-97750771D02*
X157446484Y-97846009D01*
X157446484Y-97846009D02*
X157446484Y-97941247D01*
X157446484Y-97941247D02*
X157922674Y-98036485D01*
X157017912Y-98369819D02*
X157017912Y-97703152D01*
X157017912Y-97893628D02*
X156970293Y-97798390D01*
X156970293Y-97798390D02*
X156922674Y-97750771D01*
X156922674Y-97750771D02*
X156827436Y-97703152D01*
X156827436Y-97703152D02*
X156732198Y-97703152D01*
X156398864Y-98369819D02*
X156398864Y-97703152D01*
X156398864Y-97893628D02*
X156351245Y-97798390D01*
X156351245Y-97798390D02*
X156303626Y-97750771D01*
X156303626Y-97750771D02*
X156208388Y-97703152D01*
X156208388Y-97703152D02*
X156113150Y-97703152D01*
X155636959Y-98369819D02*
X155732197Y-98322200D01*
X155732197Y-98322200D02*
X155779816Y-98274580D01*
X155779816Y-98274580D02*
X155827435Y-98179342D01*
X155827435Y-98179342D02*
X155827435Y-97893628D01*
X155827435Y-97893628D02*
X155779816Y-97798390D01*
X155779816Y-97798390D02*
X155732197Y-97750771D01*
X155732197Y-97750771D02*
X155636959Y-97703152D01*
X155636959Y-97703152D02*
X155494102Y-97703152D01*
X155494102Y-97703152D02*
X155398864Y-97750771D01*
X155398864Y-97750771D02*
X155351245Y-97798390D01*
X155351245Y-97798390D02*
X155303626Y-97893628D01*
X155303626Y-97893628D02*
X155303626Y-98179342D01*
X155303626Y-98179342D02*
X155351245Y-98274580D01*
X155351245Y-98274580D02*
X155398864Y-98322200D01*
X155398864Y-98322200D02*
X155494102Y-98369819D01*
X155494102Y-98369819D02*
X155636959Y-98369819D01*
X154875054Y-98369819D02*
X154875054Y-97703152D01*
X154875054Y-97893628D02*
X154827435Y-97798390D01*
X154827435Y-97798390D02*
X154779816Y-97750771D01*
X154779816Y-97750771D02*
X154684578Y-97703152D01*
X154684578Y-97703152D02*
X154589340Y-97703152D01*
X153541721Y-97322200D02*
X154398863Y-98607914D01*
X152732197Y-98369819D02*
X153208387Y-98369819D01*
X153208387Y-98369819D02*
X153208387Y-97369819D01*
X152256006Y-98369819D02*
X152351244Y-98322200D01*
X152351244Y-98322200D02*
X152398863Y-98274580D01*
X152398863Y-98274580D02*
X152446482Y-98179342D01*
X152446482Y-98179342D02*
X152446482Y-97893628D01*
X152446482Y-97893628D02*
X152398863Y-97798390D01*
X152398863Y-97798390D02*
X152351244Y-97750771D01*
X152351244Y-97750771D02*
X152256006Y-97703152D01*
X152256006Y-97703152D02*
X152113149Y-97703152D01*
X152113149Y-97703152D02*
X152017911Y-97750771D01*
X152017911Y-97750771D02*
X151970292Y-97798390D01*
X151970292Y-97798390D02*
X151922673Y-97893628D01*
X151922673Y-97893628D02*
X151922673Y-98179342D01*
X151922673Y-98179342D02*
X151970292Y-98274580D01*
X151970292Y-98274580D02*
X152017911Y-98322200D01*
X152017911Y-98322200D02*
X152113149Y-98369819D01*
X152113149Y-98369819D02*
X152256006Y-98369819D01*
X151113149Y-98322200D02*
X151208387Y-98369819D01*
X151208387Y-98369819D02*
X151398863Y-98369819D01*
X151398863Y-98369819D02*
X151494101Y-98322200D01*
X151494101Y-98322200D02*
X151541720Y-98226961D01*
X151541720Y-98226961D02*
X151541720Y-97846009D01*
X151541720Y-97846009D02*
X151494101Y-97750771D01*
X151494101Y-97750771D02*
X151398863Y-97703152D01*
X151398863Y-97703152D02*
X151208387Y-97703152D01*
X151208387Y-97703152D02*
X151113149Y-97750771D01*
X151113149Y-97750771D02*
X151065530Y-97846009D01*
X151065530Y-97846009D02*
X151065530Y-97941247D01*
X151065530Y-97941247D02*
X151541720Y-98036485D01*
X150732196Y-97703152D02*
X150541720Y-98369819D01*
X150541720Y-98369819D02*
X150351244Y-97893628D01*
X150351244Y-97893628D02*
X150160768Y-98369819D01*
X150160768Y-98369819D02*
X149970292Y-97703152D01*
X149208387Y-98322200D02*
X149303625Y-98369819D01*
X149303625Y-98369819D02*
X149494101Y-98369819D01*
X149494101Y-98369819D02*
X149589339Y-98322200D01*
X149589339Y-98322200D02*
X149636958Y-98226961D01*
X149636958Y-98226961D02*
X149636958Y-97846009D01*
X149636958Y-97846009D02*
X149589339Y-97750771D01*
X149589339Y-97750771D02*
X149494101Y-97703152D01*
X149494101Y-97703152D02*
X149303625Y-97703152D01*
X149303625Y-97703152D02*
X149208387Y-97750771D01*
X149208387Y-97750771D02*
X149160768Y-97846009D01*
X149160768Y-97846009D02*
X149160768Y-97941247D01*
X149160768Y-97941247D02*
X149636958Y-98036485D01*
X148970292Y-98465057D02*
X148208387Y-98465057D01*
X148113148Y-97369819D02*
X147779815Y-98369819D01*
X147779815Y-98369819D02*
X147446482Y-97369819D01*
X146589339Y-97417438D02*
X146684577Y-97369819D01*
X146684577Y-97369819D02*
X146827434Y-97369819D01*
X146827434Y-97369819D02*
X146970291Y-97417438D01*
X146970291Y-97417438D02*
X147065529Y-97512676D01*
X147065529Y-97512676D02*
X147113148Y-97607914D01*
X147113148Y-97607914D02*
X147160767Y-97798390D01*
X147160767Y-97798390D02*
X147160767Y-97941247D01*
X147160767Y-97941247D02*
X147113148Y-98131723D01*
X147113148Y-98131723D02*
X147065529Y-98226961D01*
X147065529Y-98226961D02*
X146970291Y-98322200D01*
X146970291Y-98322200D02*
X146827434Y-98369819D01*
X146827434Y-98369819D02*
X146732196Y-98369819D01*
X146732196Y-98369819D02*
X146589339Y-98322200D01*
X146589339Y-98322200D02*
X146541720Y-98274580D01*
X146541720Y-98274580D02*
X146541720Y-97941247D01*
X146541720Y-97941247D02*
X146732196Y-97941247D01*
X146160767Y-98084104D02*
X145684577Y-98084104D01*
X146256005Y-98369819D02*
X145922672Y-97369819D01*
X145922672Y-97369819D02*
X145589339Y-98369819D01*
X145494101Y-98465057D02*
X144732196Y-98465057D01*
X144494100Y-98369819D02*
X144494100Y-97369819D01*
X144494100Y-97369819D02*
X144160767Y-98084104D01*
X144160767Y-98084104D02*
X143827434Y-97369819D01*
X143827434Y-97369819D02*
X143827434Y-98369819D01*
X143208386Y-98369819D02*
X143303624Y-98322200D01*
X143303624Y-98322200D02*
X143351243Y-98274580D01*
X143351243Y-98274580D02*
X143398862Y-98179342D01*
X143398862Y-98179342D02*
X143398862Y-97893628D01*
X143398862Y-97893628D02*
X143351243Y-97798390D01*
X143351243Y-97798390D02*
X143303624Y-97750771D01*
X143303624Y-97750771D02*
X143208386Y-97703152D01*
X143208386Y-97703152D02*
X143065529Y-97703152D01*
X143065529Y-97703152D02*
X142970291Y-97750771D01*
X142970291Y-97750771D02*
X142922672Y-97798390D01*
X142922672Y-97798390D02*
X142875053Y-97893628D01*
X142875053Y-97893628D02*
X142875053Y-98179342D01*
X142875053Y-98179342D02*
X142922672Y-98274580D01*
X142922672Y-98274580D02*
X142970291Y-98322200D01*
X142970291Y-98322200D02*
X143065529Y-98369819D01*
X143065529Y-98369819D02*
X143208386Y-98369819D01*
X142017910Y-98369819D02*
X142017910Y-97369819D01*
X142017910Y-98322200D02*
X142113148Y-98369819D01*
X142113148Y-98369819D02*
X142303624Y-98369819D01*
X142303624Y-98369819D02*
X142398862Y-98322200D01*
X142398862Y-98322200D02*
X142446481Y-98274580D01*
X142446481Y-98274580D02*
X142494100Y-98179342D01*
X142494100Y-98179342D02*
X142494100Y-97893628D01*
X142494100Y-97893628D02*
X142446481Y-97798390D01*
X142446481Y-97798390D02*
X142398862Y-97750771D01*
X142398862Y-97750771D02*
X142303624Y-97703152D01*
X142303624Y-97703152D02*
X142113148Y-97703152D01*
X142113148Y-97703152D02*
X142017910Y-97750771D01*
X141113148Y-97703152D02*
X141113148Y-98369819D01*
X141541719Y-97703152D02*
X141541719Y-98226961D01*
X141541719Y-98226961D02*
X141494100Y-98322200D01*
X141494100Y-98322200D02*
X141398862Y-98369819D01*
X141398862Y-98369819D02*
X141256005Y-98369819D01*
X141256005Y-98369819D02*
X141160767Y-98322200D01*
X141160767Y-98322200D02*
X141113148Y-98274580D01*
X140494100Y-98369819D02*
X140589338Y-98322200D01*
X140589338Y-98322200D02*
X140636957Y-98226961D01*
X140636957Y-98226961D02*
X140636957Y-97369819D01*
X139732195Y-98322200D02*
X139827433Y-98369819D01*
X139827433Y-98369819D02*
X140017909Y-98369819D01*
X140017909Y-98369819D02*
X140113147Y-98322200D01*
X140113147Y-98322200D02*
X140160766Y-98226961D01*
X140160766Y-98226961D02*
X140160766Y-97846009D01*
X140160766Y-97846009D02*
X140113147Y-97750771D01*
X140113147Y-97750771D02*
X140017909Y-97703152D01*
X140017909Y-97703152D02*
X139827433Y-97703152D01*
X139827433Y-97703152D02*
X139732195Y-97750771D01*
X139732195Y-97750771D02*
X139684576Y-97846009D01*
X139684576Y-97846009D02*
X139684576Y-97941247D01*
X139684576Y-97941247D02*
X140160766Y-98036485D01*
X139494100Y-98465057D02*
X138732195Y-98465057D01*
X137827433Y-98465057D02*
X137922671Y-98417438D01*
X137922671Y-98417438D02*
X138017909Y-98322200D01*
X138017909Y-98322200D02*
X138160766Y-98179342D01*
X138160766Y-98179342D02*
X138256004Y-98131723D01*
X138256004Y-98131723D02*
X138351242Y-98131723D01*
X138303623Y-98369819D02*
X138398861Y-98322200D01*
X138398861Y-98322200D02*
X138494099Y-98226961D01*
X138494099Y-98226961D02*
X138541718Y-98036485D01*
X138541718Y-98036485D02*
X138541718Y-97703152D01*
X138541718Y-97703152D02*
X138494099Y-97512676D01*
X138494099Y-97512676D02*
X138398861Y-97417438D01*
X138398861Y-97417438D02*
X138303623Y-97369819D01*
X138303623Y-97369819D02*
X138113147Y-97369819D01*
X138113147Y-97369819D02*
X138017909Y-97417438D01*
X138017909Y-97417438D02*
X137922671Y-97512676D01*
X137922671Y-97512676D02*
X137875052Y-97703152D01*
X137875052Y-97703152D02*
X137875052Y-98036485D01*
X137875052Y-98036485D02*
X137922671Y-98226961D01*
X137922671Y-98226961D02*
X138017909Y-98322200D01*
X138017909Y-98322200D02*
X138113147Y-98369819D01*
X138113147Y-98369819D02*
X138303623Y-98369819D01*
X137494099Y-97465057D02*
X137446480Y-97417438D01*
X137446480Y-97417438D02*
X137351242Y-97369819D01*
X137351242Y-97369819D02*
X137113147Y-97369819D01*
X137113147Y-97369819D02*
X137017909Y-97417438D01*
X137017909Y-97417438D02*
X136970290Y-97465057D01*
X136970290Y-97465057D02*
X136922671Y-97560295D01*
X136922671Y-97560295D02*
X136922671Y-97655533D01*
X136922671Y-97655533D02*
X136970290Y-97798390D01*
X136970290Y-97798390D02*
X137541718Y-98369819D01*
X137541718Y-98369819D02*
X136922671Y-98369819D01*
X136017909Y-97369819D02*
X136494099Y-97369819D01*
X136494099Y-97369819D02*
X136541718Y-97846009D01*
X136541718Y-97846009D02*
X136494099Y-97798390D01*
X136494099Y-97798390D02*
X136398861Y-97750771D01*
X136398861Y-97750771D02*
X136160766Y-97750771D01*
X136160766Y-97750771D02*
X136065528Y-97798390D01*
X136065528Y-97798390D02*
X136017909Y-97846009D01*
X136017909Y-97846009D02*
X135970290Y-97941247D01*
X135970290Y-97941247D02*
X135970290Y-98179342D01*
X135970290Y-98179342D02*
X136017909Y-98274580D01*
X136017909Y-98274580D02*
X136065528Y-98322200D01*
X136065528Y-98322200D02*
X136160766Y-98369819D01*
X136160766Y-98369819D02*
X136398861Y-98369819D01*
X136398861Y-98369819D02*
X136494099Y-98322200D01*
X136494099Y-98322200D02*
X136541718Y-98274580D01*
X135351242Y-97369819D02*
X135256004Y-97369819D01*
X135256004Y-97369819D02*
X135160766Y-97417438D01*
X135160766Y-97417438D02*
X135113147Y-97465057D01*
X135113147Y-97465057D02*
X135065528Y-97560295D01*
X135065528Y-97560295D02*
X135017909Y-97750771D01*
X135017909Y-97750771D02*
X135017909Y-97988866D01*
X135017909Y-97988866D02*
X135065528Y-98179342D01*
X135065528Y-98179342D02*
X135113147Y-98274580D01*
X135113147Y-98274580D02*
X135160766Y-98322200D01*
X135160766Y-98322200D02*
X135256004Y-98369819D01*
X135256004Y-98369819D02*
X135351242Y-98369819D01*
X135351242Y-98369819D02*
X135446480Y-98322200D01*
X135446480Y-98322200D02*
X135494099Y-98274580D01*
X135494099Y-98274580D02*
X135541718Y-98179342D01*
X135541718Y-98179342D02*
X135589337Y-97988866D01*
X135589337Y-97988866D02*
X135589337Y-97750771D01*
X135589337Y-97750771D02*
X135541718Y-97560295D01*
X135541718Y-97560295D02*
X135494099Y-97465057D01*
X135494099Y-97465057D02*
X135446480Y-97417438D01*
X135446480Y-97417438D02*
X135351242Y-97369819D01*
X134398861Y-97369819D02*
X134303623Y-97369819D01*
X134303623Y-97369819D02*
X134208385Y-97417438D01*
X134208385Y-97417438D02*
X134160766Y-97465057D01*
X134160766Y-97465057D02*
X134113147Y-97560295D01*
X134113147Y-97560295D02*
X134065528Y-97750771D01*
X134065528Y-97750771D02*
X134065528Y-97988866D01*
X134065528Y-97988866D02*
X134113147Y-98179342D01*
X134113147Y-98179342D02*
X134160766Y-98274580D01*
X134160766Y-98274580D02*
X134208385Y-98322200D01*
X134208385Y-98322200D02*
X134303623Y-98369819D01*
X134303623Y-98369819D02*
X134398861Y-98369819D01*
X134398861Y-98369819D02*
X134494099Y-98322200D01*
X134494099Y-98322200D02*
X134541718Y-98274580D01*
X134541718Y-98274580D02*
X134589337Y-98179342D01*
X134589337Y-98179342D02*
X134636956Y-97988866D01*
X134636956Y-97988866D02*
X134636956Y-97750771D01*
X134636956Y-97750771D02*
X134589337Y-97560295D01*
X134589337Y-97560295D02*
X134541718Y-97465057D01*
X134541718Y-97465057D02*
X134494099Y-97417438D01*
X134494099Y-97417438D02*
X134398861Y-97369819D01*
X131306077Y-93169819D02*
X130972744Y-94169819D01*
X130972744Y-94169819D02*
X130639411Y-93169819D01*
X129734649Y-94074580D02*
X129782268Y-94122200D01*
X129782268Y-94122200D02*
X129925125Y-94169819D01*
X129925125Y-94169819D02*
X130020363Y-94169819D01*
X130020363Y-94169819D02*
X130163220Y-94122200D01*
X130163220Y-94122200D02*
X130258458Y-94026961D01*
X130258458Y-94026961D02*
X130306077Y-93931723D01*
X130306077Y-93931723D02*
X130353696Y-93741247D01*
X130353696Y-93741247D02*
X130353696Y-93598390D01*
X130353696Y-93598390D02*
X130306077Y-93407914D01*
X130306077Y-93407914D02*
X130258458Y-93312676D01*
X130258458Y-93312676D02*
X130163220Y-93217438D01*
X130163220Y-93217438D02*
X130020363Y-93169819D01*
X130020363Y-93169819D02*
X129925125Y-93169819D01*
X129925125Y-93169819D02*
X129782268Y-93217438D01*
X129782268Y-93217438D02*
X129734649Y-93265057D01*
X128734649Y-94074580D02*
X128782268Y-94122200D01*
X128782268Y-94122200D02*
X128925125Y-94169819D01*
X128925125Y-94169819D02*
X129020363Y-94169819D01*
X129020363Y-94169819D02*
X129163220Y-94122200D01*
X129163220Y-94122200D02*
X129258458Y-94026961D01*
X129258458Y-94026961D02*
X129306077Y-93931723D01*
X129306077Y-93931723D02*
X129353696Y-93741247D01*
X129353696Y-93741247D02*
X129353696Y-93598390D01*
X129353696Y-93598390D02*
X129306077Y-93407914D01*
X129306077Y-93407914D02*
X129258458Y-93312676D01*
X129258458Y-93312676D02*
X129163220Y-93217438D01*
X129163220Y-93217438D02*
X129020363Y-93169819D01*
X129020363Y-93169819D02*
X128925125Y-93169819D01*
X128925125Y-93169819D02*
X128782268Y-93217438D01*
X128782268Y-93217438D02*
X128734649Y-93265057D01*
X130739411Y-95717438D02*
X130834649Y-95669819D01*
X130834649Y-95669819D02*
X130977506Y-95669819D01*
X130977506Y-95669819D02*
X131120363Y-95717438D01*
X131120363Y-95717438D02*
X131215601Y-95812676D01*
X131215601Y-95812676D02*
X131263220Y-95907914D01*
X131263220Y-95907914D02*
X131310839Y-96098390D01*
X131310839Y-96098390D02*
X131310839Y-96241247D01*
X131310839Y-96241247D02*
X131263220Y-96431723D01*
X131263220Y-96431723D02*
X131215601Y-96526961D01*
X131215601Y-96526961D02*
X131120363Y-96622200D01*
X131120363Y-96622200D02*
X130977506Y-96669819D01*
X130977506Y-96669819D02*
X130882268Y-96669819D01*
X130882268Y-96669819D02*
X130739411Y-96622200D01*
X130739411Y-96622200D02*
X130691792Y-96574580D01*
X130691792Y-96574580D02*
X130691792Y-96241247D01*
X130691792Y-96241247D02*
X130882268Y-96241247D01*
X130263220Y-96669819D02*
X130263220Y-95669819D01*
X130263220Y-95669819D02*
X129691792Y-96669819D01*
X129691792Y-96669819D02*
X129691792Y-95669819D01*
X129215601Y-96669819D02*
X129215601Y-95669819D01*
X129215601Y-95669819D02*
X128977506Y-95669819D01*
X128977506Y-95669819D02*
X128834649Y-95717438D01*
X128834649Y-95717438D02*
X128739411Y-95812676D01*
X128739411Y-95812676D02*
X128691792Y-95907914D01*
X128691792Y-95907914D02*
X128644173Y-96098390D01*
X128644173Y-96098390D02*
X128644173Y-96241247D01*
X128644173Y-96241247D02*
X128691792Y-96431723D01*
X128691792Y-96431723D02*
X128739411Y-96526961D01*
X128739411Y-96526961D02*
X128834649Y-96622200D01*
X128834649Y-96622200D02*
X128977506Y-96669819D01*
X128977506Y-96669819D02*
X129215601Y-96669819D01*
X130739411Y-90617438D02*
X130834649Y-90569819D01*
X130834649Y-90569819D02*
X130977506Y-90569819D01*
X130977506Y-90569819D02*
X131120363Y-90617438D01*
X131120363Y-90617438D02*
X131215601Y-90712676D01*
X131215601Y-90712676D02*
X131263220Y-90807914D01*
X131263220Y-90807914D02*
X131310839Y-90998390D01*
X131310839Y-90998390D02*
X131310839Y-91141247D01*
X131310839Y-91141247D02*
X131263220Y-91331723D01*
X131263220Y-91331723D02*
X131215601Y-91426961D01*
X131215601Y-91426961D02*
X131120363Y-91522200D01*
X131120363Y-91522200D02*
X130977506Y-91569819D01*
X130977506Y-91569819D02*
X130882268Y-91569819D01*
X130882268Y-91569819D02*
X130739411Y-91522200D01*
X130739411Y-91522200D02*
X130691792Y-91474580D01*
X130691792Y-91474580D02*
X130691792Y-91141247D01*
X130691792Y-91141247D02*
X130882268Y-91141247D01*
X130263220Y-91569819D02*
X130263220Y-90569819D01*
X130263220Y-90569819D02*
X129691792Y-91569819D01*
X129691792Y-91569819D02*
X129691792Y-90569819D01*
X129215601Y-91569819D02*
X129215601Y-90569819D01*
X129215601Y-90569819D02*
X128977506Y-90569819D01*
X128977506Y-90569819D02*
X128834649Y-90617438D01*
X128834649Y-90617438D02*
X128739411Y-90712676D01*
X128739411Y-90712676D02*
X128691792Y-90807914D01*
X128691792Y-90807914D02*
X128644173Y-90998390D01*
X128644173Y-90998390D02*
X128644173Y-91141247D01*
X128644173Y-91141247D02*
X128691792Y-91331723D01*
X128691792Y-91331723D02*
X128739411Y-91426961D01*
X128739411Y-91426961D02*
X128834649Y-91522200D01*
X128834649Y-91522200D02*
X128977506Y-91569819D01*
X128977506Y-91569819D02*
X129215601Y-91569819D01*
X133063220Y-104069819D02*
X133063220Y-103069819D01*
X133063220Y-103546009D02*
X132491792Y-103546009D01*
X132491792Y-104069819D02*
X132491792Y-103069819D01*
X132063220Y-104022200D02*
X131920363Y-104069819D01*
X131920363Y-104069819D02*
X131682268Y-104069819D01*
X131682268Y-104069819D02*
X131587030Y-104022200D01*
X131587030Y-104022200D02*
X131539411Y-103974580D01*
X131539411Y-103974580D02*
X131491792Y-103879342D01*
X131491792Y-103879342D02*
X131491792Y-103784104D01*
X131491792Y-103784104D02*
X131539411Y-103688866D01*
X131539411Y-103688866D02*
X131587030Y-103641247D01*
X131587030Y-103641247D02*
X131682268Y-103593628D01*
X131682268Y-103593628D02*
X131872744Y-103546009D01*
X131872744Y-103546009D02*
X131967982Y-103498390D01*
X131967982Y-103498390D02*
X132015601Y-103450771D01*
X132015601Y-103450771D02*
X132063220Y-103355533D01*
X132063220Y-103355533D02*
X132063220Y-103260295D01*
X132063220Y-103260295D02*
X132015601Y-103165057D01*
X132015601Y-103165057D02*
X131967982Y-103117438D01*
X131967982Y-103117438D02*
X131872744Y-103069819D01*
X131872744Y-103069819D02*
X131634649Y-103069819D01*
X131634649Y-103069819D02*
X131491792Y-103117438D01*
X130872744Y-103593628D02*
X130872744Y-104069819D01*
X131206077Y-103069819D02*
X130872744Y-103593628D01*
X130872744Y-103593628D02*
X130539411Y-103069819D01*
X130206077Y-104069819D02*
X130206077Y-103069819D01*
X130206077Y-103069819D02*
X129634649Y-104069819D01*
X129634649Y-104069819D02*
X129634649Y-103069819D01*
X128587030Y-103974580D02*
X128634649Y-104022200D01*
X128634649Y-104022200D02*
X128777506Y-104069819D01*
X128777506Y-104069819D02*
X128872744Y-104069819D01*
X128872744Y-104069819D02*
X129015601Y-104022200D01*
X129015601Y-104022200D02*
X129110839Y-103926961D01*
X129110839Y-103926961D02*
X129158458Y-103831723D01*
X129158458Y-103831723D02*
X129206077Y-103641247D01*
X129206077Y-103641247D02*
X129206077Y-103498390D01*
X129206077Y-103498390D02*
X129158458Y-103307914D01*
X129158458Y-103307914D02*
X129110839Y-103212676D01*
X129110839Y-103212676D02*
X129015601Y-103117438D01*
X129015601Y-103117438D02*
X128872744Y-103069819D01*
X128872744Y-103069819D02*
X128777506Y-103069819D01*
X128777506Y-103069819D02*
X128634649Y-103117438D01*
X128634649Y-103117438D02*
X128587030Y-103165057D01*
X130739411Y-116017438D02*
X130834649Y-115969819D01*
X130834649Y-115969819D02*
X130977506Y-115969819D01*
X130977506Y-115969819D02*
X131120363Y-116017438D01*
X131120363Y-116017438D02*
X131215601Y-116112676D01*
X131215601Y-116112676D02*
X131263220Y-116207914D01*
X131263220Y-116207914D02*
X131310839Y-116398390D01*
X131310839Y-116398390D02*
X131310839Y-116541247D01*
X131310839Y-116541247D02*
X131263220Y-116731723D01*
X131263220Y-116731723D02*
X131215601Y-116826961D01*
X131215601Y-116826961D02*
X131120363Y-116922200D01*
X131120363Y-116922200D02*
X130977506Y-116969819D01*
X130977506Y-116969819D02*
X130882268Y-116969819D01*
X130882268Y-116969819D02*
X130739411Y-116922200D01*
X130739411Y-116922200D02*
X130691792Y-116874580D01*
X130691792Y-116874580D02*
X130691792Y-116541247D01*
X130691792Y-116541247D02*
X130882268Y-116541247D01*
X130263220Y-116969819D02*
X130263220Y-115969819D01*
X130263220Y-115969819D02*
X129691792Y-116969819D01*
X129691792Y-116969819D02*
X129691792Y-115969819D01*
X129215601Y-116969819D02*
X129215601Y-115969819D01*
X129215601Y-115969819D02*
X128977506Y-115969819D01*
X128977506Y-115969819D02*
X128834649Y-116017438D01*
X128834649Y-116017438D02*
X128739411Y-116112676D01*
X128739411Y-116112676D02*
X128691792Y-116207914D01*
X128691792Y-116207914D02*
X128644173Y-116398390D01*
X128644173Y-116398390D02*
X128644173Y-116541247D01*
X128644173Y-116541247D02*
X128691792Y-116731723D01*
X128691792Y-116731723D02*
X128739411Y-116826961D01*
X128739411Y-116826961D02*
X128834649Y-116922200D01*
X128834649Y-116922200D02*
X128977506Y-116969819D01*
X128977506Y-116969819D02*
X129215601Y-116969819D01*
X130739411Y-111017438D02*
X130834649Y-110969819D01*
X130834649Y-110969819D02*
X130977506Y-110969819D01*
X130977506Y-110969819D02*
X131120363Y-111017438D01*
X131120363Y-111017438D02*
X131215601Y-111112676D01*
X131215601Y-111112676D02*
X131263220Y-111207914D01*
X131263220Y-111207914D02*
X131310839Y-111398390D01*
X131310839Y-111398390D02*
X131310839Y-111541247D01*
X131310839Y-111541247D02*
X131263220Y-111731723D01*
X131263220Y-111731723D02*
X131215601Y-111826961D01*
X131215601Y-111826961D02*
X131120363Y-111922200D01*
X131120363Y-111922200D02*
X130977506Y-111969819D01*
X130977506Y-111969819D02*
X130882268Y-111969819D01*
X130882268Y-111969819D02*
X130739411Y-111922200D01*
X130739411Y-111922200D02*
X130691792Y-111874580D01*
X130691792Y-111874580D02*
X130691792Y-111541247D01*
X130691792Y-111541247D02*
X130882268Y-111541247D01*
X130263220Y-111969819D02*
X130263220Y-110969819D01*
X130263220Y-110969819D02*
X129691792Y-111969819D01*
X129691792Y-111969819D02*
X129691792Y-110969819D01*
X129215601Y-111969819D02*
X129215601Y-110969819D01*
X129215601Y-110969819D02*
X128977506Y-110969819D01*
X128977506Y-110969819D02*
X128834649Y-111017438D01*
X128834649Y-111017438D02*
X128739411Y-111112676D01*
X128739411Y-111112676D02*
X128691792Y-111207914D01*
X128691792Y-111207914D02*
X128644173Y-111398390D01*
X128644173Y-111398390D02*
X128644173Y-111541247D01*
X128644173Y-111541247D02*
X128691792Y-111731723D01*
X128691792Y-111731723D02*
X128739411Y-111826961D01*
X128739411Y-111826961D02*
X128834649Y-111922200D01*
X128834649Y-111922200D02*
X128977506Y-111969819D01*
X128977506Y-111969819D02*
X129215601Y-111969819D01*
D11*
X168896993Y-96556100D02*
X169611279Y-96556100D01*
X169611279Y-96556100D02*
X169611279Y-95056100D01*
X168182707Y-96556100D02*
X168325564Y-96484672D01*
X168325564Y-96484672D02*
X168396993Y-96413243D01*
X168396993Y-96413243D02*
X168468421Y-96270386D01*
X168468421Y-96270386D02*
X168468421Y-95841814D01*
X168468421Y-95841814D02*
X168396993Y-95698957D01*
X168396993Y-95698957D02*
X168325564Y-95627529D01*
X168325564Y-95627529D02*
X168182707Y-95556100D01*
X168182707Y-95556100D02*
X167968421Y-95556100D01*
X167968421Y-95556100D02*
X167825564Y-95627529D01*
X167825564Y-95627529D02*
X167754136Y-95698957D01*
X167754136Y-95698957D02*
X167682707Y-95841814D01*
X167682707Y-95841814D02*
X167682707Y-96270386D01*
X167682707Y-96270386D02*
X167754136Y-96413243D01*
X167754136Y-96413243D02*
X167825564Y-96484672D01*
X167825564Y-96484672D02*
X167968421Y-96556100D01*
X167968421Y-96556100D02*
X168182707Y-96556100D01*
X166468421Y-96484672D02*
X166611278Y-96556100D01*
X166611278Y-96556100D02*
X166896993Y-96556100D01*
X166896993Y-96556100D02*
X167039850Y-96484672D01*
X167039850Y-96484672D02*
X167111278Y-96341814D01*
X167111278Y-96341814D02*
X167111278Y-95770386D01*
X167111278Y-95770386D02*
X167039850Y-95627529D01*
X167039850Y-95627529D02*
X166896993Y-95556100D01*
X166896993Y-95556100D02*
X166611278Y-95556100D01*
X166611278Y-95556100D02*
X166468421Y-95627529D01*
X166468421Y-95627529D02*
X166396993Y-95770386D01*
X166396993Y-95770386D02*
X166396993Y-95913243D01*
X166396993Y-95913243D02*
X167111278Y-96056100D01*
X165896993Y-95556100D02*
X165611279Y-96556100D01*
X165611279Y-96556100D02*
X165325564Y-95841814D01*
X165325564Y-95841814D02*
X165039850Y-96556100D01*
X165039850Y-96556100D02*
X164754136Y-95556100D01*
X163611278Y-96484672D02*
X163754135Y-96556100D01*
X163754135Y-96556100D02*
X164039850Y-96556100D01*
X164039850Y-96556100D02*
X164182707Y-96484672D01*
X164182707Y-96484672D02*
X164254135Y-96341814D01*
X164254135Y-96341814D02*
X164254135Y-95770386D01*
X164254135Y-95770386D02*
X164182707Y-95627529D01*
X164182707Y-95627529D02*
X164039850Y-95556100D01*
X164039850Y-95556100D02*
X163754135Y-95556100D01*
X163754135Y-95556100D02*
X163611278Y-95627529D01*
X163611278Y-95627529D02*
X163539850Y-95770386D01*
X163539850Y-95770386D02*
X163539850Y-95913243D01*
X163539850Y-95913243D02*
X164254135Y-96056100D01*
X161968421Y-95056100D02*
X161111279Y-95056100D01*
X161539850Y-96556100D02*
X161539850Y-95056100D01*
X160825564Y-95056100D02*
X160325564Y-96556100D01*
X160325564Y-96556100D02*
X159825564Y-95056100D01*
X159396993Y-96484672D02*
X159254136Y-96556100D01*
X159254136Y-96556100D02*
X158968422Y-96556100D01*
X158968422Y-96556100D02*
X158825565Y-96484672D01*
X158825565Y-96484672D02*
X158754136Y-96341814D01*
X158754136Y-96341814D02*
X158754136Y-96270386D01*
X158754136Y-96270386D02*
X158825565Y-96127529D01*
X158825565Y-96127529D02*
X158968422Y-96056100D01*
X158968422Y-96056100D02*
X159182708Y-96056100D01*
X159182708Y-96056100D02*
X159325565Y-95984672D01*
X159325565Y-95984672D02*
X159396993Y-95841814D01*
X159396993Y-95841814D02*
X159396993Y-95770386D01*
X159396993Y-95770386D02*
X159325565Y-95627529D01*
X159325565Y-95627529D02*
X159182708Y-95556100D01*
X159182708Y-95556100D02*
X158968422Y-95556100D01*
X158968422Y-95556100D02*
X158825565Y-95627529D01*
X155968422Y-96698957D02*
X156111279Y-96627529D01*
X156111279Y-96627529D02*
X156254136Y-96484672D01*
X156254136Y-96484672D02*
X156468422Y-96270386D01*
X156468422Y-96270386D02*
X156611279Y-96198957D01*
X156611279Y-96198957D02*
X156754136Y-96198957D01*
X156682707Y-96556100D02*
X156825565Y-96484672D01*
X156825565Y-96484672D02*
X156968422Y-96341814D01*
X156968422Y-96341814D02*
X157039850Y-96056100D01*
X157039850Y-96056100D02*
X157039850Y-95556100D01*
X157039850Y-95556100D02*
X156968422Y-95270386D01*
X156968422Y-95270386D02*
X156825565Y-95127529D01*
X156825565Y-95127529D02*
X156682707Y-95056100D01*
X156682707Y-95056100D02*
X156396993Y-95056100D01*
X156396993Y-95056100D02*
X156254136Y-95127529D01*
X156254136Y-95127529D02*
X156111279Y-95270386D01*
X156111279Y-95270386D02*
X156039850Y-95556100D01*
X156039850Y-95556100D02*
X156039850Y-96056100D01*
X156039850Y-96056100D02*
X156111279Y-96341814D01*
X156111279Y-96341814D02*
X156254136Y-96484672D01*
X156254136Y-96484672D02*
X156396993Y-96556100D01*
X156396993Y-96556100D02*
X156682707Y-96556100D01*
X155468421Y-95198957D02*
X155396993Y-95127529D01*
X155396993Y-95127529D02*
X155254136Y-95056100D01*
X155254136Y-95056100D02*
X154896993Y-95056100D01*
X154896993Y-95056100D02*
X154754136Y-95127529D01*
X154754136Y-95127529D02*
X154682707Y-95198957D01*
X154682707Y-95198957D02*
X154611278Y-95341814D01*
X154611278Y-95341814D02*
X154611278Y-95484672D01*
X154611278Y-95484672D02*
X154682707Y-95698957D01*
X154682707Y-95698957D02*
X155539850Y-96556100D01*
X155539850Y-96556100D02*
X154611278Y-96556100D01*
X153254136Y-95056100D02*
X153968422Y-95056100D01*
X153968422Y-95056100D02*
X154039850Y-95770386D01*
X154039850Y-95770386D02*
X153968422Y-95698957D01*
X153968422Y-95698957D02*
X153825565Y-95627529D01*
X153825565Y-95627529D02*
X153468422Y-95627529D01*
X153468422Y-95627529D02*
X153325565Y-95698957D01*
X153325565Y-95698957D02*
X153254136Y-95770386D01*
X153254136Y-95770386D02*
X153182707Y-95913243D01*
X153182707Y-95913243D02*
X153182707Y-96270386D01*
X153182707Y-96270386D02*
X153254136Y-96413243D01*
X153254136Y-96413243D02*
X153325565Y-96484672D01*
X153325565Y-96484672D02*
X153468422Y-96556100D01*
X153468422Y-96556100D02*
X153825565Y-96556100D01*
X153825565Y-96556100D02*
X153968422Y-96484672D01*
X153968422Y-96484672D02*
X154039850Y-96413243D01*
X152254136Y-95056100D02*
X152111279Y-95056100D01*
X152111279Y-95056100D02*
X151968422Y-95127529D01*
X151968422Y-95127529D02*
X151896994Y-95198957D01*
X151896994Y-95198957D02*
X151825565Y-95341814D01*
X151825565Y-95341814D02*
X151754136Y-95627529D01*
X151754136Y-95627529D02*
X151754136Y-95984672D01*
X151754136Y-95984672D02*
X151825565Y-96270386D01*
X151825565Y-96270386D02*
X151896994Y-96413243D01*
X151896994Y-96413243D02*
X151968422Y-96484672D01*
X151968422Y-96484672D02*
X152111279Y-96556100D01*
X152111279Y-96556100D02*
X152254136Y-96556100D01*
X152254136Y-96556100D02*
X152396994Y-96484672D01*
X152396994Y-96484672D02*
X152468422Y-96413243D01*
X152468422Y-96413243D02*
X152539851Y-96270386D01*
X152539851Y-96270386D02*
X152611279Y-95984672D01*
X152611279Y-95984672D02*
X152611279Y-95627529D01*
X152611279Y-95627529D02*
X152539851Y-95341814D01*
X152539851Y-95341814D02*
X152468422Y-95198957D01*
X152468422Y-95198957D02*
X152396994Y-95127529D01*
X152396994Y-95127529D02*
X152254136Y-95056100D01*
X150825565Y-95056100D02*
X150682708Y-95056100D01*
X150682708Y-95056100D02*
X150539851Y-95127529D01*
X150539851Y-95127529D02*
X150468423Y-95198957D01*
X150468423Y-95198957D02*
X150396994Y-95341814D01*
X150396994Y-95341814D02*
X150325565Y-95627529D01*
X150325565Y-95627529D02*
X150325565Y-95984672D01*
X150325565Y-95984672D02*
X150396994Y-96270386D01*
X150396994Y-96270386D02*
X150468423Y-96413243D01*
X150468423Y-96413243D02*
X150539851Y-96484672D01*
X150539851Y-96484672D02*
X150682708Y-96556100D01*
X150682708Y-96556100D02*
X150825565Y-96556100D01*
X150825565Y-96556100D02*
X150968423Y-96484672D01*
X150968423Y-96484672D02*
X151039851Y-96413243D01*
X151039851Y-96413243D02*
X151111280Y-96270386D01*
X151111280Y-96270386D02*
X151182708Y-95984672D01*
X151182708Y-95984672D02*
X151182708Y-95627529D01*
X151182708Y-95627529D02*
X151111280Y-95341814D01*
X151111280Y-95341814D02*
X151039851Y-95198957D01*
X151039851Y-95198957D02*
X150968423Y-95127529D01*
X150968423Y-95127529D02*
X150825565Y-95056100D01*
X148754137Y-95056100D02*
X148254137Y-96556100D01*
X148254137Y-96556100D02*
X147754137Y-95056100D01*
X146468423Y-95127529D02*
X146611281Y-95056100D01*
X146611281Y-95056100D02*
X146825566Y-95056100D01*
X146825566Y-95056100D02*
X147039852Y-95127529D01*
X147039852Y-95127529D02*
X147182709Y-95270386D01*
X147182709Y-95270386D02*
X147254138Y-95413243D01*
X147254138Y-95413243D02*
X147325566Y-95698957D01*
X147325566Y-95698957D02*
X147325566Y-95913243D01*
X147325566Y-95913243D02*
X147254138Y-96198957D01*
X147254138Y-96198957D02*
X147182709Y-96341814D01*
X147182709Y-96341814D02*
X147039852Y-96484672D01*
X147039852Y-96484672D02*
X146825566Y-96556100D01*
X146825566Y-96556100D02*
X146682709Y-96556100D01*
X146682709Y-96556100D02*
X146468423Y-96484672D01*
X146468423Y-96484672D02*
X146396995Y-96413243D01*
X146396995Y-96413243D02*
X146396995Y-95913243D01*
X146396995Y-95913243D02*
X146682709Y-95913243D01*
X145825566Y-96127529D02*
X145111281Y-96127529D01*
X145968423Y-96556100D02*
X145468423Y-95056100D01*
X145468423Y-95056100D02*
X144968423Y-96556100D01*
X143325567Y-96556100D02*
X143325567Y-95056100D01*
X143325567Y-95056100D02*
X142825567Y-96127529D01*
X142825567Y-96127529D02*
X142325567Y-95056100D01*
X142325567Y-95056100D02*
X142325567Y-96556100D01*
X141396995Y-96556100D02*
X141539852Y-96484672D01*
X141539852Y-96484672D02*
X141611281Y-96413243D01*
X141611281Y-96413243D02*
X141682709Y-96270386D01*
X141682709Y-96270386D02*
X141682709Y-95841814D01*
X141682709Y-95841814D02*
X141611281Y-95698957D01*
X141611281Y-95698957D02*
X141539852Y-95627529D01*
X141539852Y-95627529D02*
X141396995Y-95556100D01*
X141396995Y-95556100D02*
X141182709Y-95556100D01*
X141182709Y-95556100D02*
X141039852Y-95627529D01*
X141039852Y-95627529D02*
X140968424Y-95698957D01*
X140968424Y-95698957D02*
X140896995Y-95841814D01*
X140896995Y-95841814D02*
X140896995Y-96270386D01*
X140896995Y-96270386D02*
X140968424Y-96413243D01*
X140968424Y-96413243D02*
X141039852Y-96484672D01*
X141039852Y-96484672D02*
X141182709Y-96556100D01*
X141182709Y-96556100D02*
X141396995Y-96556100D01*
X139611281Y-96556100D02*
X139611281Y-95056100D01*
X139611281Y-96484672D02*
X139754138Y-96556100D01*
X139754138Y-96556100D02*
X140039852Y-96556100D01*
X140039852Y-96556100D02*
X140182709Y-96484672D01*
X140182709Y-96484672D02*
X140254138Y-96413243D01*
X140254138Y-96413243D02*
X140325566Y-96270386D01*
X140325566Y-96270386D02*
X140325566Y-95841814D01*
X140325566Y-95841814D02*
X140254138Y-95698957D01*
X140254138Y-95698957D02*
X140182709Y-95627529D01*
X140182709Y-95627529D02*
X140039852Y-95556100D01*
X140039852Y-95556100D02*
X139754138Y-95556100D01*
X139754138Y-95556100D02*
X139611281Y-95627529D01*
X138254138Y-95556100D02*
X138254138Y-96556100D01*
X138896995Y-95556100D02*
X138896995Y-96341814D01*
X138896995Y-96341814D02*
X138825566Y-96484672D01*
X138825566Y-96484672D02*
X138682709Y-96556100D01*
X138682709Y-96556100D02*
X138468423Y-96556100D01*
X138468423Y-96556100D02*
X138325566Y-96484672D01*
X138325566Y-96484672D02*
X138254138Y-96413243D01*
X137325566Y-96556100D02*
X137468423Y-96484672D01*
X137468423Y-96484672D02*
X137539852Y-96341814D01*
X137539852Y-96341814D02*
X137539852Y-95056100D01*
X136182709Y-96484672D02*
X136325566Y-96556100D01*
X136325566Y-96556100D02*
X136611281Y-96556100D01*
X136611281Y-96556100D02*
X136754138Y-96484672D01*
X136754138Y-96484672D02*
X136825566Y-96341814D01*
X136825566Y-96341814D02*
X136825566Y-95770386D01*
X136825566Y-95770386D02*
X136754138Y-95627529D01*
X136754138Y-95627529D02*
X136611281Y-95556100D01*
X136611281Y-95556100D02*
X136325566Y-95556100D01*
X136325566Y-95556100D02*
X136182709Y-95627529D01*
X136182709Y-95627529D02*
X136111281Y-95770386D01*
X136111281Y-95770386D02*
X136111281Y-95913243D01*
X136111281Y-95913243D02*
X136825566Y-96056100D01*
D10*
X133006077Y-98269819D02*
X132672744Y-99269819D01*
X132672744Y-99269819D02*
X132339411Y-98269819D01*
X132053696Y-99222200D02*
X131910839Y-99269819D01*
X131910839Y-99269819D02*
X131672744Y-99269819D01*
X131672744Y-99269819D02*
X131577506Y-99222200D01*
X131577506Y-99222200D02*
X131529887Y-99174580D01*
X131529887Y-99174580D02*
X131482268Y-99079342D01*
X131482268Y-99079342D02*
X131482268Y-98984104D01*
X131482268Y-98984104D02*
X131529887Y-98888866D01*
X131529887Y-98888866D02*
X131577506Y-98841247D01*
X131577506Y-98841247D02*
X131672744Y-98793628D01*
X131672744Y-98793628D02*
X131863220Y-98746009D01*
X131863220Y-98746009D02*
X131958458Y-98698390D01*
X131958458Y-98698390D02*
X132006077Y-98650771D01*
X132006077Y-98650771D02*
X132053696Y-98555533D01*
X132053696Y-98555533D02*
X132053696Y-98460295D01*
X132053696Y-98460295D02*
X132006077Y-98365057D01*
X132006077Y-98365057D02*
X131958458Y-98317438D01*
X131958458Y-98317438D02*
X131863220Y-98269819D01*
X131863220Y-98269819D02*
X131625125Y-98269819D01*
X131625125Y-98269819D02*
X131482268Y-98317438D01*
X130863220Y-98793628D02*
X130863220Y-99269819D01*
X131196553Y-98269819D02*
X130863220Y-98793628D01*
X130863220Y-98793628D02*
X130529887Y-98269819D01*
X130196553Y-99269819D02*
X130196553Y-98269819D01*
X130196553Y-98269819D02*
X129625125Y-99269819D01*
X129625125Y-99269819D02*
X129625125Y-98269819D01*
X128577506Y-99174580D02*
X128625125Y-99222200D01*
X128625125Y-99222200D02*
X128767982Y-99269819D01*
X128767982Y-99269819D02*
X128863220Y-99269819D01*
X128863220Y-99269819D02*
X129006077Y-99222200D01*
X129006077Y-99222200D02*
X129101315Y-99126961D01*
X129101315Y-99126961D02*
X129148934Y-99031723D01*
X129148934Y-99031723D02*
X129196553Y-98841247D01*
X129196553Y-98841247D02*
X129196553Y-98698390D01*
X129196553Y-98698390D02*
X129148934Y-98507914D01*
X129148934Y-98507914D02*
X129101315Y-98412676D01*
X129101315Y-98412676D02*
X129006077Y-98317438D01*
X129006077Y-98317438D02*
X128863220Y-98269819D01*
X128863220Y-98269819D02*
X128767982Y-98269819D01*
X128767982Y-98269819D02*
X128625125Y-98317438D01*
X128625125Y-98317438D02*
X128577506Y-98365057D01*
X131629887Y-108846009D02*
X131487030Y-108893628D01*
X131487030Y-108893628D02*
X131439411Y-108941247D01*
X131439411Y-108941247D02*
X131391792Y-109036485D01*
X131391792Y-109036485D02*
X131391792Y-109179342D01*
X131391792Y-109179342D02*
X131439411Y-109274580D01*
X131439411Y-109274580D02*
X131487030Y-109322200D01*
X131487030Y-109322200D02*
X131582268Y-109369819D01*
X131582268Y-109369819D02*
X131963220Y-109369819D01*
X131963220Y-109369819D02*
X131963220Y-108369819D01*
X131963220Y-108369819D02*
X131629887Y-108369819D01*
X131629887Y-108369819D02*
X131534649Y-108417438D01*
X131534649Y-108417438D02*
X131487030Y-108465057D01*
X131487030Y-108465057D02*
X131439411Y-108560295D01*
X131439411Y-108560295D02*
X131439411Y-108655533D01*
X131439411Y-108655533D02*
X131487030Y-108750771D01*
X131487030Y-108750771D02*
X131534649Y-108798390D01*
X131534649Y-108798390D02*
X131629887Y-108846009D01*
X131629887Y-108846009D02*
X131963220Y-108846009D01*
X130487030Y-109369819D02*
X130963220Y-109369819D01*
X130963220Y-109369819D02*
X130963220Y-108369819D01*
X130153696Y-108369819D02*
X130153696Y-109179342D01*
X130153696Y-109179342D02*
X130106077Y-109274580D01*
X130106077Y-109274580D02*
X130058458Y-109322200D01*
X130058458Y-109322200D02*
X129963220Y-109369819D01*
X129963220Y-109369819D02*
X129772744Y-109369819D01*
X129772744Y-109369819D02*
X129677506Y-109322200D01*
X129677506Y-109322200D02*
X129629887Y-109274580D01*
X129629887Y-109274580D02*
X129582268Y-109179342D01*
X129582268Y-109179342D02*
X129582268Y-108369819D01*
X129106077Y-108846009D02*
X128772744Y-108846009D01*
X128629887Y-109369819D02*
X129106077Y-109369819D01*
X129106077Y-109369819D02*
X129106077Y-108369819D01*
X129106077Y-108369819D02*
X128629887Y-108369819D01*
X145142857Y-114154819D02*
X145714285Y-114154819D01*
X145428571Y-114154819D02*
X145428571Y-113154819D01*
X145428571Y-113154819D02*
X145523809Y-113297676D01*
X145523809Y-113297676D02*
X145619047Y-113392914D01*
X145619047Y-113392914D02*
X145714285Y-113440533D01*
X144523809Y-113154819D02*
X144428571Y-113154819D01*
X144428571Y-113154819D02*
X144333333Y-113202438D01*
X144333333Y-113202438D02*
X144285714Y-113250057D01*
X144285714Y-113250057D02*
X144238095Y-113345295D01*
X144238095Y-113345295D02*
X144190476Y-113535771D01*
X144190476Y-113535771D02*
X144190476Y-113773866D01*
X144190476Y-113773866D02*
X144238095Y-113964342D01*
X144238095Y-113964342D02*
X144285714Y-114059580D01*
X144285714Y-114059580D02*
X144333333Y-114107200D01*
X144333333Y-114107200D02*
X144428571Y-114154819D01*
X144428571Y-114154819D02*
X144523809Y-114154819D01*
X144523809Y-114154819D02*
X144619047Y-114107200D01*
X144619047Y-114107200D02*
X144666666Y-114059580D01*
X144666666Y-114059580D02*
X144714285Y-113964342D01*
X144714285Y-113964342D02*
X144761904Y-113773866D01*
X144761904Y-113773866D02*
X144761904Y-113535771D01*
X144761904Y-113535771D02*
X144714285Y-113345295D01*
X144714285Y-113345295D02*
X144666666Y-113250057D01*
X144666666Y-113250057D02*
X144619047Y-113202438D01*
X144619047Y-113202438D02*
X144523809Y-113154819D01*
X143333333Y-113488152D02*
X143333333Y-114154819D01*
X143761904Y-113488152D02*
X143761904Y-114011961D01*
X143761904Y-114011961D02*
X143714285Y-114107200D01*
X143714285Y-114107200D02*
X143619047Y-114154819D01*
X143619047Y-114154819D02*
X143476190Y-114154819D01*
X143476190Y-114154819D02*
X143380952Y-114107200D01*
X143380952Y-114107200D02*
X143333333Y-114059580D01*
D12*
%TO.C,W831*%
X121826100Y-89888600D02*
X123731100Y-89888600D01*
X121826100Y-120368600D02*
X121826100Y-89888600D01*
X123101100Y-120368600D02*
X123101100Y-89888600D01*
X123731100Y-89888600D02*
X128176100Y-89888600D01*
X123731100Y-120368600D02*
X121826100Y-120368600D01*
X128176100Y-89888600D02*
X128176100Y-120368600D01*
X128176100Y-120368600D02*
X123731100Y-120368600D01*
D13*
%TO.C,C816*%
X141090000Y-114590000D02*
X146845563Y-114590000D01*
X141090000Y-116940000D02*
X141090000Y-114590000D01*
X141090000Y-119060000D02*
X141090000Y-121410000D01*
X141090000Y-121410000D02*
X146845563Y-121410000D01*
X146845563Y-114590000D02*
X147910000Y-115654437D01*
X146845563Y-121410000D02*
X147910000Y-120345563D01*
X147910000Y-116940000D02*
X147910000Y-115654437D01*
X147910000Y-119060000D02*
X147910000Y-120345563D01*
X148150000Y-116152500D02*
X148937500Y-116152500D01*
X148543750Y-116546250D02*
X148543750Y-115758750D01*
%TD*%
M02*
