%TF.GenerationSoftware,KiCad,Pcbnew,8.0.0*%
%TF.CreationDate,2026-06-22T15:27:44+03:00*%
%TF.ProjectId,Loewe VGA,4c6f6577-6520-4564-9741-2e6b69636164,rev?*%
%TF.SameCoordinates,Original*%
%TF.FileFunction,Soldermask,Bot*%
%TF.FilePolarity,Negative*%
%FSLAX46Y46*%
G04 Gerber Fmt 4.6, Leading zero omitted, Abs format (unit mm)*
G04 Created by KiCad (PCBNEW 8.0.0) date 2026-06-22 15:27:44*
%MOMM*%
%LPD*%
G01*
G04 APERTURE LIST*
G04 Aperture macros list*
%AMRoundRect*
0 Rectangle with rounded corners*
0 $1 Rounding radius*
0 $2 $3 $4 $5 $6 $7 $8 $9 X,Y pos of 4 corners*
0 Add a 4 corners polygon primitive as box body*
4,1,4,$2,$3,$4,$5,$6,$7,$8,$9,$2,$3,0*
0 Add four circle primitives for the rounded corners*
1,1,$1+$1,$2,$3*
1,1,$1+$1,$4,$5*
1,1,$1+$1,$6,$7*
1,1,$1+$1,$8,$9*
0 Add four rect primitives between the rounded corners*
20,1,$1+$1,$2,$3,$4,$5,0*
20,1,$1+$1,$4,$5,$6,$7,0*
20,1,$1+$1,$6,$7,$8,$9,0*
20,1,$1+$1,$8,$9,$2,$3,0*%
G04 Aperture macros list end*
%ADD10RoundRect,0.250000X-0.350000X-0.450000X0.350000X-0.450000X0.350000X0.450000X-0.350000X0.450000X0*%
%ADD11RoundRect,0.150000X0.150000X-0.825000X0.150000X0.825000X-0.150000X0.825000X-0.150000X-0.825000X0*%
%ADD12C,4.000000*%
%ADD13R,1.600000X1.600000*%
%ADD14C,1.600000*%
%ADD15RoundRect,0.250000X-0.725000X0.600000X-0.725000X-0.600000X0.725000X-0.600000X0.725000X0.600000X0*%
%ADD16O,1.950000X1.700000*%
%ADD17RoundRect,0.250000X1.500000X0.550000X-1.500000X0.550000X-1.500000X-0.550000X1.500000X-0.550000X0*%
G04 APERTURE END LIST*
D10*
%TO.C,R2*%
X155250000Y-102200000D03*
X157250000Y-102200000D03*
%TD*%
D11*
%TO.C,U2*%
X157655000Y-110375000D03*
X156385000Y-110375000D03*
X155115000Y-110375000D03*
X153845000Y-110375000D03*
X153845000Y-105425000D03*
X155115000Y-105425000D03*
X156385000Y-105425000D03*
X157655000Y-105425000D03*
%TD*%
D10*
%TO.C,R1*%
X155250000Y-99500000D03*
X157250000Y-99500000D03*
%TD*%
D12*
%TO.C,W801*%
X165509669Y-92385000D03*
X165509669Y-117385000D03*
D13*
X163459669Y-109200000D03*
D14*
X163459669Y-106910000D03*
X163459669Y-104620000D03*
X163459669Y-102330000D03*
X163459669Y-100040000D03*
X165439669Y-110345000D03*
X165439669Y-108055000D03*
X165439669Y-105765000D03*
X165439669Y-103475000D03*
X165439669Y-101185000D03*
X167419669Y-109200000D03*
X167419669Y-106910000D03*
X167419669Y-104620000D03*
X167419669Y-102330000D03*
X167419669Y-100040000D03*
%TD*%
D15*
%TO.C,W831*%
X124200000Y-91160000D03*
D16*
X124200000Y-93700000D03*
X124200000Y-96240000D03*
X124200000Y-98780000D03*
X124200000Y-101320000D03*
X124200000Y-103860000D03*
X124200000Y-106400000D03*
X124200000Y-108940000D03*
X124200000Y-111480000D03*
X124200000Y-114020000D03*
X124200000Y-116560000D03*
X124200000Y-119100000D03*
%TD*%
D17*
%TO.C,C816*%
X147300000Y-118000000D03*
X141700000Y-118000000D03*
%TD*%
M02*
