M48
; DRILL file {KiCad 8.0.0} date 2025-10-24T15:06:26+0300
; FORMAT={-:-/ absolute / inch / decimal}
; #@! TF.CreationDate,2025-10-24T15:06:26+03:00
; #@! TF.GenerationSoftware,Kicad,Pcbnew,8.0.0
; #@! TF.FileFunction,Plated,1,2,PTH
FMAT,2
INCH
; #@! TA.AperFunction,Plated,PTH,ViaDrill
T1C0.0118
; #@! TA.AperFunction,Plated,PTH,ViaDrill
T2C0.0138
; #@! TA.AperFunction,Plated,PTH,ComponentDrill
T3C0.0394
; #@! TA.AperFunction,Plated,PTH,ComponentDrill
T4C0.0787
%
G90
G05
T1
X5.7913Y-4.5827
T2
X6.0237Y-3.6763
X6.0237Y-4.5523
T3
X4.9213Y-3.5889
X4.9213Y-3.6889
X4.9213Y-3.7889
X4.9213Y-3.8889
X4.9213Y-3.9889
X4.9213Y-4.0889
X4.9213Y-4.1889
X4.9213Y-4.2889
X4.9213Y-4.3889
X4.9213Y-4.4889
X4.9213Y-4.5889
X4.9213Y-4.6889
X6.4354Y-3.9386
X6.4354Y-4.0287
X6.4354Y-4.1189
X6.4354Y-4.2091
X6.4354Y-4.2992
X6.5134Y-3.9837
X6.5134Y-4.0738
X6.5134Y-4.164
X6.5134Y-4.2541
X6.5134Y-4.3443
X6.5913Y-3.9386
X6.5913Y-4.0287
X6.5913Y-4.1189
X6.5913Y-4.2091
X6.5913Y-4.2992
T4
G00X6.4913Y-3.6608
M15
G01X6.4913Y-3.6136
M16
G05
G00X6.4913Y-4.6451
M15
G01X6.4913Y-4.5978
M16
G05
M30
