%TF.GenerationSoftware,KiCad,Pcbnew,8.0.0*%
%TF.CreationDate,2026-06-22T15:27:44+03:00*%
%TF.ProjectId,Loewe VGA,4c6f6577-6520-4564-9741-2e6b69636164,rev?*%
%TF.SameCoordinates,Original*%
%TF.FileFunction,Copper,L2,Bot*%
%TF.FilePolarity,Positive*%
%FSLAX46Y46*%
G04 Gerber Fmt 4.6, Leading zero omitted, Abs format (unit mm)*
G04 Created by KiCad (PCBNEW 8.0.0) date 2026-06-22 15:27:44*
%MOMM*%
%LPD*%
G01*
G04 APERTURE LIST*
G04 Aperture macros list*
%AMRoundRect*
0 Rectangle with rounded corners*
0 $1 Rounding radius*
0 $2 $3 $4 $5 $6 $7 $8 $9 X,Y pos of 4 corners*
0 Add a 4 corners polygon primitive as box body*
4,1,4,$2,$3,$4,$5,$6,$7,$8,$9,$2,$3,0*
0 Add four circle primitives for the rounded corners*
1,1,$1+$1,$2,$3*
1,1,$1+$1,$4,$5*
1,1,$1+$1,$6,$7*
1,1,$1+$1,$8,$9*
0 Add four rect primitives between the rounded corners*
20,1,$1+$1,$2,$3,$4,$5,0*
20,1,$1+$1,$4,$5,$6,$7,0*
20,1,$1+$1,$6,$7,$8,$9,0*
20,1,$1+$1,$8,$9,$2,$3,0*%
G04 Aperture macros list end*
%TA.AperFunction,SMDPad,CuDef*%
%ADD10RoundRect,0.250000X-0.350000X-0.450000X0.350000X-0.450000X0.350000X0.450000X-0.350000X0.450000X0*%
%TD*%
%TA.AperFunction,SMDPad,CuDef*%
%ADD11RoundRect,0.150000X0.150000X-0.825000X0.150000X0.825000X-0.150000X0.825000X-0.150000X-0.825000X0*%
%TD*%
%TA.AperFunction,ComponentPad*%
%ADD12C,4.000000*%
%TD*%
%TA.AperFunction,ComponentPad*%
%ADD13R,1.600000X1.600000*%
%TD*%
%TA.AperFunction,ComponentPad*%
%ADD14C,1.600000*%
%TD*%
%TA.AperFunction,ComponentPad*%
%ADD15RoundRect,0.250000X-0.725000X0.600000X-0.725000X-0.600000X0.725000X-0.600000X0.725000X0.600000X0*%
%TD*%
%TA.AperFunction,ComponentPad*%
%ADD16O,1.950000X1.700000*%
%TD*%
%TA.AperFunction,SMDPad,CuDef*%
%ADD17RoundRect,0.250000X1.500000X0.550000X-1.500000X0.550000X-1.500000X-0.550000X1.500000X-0.550000X0*%
%TD*%
%TA.AperFunction,ViaPad*%
%ADD18C,0.756400*%
%TD*%
%TA.AperFunction,ViaPad*%
%ADD19C,0.600000*%
%TD*%
%TA.AperFunction,Conductor*%
%ADD20C,0.500000*%
%TD*%
%TA.AperFunction,Conductor*%
%ADD21C,0.200000*%
%TD*%
%TA.AperFunction,Conductor*%
%ADD22C,0.300000*%
%TD*%
G04 APERTURE END LIST*
D10*
%TO.P,R2,1*%
%TO.N,/SCL*%
X155250000Y-102200000D03*
%TO.P,R2,2*%
%TO.N,/VGA_+5V*%
X157250000Y-102200000D03*
%TD*%
D11*
%TO.P,U2,1,A0*%
%TO.N,unconnected-(U2-A0-Pad1)*%
X157655000Y-110375000D03*
%TO.P,U2,2,A1*%
%TO.N,unconnected-(U2-A1-Pad2)*%
X156385000Y-110375000D03*
%TO.P,U2,3,A2*%
%TO.N,unconnected-(U2-A2-Pad3)*%
X155115000Y-110375000D03*
%TO.P,U2,4,GND*%
%TO.N,GND*%
X153845000Y-110375000D03*
%TO.P,U2,5,SDA*%
%TO.N,/SDA*%
X153845000Y-105425000D03*
%TO.P,U2,6,SCL*%
%TO.N,/SCL*%
X155115000Y-105425000D03*
%TO.P,U2,7,WP*%
%TO.N,/VGA_+5V*%
X156385000Y-105425000D03*
%TO.P,U2,8,VCC*%
X157655000Y-105425000D03*
%TD*%
D10*
%TO.P,R1,1*%
%TO.N,/SDA*%
X155250000Y-99500000D03*
%TO.P,R1,2*%
%TO.N,/VGA_+5V*%
X157250000Y-99500000D03*
%TD*%
D12*
%TO.P,W801,0*%
%TO.N,unconnected-(W801-Pad0)*%
X165509669Y-92385000D03*
%TO.N,unconnected-(W801-Pad0)_0*%
X165509669Y-117385000D03*
D13*
%TO.P,W801,1*%
%TO.N,/RED*%
X163459669Y-109200000D03*
D14*
%TO.P,W801,2*%
%TO.N,/GREEN*%
X163459669Y-106910000D03*
%TO.P,W801,3*%
%TO.N,/BLUE*%
X163459669Y-104620000D03*
%TO.P,W801,4*%
%TO.N,unconnected-(W801-Pad4)*%
X163459669Y-102330000D03*
%TO.P,W801,5*%
%TO.N,GND*%
X163459669Y-100040000D03*
%TO.P,W801,6*%
X165439669Y-110345000D03*
%TO.P,W801,7*%
X165439669Y-108055000D03*
%TO.P,W801,8*%
X165439669Y-105765000D03*
%TO.P,W801,9*%
%TO.N,/VGA_+5V*%
X165439669Y-103475000D03*
%TO.P,W801,10*%
%TO.N,GND*%
X165439669Y-101185000D03*
%TO.P,W801,11*%
%TO.N,unconnected-(W801-Pad11)*%
X167419669Y-109200000D03*
%TO.P,W801,12*%
%TO.N,/SDA*%
X167419669Y-106910000D03*
%TO.P,W801,13*%
%TO.N,/HSYNC*%
X167419669Y-104620000D03*
%TO.P,W801,14*%
%TO.N,/VSYNC*%
X167419669Y-102330000D03*
%TO.P,W801,15*%
%TO.N,/SCL*%
X167419669Y-100040000D03*
%TD*%
D15*
%TO.P,W831,1,Pin_1*%
%TO.N,GND*%
X124200000Y-91160000D03*
D16*
%TO.P,W831,2,Pin_2*%
%TO.N,VCC*%
X124200000Y-93700000D03*
%TO.P,W831,3,Pin_3*%
%TO.N,GND*%
X124200000Y-96240000D03*
%TO.P,W831,4,Pin_4*%
%TO.N,Net-(W831-Pin_4)*%
X124200000Y-98780000D03*
%TO.P,W831,5,Pin_5*%
%TO.N,GND*%
X124200000Y-101320000D03*
%TO.P,W831,6,Pin_6*%
%TO.N,Net-(W831-Pin_6)*%
X124200000Y-103860000D03*
%TO.P,W831,7,Pin_7*%
%TO.N,GND*%
X124200000Y-106400000D03*
%TO.P,W831,8,Pin_8*%
%TO.N,/BLUE*%
X124200000Y-108940000D03*
%TO.P,W831,9,Pin_9*%
%TO.N,GND*%
X124200000Y-111480000D03*
%TO.P,W831,10,Pin_10*%
%TO.N,/GREEN*%
X124200000Y-114020000D03*
%TO.P,W831,11,Pin_11*%
%TO.N,GND*%
X124200000Y-116560000D03*
%TO.P,W831,12,Pin_12*%
%TO.N,/RED*%
X124200000Y-119100000D03*
%TD*%
D17*
%TO.P,C816,1*%
%TO.N,Net-(C816-Pad1)*%
X147300000Y-118000000D03*
%TO.P,C816,2*%
%TO.N,GND*%
X141700000Y-118000000D03*
%TD*%
D18*
%TO.N,VCC*%
X153001100Y-93378600D03*
X153001100Y-115628600D03*
D19*
%TO.N,Net-(C816-Pad1)*%
X147100000Y-116400000D03*
%TD*%
D20*
%TO.N,VCC*%
X153001100Y-93378600D02*
X153001100Y-115628600D01*
D21*
%TO.N,Net-(C816-Pad1)*%
X147100000Y-117800000D02*
X147300000Y-118000000D01*
D22*
X147100000Y-116400000D02*
X147100000Y-117800000D01*
D21*
%TO.N,/SDA*%
X153850000Y-100100000D02*
X154450000Y-99500000D01*
X154450000Y-99500000D02*
X155250000Y-99500000D01*
X163850000Y-108050000D02*
X155000000Y-108050000D01*
X164990000Y-106910000D02*
X163850000Y-108050000D01*
X153845000Y-106895000D02*
X153845000Y-105425000D01*
X153845000Y-105425000D02*
X153850000Y-105420000D01*
X155000000Y-108050000D02*
X153845000Y-106895000D01*
X153850000Y-105420000D02*
X153850000Y-100100000D01*
X167419669Y-106910000D02*
X164990000Y-106910000D01*
%TO.N,/VGA_+5V*%
X157655000Y-105425000D02*
X157655000Y-103955000D01*
X156385000Y-105425000D02*
X157655000Y-105425000D01*
X160925000Y-103475000D02*
X158975000Y-105425000D01*
X158975000Y-105425000D02*
X157655000Y-105425000D01*
X165439669Y-103475000D02*
X160925000Y-103475000D01*
X157250000Y-103550000D02*
X157250000Y-102200000D01*
X157655000Y-103955000D02*
X157250000Y-103550000D01*
X157250000Y-102200000D02*
X157250000Y-99500000D01*
%TO.N,/SCL*%
X155650000Y-107300000D02*
X155115000Y-106765000D01*
X159450000Y-107300000D02*
X155650000Y-107300000D01*
X164950000Y-104650000D02*
X163850000Y-105750000D01*
X165851494Y-104650000D02*
X164950000Y-104650000D01*
X166933894Y-103567600D02*
X165851494Y-104650000D01*
X155250000Y-103600000D02*
X155250000Y-102200000D01*
X167832400Y-103567600D02*
X166933894Y-103567600D01*
X168600000Y-101220331D02*
X168600000Y-102800000D01*
X155115000Y-105425000D02*
X155115000Y-103735000D01*
X163850000Y-105750000D02*
X161000000Y-105750000D01*
X155115000Y-103735000D02*
X155250000Y-103600000D01*
X167419669Y-100040000D02*
X168600000Y-101220331D01*
X161000000Y-105750000D02*
X159450000Y-107300000D01*
X168600000Y-102800000D02*
X167832400Y-103567600D01*
X155115000Y-106765000D02*
X155115000Y-105425000D01*
%TD*%
%TA.AperFunction,Conductor*%
%TO.N,GND*%
G36*
X165039570Y-108362007D02*
G01*
X165132662Y-108455099D01*
X165232695Y-108512853D01*
X164755763Y-108989784D01*
X164755764Y-108989785D01*
X164922721Y-109093161D01*
X165017497Y-109129878D01*
X165056215Y-109163745D01*
X165064106Y-109214576D01*
X165037477Y-109258587D01*
X165017497Y-109270122D01*
X164922722Y-109306838D01*
X164922715Y-109306841D01*
X164755764Y-109410212D01*
X164755763Y-109410214D01*
X165232695Y-109887146D01*
X165132662Y-109944901D01*
X165039570Y-110037993D01*
X164981815Y-110138026D01*
X164507253Y-109663464D01*
X164492974Y-109664456D01*
X164443535Y-109650251D01*
X164414792Y-109607590D01*
X164412568Y-109589442D01*
X164412568Y-108810561D01*
X164430161Y-108762224D01*
X164474710Y-108736504D01*
X164492976Y-108735543D01*
X164507253Y-108736534D01*
X164981814Y-108261972D01*
X165039570Y-108362007D01*
G37*
%TD.AperFunction*%
%TA.AperFunction,Conductor*%
G36*
X164255555Y-105789978D02*
G01*
X164285060Y-105832114D01*
X164287301Y-105844639D01*
X164299669Y-105978102D01*
X164299670Y-105978111D01*
X164358234Y-106183940D01*
X164358240Y-106183956D01*
X164453629Y-106375524D01*
X164507253Y-106446534D01*
X164981814Y-105971972D01*
X165039570Y-106072007D01*
X165132662Y-106165099D01*
X165232696Y-106222853D01*
X164755763Y-106699785D01*
X164758161Y-106720447D01*
X164760483Y-106723394D01*
X164758904Y-106774809D01*
X164742236Y-106800107D01*
X164542284Y-107000059D01*
X164495664Y-107021799D01*
X164445977Y-107008485D01*
X164416472Y-106966348D01*
X164414272Y-106939519D01*
X164417180Y-106910000D01*
X164398782Y-106723199D01*
X164344294Y-106543576D01*
X164317142Y-106492779D01*
X164255815Y-106378044D01*
X164255809Y-106378034D01*
X164222515Y-106337465D01*
X164136732Y-106232937D01*
X163991634Y-106113859D01*
X163975025Y-106104981D01*
X163940691Y-106066680D01*
X163939007Y-106015268D01*
X163970765Y-105974802D01*
X163981697Y-105969186D01*
X163993257Y-105964399D01*
X164064399Y-105893257D01*
X164071619Y-105886037D01*
X164071627Y-105886025D01*
X164159250Y-105798402D01*
X164205867Y-105776664D01*
X164255555Y-105789978D01*
G37*
%TD.AperFunction*%
%TA.AperFunction,Conductor*%
G36*
X170447638Y-88143093D02*
G01*
X170473358Y-88187642D01*
X170474500Y-88200700D01*
X170474500Y-121799300D01*
X170456907Y-121847638D01*
X170412358Y-121873358D01*
X170399300Y-121874500D01*
X121300700Y-121874500D01*
X121252362Y-121856907D01*
X121226642Y-121812358D01*
X121225500Y-121799300D01*
X121225500Y-119198777D01*
X123072100Y-119198777D01*
X123110641Y-119392537D01*
X123110642Y-119392538D01*
X123186240Y-119575049D01*
X123186241Y-119575051D01*
X123295996Y-119739312D01*
X123295997Y-119739313D01*
X123296000Y-119739317D01*
X123435682Y-119878999D01*
X123435685Y-119879001D01*
X123435688Y-119879004D01*
X123599949Y-119988759D01*
X123782461Y-120064357D01*
X123782462Y-120064358D01*
X123782463Y-120064358D01*
X123782465Y-120064359D01*
X123912218Y-120090168D01*
X123976222Y-120102900D01*
X123976223Y-120102900D01*
X124423778Y-120102900D01*
X124471889Y-120093329D01*
X124617535Y-120064359D01*
X124800051Y-119988759D01*
X124964312Y-119879004D01*
X125104004Y-119739312D01*
X125213759Y-119575051D01*
X125289359Y-119392535D01*
X125327900Y-119198777D01*
X125327900Y-119001223D01*
X125289359Y-118807465D01*
X125213759Y-118624949D01*
X125104004Y-118460688D01*
X125104001Y-118460685D01*
X125103999Y-118460682D01*
X124964317Y-118321000D01*
X124964313Y-118320997D01*
X124964312Y-118320996D01*
X124800051Y-118211241D01*
X124718351Y-118177400D01*
X139595200Y-118177400D01*
X139595200Y-118589639D01*
X139610767Y-118707886D01*
X139671707Y-118855008D01*
X139671709Y-118855011D01*
X139768650Y-118981349D01*
X139894988Y-119078290D01*
X139894991Y-119078292D01*
X140042113Y-119139232D01*
X140160361Y-119154800D01*
X141522600Y-119154800D01*
X141522600Y-118177400D01*
X141877400Y-118177400D01*
X141877400Y-119154800D01*
X143239639Y-119154800D01*
X143357886Y-119139232D01*
X143505008Y-119078292D01*
X143505011Y-119078290D01*
X143631349Y-118981349D01*
X143728290Y-118855011D01*
X143728292Y-118855008D01*
X143789232Y-118707886D01*
X143804800Y-118589639D01*
X143804800Y-118581710D01*
X145397100Y-118581710D01*
X145412043Y-118676056D01*
X145469984Y-118789771D01*
X145560229Y-118880016D01*
X145673943Y-118937956D01*
X145673945Y-118937957D01*
X145768292Y-118952900D01*
X145768296Y-118952900D01*
X148831704Y-118952900D01*
X148831708Y-118952900D01*
X148926055Y-118937957D01*
X149039771Y-118880016D01*
X149130016Y-118789771D01*
X149187957Y-118676055D01*
X149202900Y-118581708D01*
X149202900Y-117418292D01*
X149197627Y-117385000D01*
X163351738Y-117385000D01*
X163371837Y-117678838D01*
X163371837Y-117678842D01*
X163371838Y-117678844D01*
X163371838Y-117678846D01*
X163431758Y-117967196D01*
X163431762Y-117967208D01*
X163530388Y-118244719D01*
X163530389Y-118244720D01*
X163665894Y-118506232D01*
X163835730Y-118746834D01*
X163835733Y-118746837D01*
X163835738Y-118746844D01*
X164014223Y-118937956D01*
X164028178Y-118952899D01*
X164036766Y-118962094D01*
X164179591Y-119078290D01*
X164265238Y-119147969D01*
X164516877Y-119300993D01*
X164516884Y-119300997D01*
X164787012Y-119418330D01*
X164787015Y-119418331D01*
X164787022Y-119418334D01*
X165070625Y-119497796D01*
X165362407Y-119537900D01*
X165362412Y-119537900D01*
X165656926Y-119537900D01*
X165656931Y-119537900D01*
X165948713Y-119497796D01*
X166232316Y-119418334D01*
X166502458Y-119300995D01*
X166676215Y-119195330D01*
X166754099Y-119147969D01*
X166754100Y-119147967D01*
X166754105Y-119147965D01*
X166982572Y-118962094D01*
X167183600Y-118746844D01*
X167294568Y-118589639D01*
X167353443Y-118506232D01*
X167353443Y-118506230D01*
X167353447Y-118506226D01*
X167488948Y-118244722D01*
X167587578Y-117967203D01*
X167647501Y-117678838D01*
X167667600Y-117385000D01*
X167647501Y-117091162D01*
X167587578Y-116802797D01*
X167490239Y-116528911D01*
X167488949Y-116525280D01*
X167488948Y-116525279D01*
X167488948Y-116525278D01*
X167353447Y-116263774D01*
X167353445Y-116263772D01*
X167353443Y-116263767D01*
X167183607Y-116023165D01*
X167183604Y-116023162D01*
X167183600Y-116023156D01*
X166982572Y-115807906D01*
X166777454Y-115641031D01*
X166754099Y-115622030D01*
X166502460Y-115469006D01*
X166502453Y-115469002D01*
X166232325Y-115351669D01*
X166232316Y-115351666D01*
X165948712Y-115272203D01*
X165786313Y-115249883D01*
X165656931Y-115232100D01*
X165362407Y-115232100D01*
X165243563Y-115248434D01*
X165070625Y-115272203D01*
X164787021Y-115351666D01*
X164787012Y-115351669D01*
X164516884Y-115469002D01*
X164516877Y-115469006D01*
X164265238Y-115622030D01*
X164036763Y-115807908D01*
X163954078Y-115896444D01*
X163835738Y-116023156D01*
X163835735Y-116023159D01*
X163835735Y-116023160D01*
X163835730Y-116023165D01*
X163665894Y-116263767D01*
X163530389Y-116525279D01*
X163530388Y-116525280D01*
X163431762Y-116802791D01*
X163431758Y-116802803D01*
X163371838Y-117091153D01*
X163371838Y-117091155D01*
X163371837Y-117091162D01*
X163351738Y-117385000D01*
X149197627Y-117385000D01*
X149187957Y-117323945D01*
X149130016Y-117210229D01*
X149039771Y-117119984D01*
X148926055Y-117062043D01*
X148926057Y-117062043D01*
X148831710Y-117047100D01*
X148831708Y-117047100D01*
X147478100Y-117047100D01*
X147429762Y-117029507D01*
X147404042Y-116984958D01*
X147402900Y-116971900D01*
X147402900Y-116770080D01*
X147420493Y-116721742D01*
X147421268Y-116720834D01*
X147484919Y-116647376D01*
X147484921Y-116647374D01*
X147539023Y-116528909D01*
X147557557Y-116400000D01*
X147539023Y-116271091D01*
X147535681Y-116263774D01*
X147484921Y-116152626D01*
X147484919Y-116152623D01*
X147399633Y-116054198D01*
X147290073Y-115983790D01*
X147165117Y-115947100D01*
X147034883Y-115947100D01*
X146909926Y-115983790D01*
X146800366Y-116054198D01*
X146715080Y-116152623D01*
X146715078Y-116152626D01*
X146660977Y-116271088D01*
X146642443Y-116400000D01*
X146660977Y-116528911D01*
X146715078Y-116647373D01*
X146715080Y-116647376D01*
X146778732Y-116720834D01*
X146797091Y-116768887D01*
X146797100Y-116770080D01*
X146797100Y-116971900D01*
X146779507Y-117020238D01*
X146734958Y-117045958D01*
X146721900Y-117047100D01*
X145768289Y-117047100D01*
X145673943Y-117062043D01*
X145560228Y-117119984D01*
X145469984Y-117210228D01*
X145412043Y-117323943D01*
X145397100Y-117418289D01*
X145397100Y-118581710D01*
X143804800Y-118581710D01*
X143804800Y-118177400D01*
X141877400Y-118177400D01*
X141522600Y-118177400D01*
X139595200Y-118177400D01*
X124718351Y-118177400D01*
X124617538Y-118135642D01*
X124617537Y-118135641D01*
X124423778Y-118097100D01*
X124423777Y-118097100D01*
X123976223Y-118097100D01*
X123976222Y-118097100D01*
X123782462Y-118135641D01*
X123782461Y-118135642D01*
X123599950Y-118211240D01*
X123435682Y-118321000D01*
X123296000Y-118460682D01*
X123186240Y-118624950D01*
X123110642Y-118807461D01*
X123110641Y-118807462D01*
X123072100Y-119001222D01*
X123072100Y-119198777D01*
X121225500Y-119198777D01*
X121225500Y-117822600D01*
X139595200Y-117822600D01*
X141522600Y-117822600D01*
X141522600Y-116845200D01*
X141877400Y-116845200D01*
X141877400Y-117822600D01*
X143804800Y-117822600D01*
X143804800Y-117410360D01*
X143789232Y-117292113D01*
X143728292Y-117144991D01*
X143728290Y-117144988D01*
X143631349Y-117018650D01*
X143505011Y-116921709D01*
X143505008Y-116921707D01*
X143357886Y-116860767D01*
X143239639Y-116845200D01*
X141877400Y-116845200D01*
X141522600Y-116845200D01*
X140160361Y-116845200D01*
X140042113Y-116860767D01*
X139894991Y-116921707D01*
X139894988Y-116921709D01*
X139768650Y-117018650D01*
X139671709Y-117144988D01*
X139671707Y-117144991D01*
X139610767Y-117292113D01*
X139595200Y-117410360D01*
X139595200Y-117822600D01*
X121225500Y-117822600D01*
X121225500Y-116737400D01*
X122883280Y-116737400D01*
X122899866Y-116842122D01*
X122899869Y-116842137D01*
X122958464Y-117022471D01*
X122958470Y-117022485D01*
X123044564Y-117191454D01*
X123156031Y-117344875D01*
X123156038Y-117344883D01*
X123290116Y-117478961D01*
X123290124Y-117478968D01*
X123443545Y-117590435D01*
X123612514Y-117676529D01*
X123612516Y-117676530D01*
X123792882Y-117735134D01*
X123980177Y-117764799D01*
X123980184Y-117764800D01*
X124022600Y-117764800D01*
X124022600Y-117004222D01*
X124137465Y-117035000D01*
X124262535Y-117035000D01*
X124377400Y-117004222D01*
X124377400Y-117764800D01*
X124419816Y-117764800D01*
X124419822Y-117764799D01*
X124607117Y-117735134D01*
X124607118Y-117735134D01*
X124787483Y-117676530D01*
X124787485Y-117676529D01*
X124956454Y-117590435D01*
X125109875Y-117478968D01*
X125109883Y-117478961D01*
X125243961Y-117344883D01*
X125243968Y-117344875D01*
X125355435Y-117191454D01*
X125441529Y-117022485D01*
X125441535Y-117022471D01*
X125500130Y-116842137D01*
X125500133Y-116842122D01*
X125516720Y-116737400D01*
X124644222Y-116737400D01*
X124675000Y-116622535D01*
X124675000Y-116497465D01*
X124644222Y-116382600D01*
X125516719Y-116382600D01*
X125500133Y-116277877D01*
X125500130Y-116277862D01*
X125441535Y-116097528D01*
X125441529Y-116097514D01*
X125355435Y-115928545D01*
X125243968Y-115775124D01*
X125243961Y-115775116D01*
X125109883Y-115641038D01*
X125109875Y-115641031D01*
X125092765Y-115628600D01*
X152465417Y-115628600D01*
X152483670Y-115767246D01*
X152537186Y-115896444D01*
X152622314Y-116007385D01*
X152683326Y-116054201D01*
X152733258Y-116092515D01*
X152862455Y-116146030D01*
X153001100Y-116164283D01*
X153139745Y-116146030D01*
X153268942Y-116092515D01*
X153379885Y-116007385D01*
X153465015Y-115896442D01*
X153518530Y-115767245D01*
X153536783Y-115628600D01*
X153518530Y-115489955D01*
X153465015Y-115360759D01*
X153465013Y-115360757D01*
X153465011Y-115360752D01*
X153419540Y-115301493D01*
X153404000Y-115255715D01*
X153404000Y-111738540D01*
X153421593Y-111690202D01*
X153466142Y-111664482D01*
X153505480Y-111668082D01*
X153586585Y-111698333D01*
X153586595Y-111698336D01*
X153646719Y-111704799D01*
X153667599Y-111704799D01*
X153667600Y-111704798D01*
X153667600Y-110552400D01*
X154022400Y-110552400D01*
X154022400Y-111704799D01*
X154043272Y-111704799D01*
X154043287Y-111704798D01*
X154103406Y-111698335D01*
X154239413Y-111647607D01*
X154355617Y-111560617D01*
X154442607Y-111444413D01*
X154493335Y-111308407D01*
X154493336Y-111308404D01*
X154499799Y-111248286D01*
X154499800Y-111248275D01*
X154499800Y-111245223D01*
X154662100Y-111245223D01*
X154665037Y-111270548D01*
X154710780Y-111374145D01*
X154710782Y-111374148D01*
X154790851Y-111454217D01*
X154790854Y-111454219D01*
X154790855Y-111454220D01*
X154894450Y-111499962D01*
X154919774Y-111502900D01*
X154919776Y-111502900D01*
X155310224Y-111502900D01*
X155310226Y-111502900D01*
X155335550Y-111499962D01*
X155439145Y-111454220D01*
X155519220Y-111374145D01*
X155564962Y-111270550D01*
X155567900Y-111245226D01*
X155567900Y-111245223D01*
X155932100Y-111245223D01*
X155935037Y-111270548D01*
X155980780Y-111374145D01*
X155980782Y-111374148D01*
X156060851Y-111454217D01*
X156060854Y-111454219D01*
X156060855Y-111454220D01*
X156164450Y-111499962D01*
X156189774Y-111502900D01*
X156189776Y-111502900D01*
X156580224Y-111502900D01*
X156580226Y-111502900D01*
X156605550Y-111499962D01*
X156709145Y-111454220D01*
X156789220Y-111374145D01*
X156834962Y-111270550D01*
X156837900Y-111245226D01*
X156837900Y-111245223D01*
X157202100Y-111245223D01*
X157205037Y-111270548D01*
X157250780Y-111374145D01*
X157250782Y-111374148D01*
X157330851Y-111454217D01*
X157330854Y-111454219D01*
X157330855Y-111454220D01*
X157434450Y-111499962D01*
X157459774Y-111502900D01*
X157459776Y-111502900D01*
X157850224Y-111502900D01*
X157850226Y-111502900D01*
X157875550Y-111499962D01*
X157979145Y-111454220D01*
X158059220Y-111374145D01*
X158104962Y-111270550D01*
X158107900Y-111245226D01*
X158107900Y-109504774D01*
X158104962Y-109479450D01*
X158059220Y-109375855D01*
X158059219Y-109375854D01*
X158059217Y-109375851D01*
X157979148Y-109295782D01*
X157979145Y-109295780D01*
X157875548Y-109250037D01*
X157856100Y-109247781D01*
X157850226Y-109247100D01*
X157459774Y-109247100D01*
X157454510Y-109247710D01*
X157434451Y-109250037D01*
X157330854Y-109295780D01*
X157330851Y-109295782D01*
X157250782Y-109375851D01*
X157250780Y-109375854D01*
X157205037Y-109479451D01*
X157202100Y-109504776D01*
X157202100Y-111245223D01*
X156837900Y-111245223D01*
X156837900Y-109504774D01*
X156834962Y-109479450D01*
X156789220Y-109375855D01*
X156789219Y-109375854D01*
X156789217Y-109375851D01*
X156709148Y-109295782D01*
X156709145Y-109295780D01*
X156605548Y-109250037D01*
X156586100Y-109247781D01*
X156580226Y-109247100D01*
X156189774Y-109247100D01*
X156184510Y-109247710D01*
X156164451Y-109250037D01*
X156060854Y-109295780D01*
X156060851Y-109295782D01*
X155980782Y-109375851D01*
X155980780Y-109375854D01*
X155935037Y-109479451D01*
X155932100Y-109504776D01*
X155932100Y-111245223D01*
X155567900Y-111245223D01*
X155567900Y-109504774D01*
X155564962Y-109479450D01*
X155519220Y-109375855D01*
X155519219Y-109375854D01*
X155519217Y-109375851D01*
X155439148Y-109295782D01*
X155439145Y-109295780D01*
X155335548Y-109250037D01*
X155316100Y-109247781D01*
X155310226Y-109247100D01*
X154919774Y-109247100D01*
X154914510Y-109247710D01*
X154894451Y-109250037D01*
X154790854Y-109295780D01*
X154790851Y-109295782D01*
X154710782Y-109375851D01*
X154710780Y-109375854D01*
X154665037Y-109479451D01*
X154662100Y-109504776D01*
X154662100Y-111245223D01*
X154499800Y-111245223D01*
X154499800Y-110552400D01*
X154022400Y-110552400D01*
X153667600Y-110552400D01*
X153667600Y-109045200D01*
X154022400Y-109045200D01*
X154022400Y-110197600D01*
X154499799Y-110197600D01*
X154499799Y-109501727D01*
X154499798Y-109501712D01*
X154493335Y-109441593D01*
X154442607Y-109305586D01*
X154355617Y-109189382D01*
X154239413Y-109102392D01*
X154103407Y-109051664D01*
X154103404Y-109051663D01*
X154043286Y-109045200D01*
X154022400Y-109045200D01*
X153667600Y-109045200D01*
X153646728Y-109045200D01*
X153646710Y-109045201D01*
X153586593Y-109051664D01*
X153505480Y-109081918D01*
X153454041Y-109082326D01*
X153414375Y-109049574D01*
X153404000Y-109011459D01*
X153404000Y-106566837D01*
X153421593Y-106518499D01*
X153466142Y-106492779D01*
X153516800Y-106501712D01*
X153520610Y-106504112D01*
X153520855Y-106504220D01*
X153547273Y-106515884D01*
X153584387Y-106551502D01*
X153592100Y-106584677D01*
X153592100Y-106838626D01*
X153592099Y-106838640D01*
X153592099Y-106844695D01*
X153592099Y-106945305D01*
X153606222Y-106979399D01*
X153630601Y-107038258D01*
X153707928Y-107115585D01*
X153707941Y-107115595D01*
X154781308Y-108188963D01*
X154781321Y-108188978D01*
X154856738Y-108264395D01*
X154856741Y-108264397D01*
X154856743Y-108264399D01*
X154883968Y-108275675D01*
X154949695Y-108302901D01*
X155059057Y-108302901D01*
X155059065Y-108302900D01*
X162431879Y-108302900D01*
X162480217Y-108320493D01*
X162505937Y-108365042D01*
X162506556Y-108381249D01*
X162506769Y-108381249D01*
X162506769Y-110015055D01*
X162506770Y-110015057D01*
X162515641Y-110059659D01*
X162549433Y-110110232D01*
X162549434Y-110110232D01*
X162549435Y-110110234D01*
X162600011Y-110144028D01*
X162644612Y-110152900D01*
X164215232Y-110152899D01*
X164263570Y-110170492D01*
X164289290Y-110215041D01*
X164290111Y-110235037D01*
X164279922Y-110344996D01*
X164279922Y-110345002D01*
X164299669Y-110558102D01*
X164299670Y-110558111D01*
X164358234Y-110763940D01*
X164358240Y-110763956D01*
X164453629Y-110955524D01*
X164507253Y-111026534D01*
X164981815Y-110551972D01*
X165039570Y-110652007D01*
X165132662Y-110745099D01*
X165232695Y-110802853D01*
X164755763Y-111279784D01*
X164755764Y-111279785D01*
X164922721Y-111383161D01*
X165122288Y-111460473D01*
X165332664Y-111499799D01*
X165332665Y-111499800D01*
X165546673Y-111499800D01*
X165546673Y-111499799D01*
X165757049Y-111460473D01*
X165956615Y-111383161D01*
X165956616Y-111383161D01*
X166123572Y-111279785D01*
X166123573Y-111279784D01*
X165646642Y-110802853D01*
X165746676Y-110745099D01*
X165839768Y-110652007D01*
X165897522Y-110551973D01*
X166372083Y-111026534D01*
X166425710Y-110955521D01*
X166521097Y-110763956D01*
X166521103Y-110763940D01*
X166579667Y-110558111D01*
X166579668Y-110558102D01*
X166599416Y-110345002D01*
X166599416Y-110344997D01*
X166579668Y-110131897D01*
X166579667Y-110131888D01*
X166521103Y-109926059D01*
X166521097Y-109926043D01*
X166425708Y-109734475D01*
X166372083Y-109663464D01*
X165897521Y-110138025D01*
X165839768Y-110037993D01*
X165746676Y-109944901D01*
X165646642Y-109887146D01*
X166123573Y-109410214D01*
X165956616Y-109306838D01*
X165861840Y-109270122D01*
X165823122Y-109236255D01*
X165817494Y-109200000D01*
X166462158Y-109200000D01*
X166480555Y-109386799D01*
X166535045Y-109566427D01*
X166623522Y-109731955D01*
X166623528Y-109731965D01*
X166742606Y-109877063D01*
X166887704Y-109996141D01*
X166887710Y-109996144D01*
X166887713Y-109996146D01*
X167053241Y-110084623D01*
X167053242Y-110084623D01*
X167053245Y-110084625D01*
X167232868Y-110139113D01*
X167419669Y-110157511D01*
X167606470Y-110139113D01*
X167786093Y-110084625D01*
X167951634Y-109996141D01*
X168096732Y-109877063D01*
X168215810Y-109731965D01*
X168304294Y-109566424D01*
X168358782Y-109386801D01*
X168377180Y-109200000D01*
X168358782Y-109013199D01*
X168304294Y-108833576D01*
X168291993Y-108810562D01*
X168215815Y-108668044D01*
X168215809Y-108668034D01*
X168213747Y-108665521D01*
X168096732Y-108522937D01*
X167951634Y-108403859D01*
X167951624Y-108403853D01*
X167786096Y-108315376D01*
X167786097Y-108315376D01*
X167606467Y-108260886D01*
X167606468Y-108260886D01*
X167419669Y-108242489D01*
X167232869Y-108260886D01*
X167053241Y-108315376D01*
X166887713Y-108403853D01*
X166887703Y-108403859D01*
X166742606Y-108522937D01*
X166623528Y-108668034D01*
X166623522Y-108668044D01*
X166535045Y-108833572D01*
X166480555Y-109013200D01*
X166462158Y-109200000D01*
X165817494Y-109200000D01*
X165815231Y-109185424D01*
X165841860Y-109141413D01*
X165861840Y-109129878D01*
X165956615Y-109093161D01*
X165956616Y-109093161D01*
X166123572Y-108989785D01*
X166123573Y-108989784D01*
X165646642Y-108512853D01*
X165746676Y-108455099D01*
X165839768Y-108362007D01*
X165897522Y-108261973D01*
X166372083Y-108736534D01*
X166425710Y-108665521D01*
X166521097Y-108473956D01*
X166521103Y-108473940D01*
X166579667Y-108268111D01*
X166579668Y-108268102D01*
X166599416Y-108055002D01*
X166599416Y-108054997D01*
X166579668Y-107841897D01*
X166579667Y-107841888D01*
X166521103Y-107636059D01*
X166521097Y-107636043D01*
X166425708Y-107444475D01*
X166304084Y-107283418D01*
X166288994Y-107234241D01*
X166309045Y-107186870D01*
X166354854Y-107163470D01*
X166364095Y-107162900D01*
X166444835Y-107162900D01*
X166493173Y-107180493D01*
X166516797Y-107216271D01*
X166535041Y-107276418D01*
X166535046Y-107276429D01*
X166623522Y-107441955D01*
X166623528Y-107441965D01*
X166742606Y-107587063D01*
X166887704Y-107706141D01*
X166887710Y-107706144D01*
X166887713Y-107706146D01*
X167053241Y-107794623D01*
X167053242Y-107794623D01*
X167053245Y-107794625D01*
X167232868Y-107849113D01*
X167419669Y-107867511D01*
X167606470Y-107849113D01*
X167786093Y-107794625D01*
X167951634Y-107706141D01*
X168096732Y-107587063D01*
X168215810Y-107441965D01*
X168304294Y-107276424D01*
X168358782Y-107096801D01*
X168377180Y-106910000D01*
X168358782Y-106723199D01*
X168304294Y-106543576D01*
X168277142Y-106492779D01*
X168215815Y-106378044D01*
X168215809Y-106378034D01*
X168182515Y-106337465D01*
X168096732Y-106232937D01*
X167951634Y-106113859D01*
X167951632Y-106113858D01*
X167951624Y-106113853D01*
X167786096Y-106025376D01*
X167786097Y-106025376D01*
X167606467Y-105970886D01*
X167606468Y-105970886D01*
X167419669Y-105952489D01*
X167232869Y-105970886D01*
X167053241Y-106025376D01*
X166887713Y-106113853D01*
X166887703Y-106113859D01*
X166742606Y-106232937D01*
X166623528Y-106378034D01*
X166623522Y-106378044D01*
X166535046Y-106543570D01*
X166535041Y-106543581D01*
X166516797Y-106603729D01*
X166485930Y-106644878D01*
X166444835Y-106657100D01*
X166364095Y-106657100D01*
X166315757Y-106639507D01*
X166290037Y-106594958D01*
X166298970Y-106544300D01*
X166304084Y-106536582D01*
X166425708Y-106375524D01*
X166521097Y-106183956D01*
X166521103Y-106183940D01*
X166579667Y-105978111D01*
X166579668Y-105978102D01*
X166599416Y-105765002D01*
X166599416Y-105764997D01*
X166579668Y-105551897D01*
X166579667Y-105551888D01*
X166521103Y-105346059D01*
X166521097Y-105346043D01*
X166425708Y-105154475D01*
X166372083Y-105083464D01*
X165897522Y-105558026D01*
X165839768Y-105457993D01*
X165746676Y-105364901D01*
X165646641Y-105307145D01*
X166123573Y-104830214D01*
X166121603Y-104813237D01*
X166114004Y-104803591D01*
X166115592Y-104752176D01*
X166132253Y-104726893D01*
X166337911Y-104521235D01*
X166384530Y-104499496D01*
X166434217Y-104512810D01*
X166463722Y-104554947D01*
X166465922Y-104581780D01*
X166462158Y-104619999D01*
X166480555Y-104806799D01*
X166535045Y-104986427D01*
X166623522Y-105151955D01*
X166623528Y-105151965D01*
X166742606Y-105297063D01*
X166887704Y-105416141D01*
X166887710Y-105416144D01*
X166887713Y-105416146D01*
X167053241Y-105504623D01*
X167053242Y-105504623D01*
X167053245Y-105504625D01*
X167232868Y-105559113D01*
X167419669Y-105577511D01*
X167606470Y-105559113D01*
X167786093Y-105504625D01*
X167951634Y-105416141D01*
X168096732Y-105297063D01*
X168215810Y-105151965D01*
X168304294Y-104986424D01*
X168358782Y-104806801D01*
X168377180Y-104620000D01*
X168358782Y-104433199D01*
X168304294Y-104253576D01*
X168250034Y-104152063D01*
X168215815Y-104088044D01*
X168215809Y-104088034D01*
X168212784Y-104084348D01*
X168096732Y-103942937D01*
X168005973Y-103868453D01*
X167979769Y-103824190D01*
X167988148Y-103773437D01*
X168000502Y-103757153D01*
X168046799Y-103710857D01*
X168046799Y-103710855D01*
X168054022Y-103703633D01*
X168054029Y-103703623D01*
X168743255Y-103014399D01*
X168743257Y-103014399D01*
X168814399Y-102943257D01*
X168836553Y-102889771D01*
X168852901Y-102850305D01*
X168852901Y-102749695D01*
X168852901Y-102743640D01*
X168852900Y-102743626D01*
X168852900Y-101279396D01*
X168852901Y-101279387D01*
X168852901Y-101170026D01*
X168836952Y-101131524D01*
X168814399Y-101077074D01*
X168814398Y-101077072D01*
X168738980Y-101001654D01*
X168738960Y-101001637D01*
X168287807Y-100550484D01*
X168266067Y-100503864D01*
X168274662Y-100461859D01*
X168276223Y-100458940D01*
X168292708Y-100428100D01*
X168304289Y-100406434D01*
X168304292Y-100406427D01*
X168304294Y-100406424D01*
X168358782Y-100226801D01*
X168377180Y-100040000D01*
X168358782Y-99853199D01*
X168304294Y-99673576D01*
X168276223Y-99621059D01*
X168215815Y-99508044D01*
X168215809Y-99508034D01*
X168151341Y-99429479D01*
X168096732Y-99362937D01*
X167951634Y-99243859D01*
X167951624Y-99243853D01*
X167786096Y-99155376D01*
X167786097Y-99155376D01*
X167606467Y-99100886D01*
X167606468Y-99100886D01*
X167419669Y-99082489D01*
X167232869Y-99100886D01*
X167053241Y-99155376D01*
X166887713Y-99243853D01*
X166887703Y-99243859D01*
X166742606Y-99362937D01*
X166623528Y-99508034D01*
X166623522Y-99508044D01*
X166535045Y-99673572D01*
X166480555Y-99853200D01*
X166462158Y-100040000D01*
X166480555Y-100226799D01*
X166535045Y-100406427D01*
X166623522Y-100571955D01*
X166623528Y-100571965D01*
X166742606Y-100717063D01*
X166887704Y-100836141D01*
X166887710Y-100836144D01*
X166887713Y-100836146D01*
X167053241Y-100924623D01*
X167053242Y-100924623D01*
X167053245Y-100924625D01*
X167232868Y-100979113D01*
X167419669Y-100997511D01*
X167606470Y-100979113D01*
X167786093Y-100924625D01*
X167786100Y-100924620D01*
X167786103Y-100924620D01*
X167816937Y-100908138D01*
X167841529Y-100894992D01*
X167892451Y-100887721D01*
X167930153Y-100908138D01*
X168325074Y-101303059D01*
X168346814Y-101349679D01*
X168347100Y-101356233D01*
X168347100Y-101747843D01*
X168329507Y-101796181D01*
X168284958Y-101821901D01*
X168234300Y-101812968D01*
X168213771Y-101795551D01*
X168096732Y-101652937D01*
X167951634Y-101533859D01*
X167951624Y-101533853D01*
X167786096Y-101445376D01*
X167786097Y-101445376D01*
X167606467Y-101390886D01*
X167606468Y-101390886D01*
X167419669Y-101372489D01*
X167232869Y-101390886D01*
X167053241Y-101445376D01*
X166887713Y-101533853D01*
X166887703Y-101533859D01*
X166742606Y-101652937D01*
X166623528Y-101798034D01*
X166623522Y-101798044D01*
X166535045Y-101963572D01*
X166480555Y-102143200D01*
X166462158Y-102330000D01*
X166480555Y-102516799D01*
X166535045Y-102696427D01*
X166623522Y-102861955D01*
X166623528Y-102861965D01*
X166742606Y-103007063D01*
X166887704Y-103126141D01*
X166887710Y-103126144D01*
X166887713Y-103126146D01*
X166975704Y-103173179D01*
X167010041Y-103211481D01*
X167011723Y-103262893D01*
X166979965Y-103303359D01*
X166940255Y-103314699D01*
X166883587Y-103314699D01*
X166845086Y-103330647D01*
X166845085Y-103330646D01*
X166790638Y-103353199D01*
X166790634Y-103353202D01*
X166716868Y-103426969D01*
X166716858Y-103426980D01*
X166516113Y-103627725D01*
X166469493Y-103649465D01*
X166419806Y-103636151D01*
X166390301Y-103594014D01*
X166388101Y-103567180D01*
X166389823Y-103549695D01*
X166397180Y-103475000D01*
X166378782Y-103288199D01*
X166324294Y-103108576D01*
X166295145Y-103054042D01*
X166235815Y-102943044D01*
X166235809Y-102943034D01*
X166116732Y-102797937D01*
X165971634Y-102678859D01*
X165971624Y-102678853D01*
X165806096Y-102590376D01*
X165806097Y-102590376D01*
X165626467Y-102535886D01*
X165626468Y-102535886D01*
X165439669Y-102517489D01*
X165252869Y-102535886D01*
X165073241Y-102590376D01*
X164907713Y-102678853D01*
X164907703Y-102678859D01*
X164762606Y-102797937D01*
X164643528Y-102943034D01*
X164643522Y-102943044D01*
X164555046Y-103108570D01*
X164555041Y-103108581D01*
X164536797Y-103168729D01*
X164505930Y-103209878D01*
X164464835Y-103222100D01*
X164084877Y-103222100D01*
X164036539Y-103204507D01*
X164010819Y-103159958D01*
X164019752Y-103109300D01*
X164037168Y-103088772D01*
X164136732Y-103007063D01*
X164255810Y-102861965D01*
X164344294Y-102696424D01*
X164398782Y-102516801D01*
X164417180Y-102330000D01*
X164398782Y-102143199D01*
X164344294Y-101963576D01*
X164255810Y-101798035D01*
X164136732Y-101652937D01*
X163991634Y-101533859D01*
X163991624Y-101533853D01*
X163826096Y-101445376D01*
X163826097Y-101445376D01*
X163646467Y-101390886D01*
X163646468Y-101390886D01*
X163459669Y-101372489D01*
X163272869Y-101390886D01*
X163093241Y-101445376D01*
X162927713Y-101533853D01*
X162927703Y-101533859D01*
X162782606Y-101652937D01*
X162663528Y-101798034D01*
X162663522Y-101798044D01*
X162575045Y-101963572D01*
X162520555Y-102143200D01*
X162502158Y-102330000D01*
X162520555Y-102516799D01*
X162575045Y-102696427D01*
X162663522Y-102861955D01*
X162663528Y-102861965D01*
X162782606Y-103007063D01*
X162882168Y-103088770D01*
X162908372Y-103133034D01*
X162899993Y-103183787D01*
X162860951Y-103217280D01*
X162834461Y-103222100D01*
X160984065Y-103222100D01*
X160984057Y-103222099D01*
X160975305Y-103222099D01*
X160874695Y-103222099D01*
X160874694Y-103222099D01*
X160828218Y-103241350D01*
X160828217Y-103241349D01*
X160781744Y-103260599D01*
X160781743Y-103260600D01*
X160754833Y-103287511D01*
X160710601Y-103331743D01*
X160710600Y-103331744D01*
X159334953Y-104707393D01*
X158892272Y-105150074D01*
X158845652Y-105171814D01*
X158839098Y-105172100D01*
X158183100Y-105172100D01*
X158134762Y-105154507D01*
X158109042Y-105109958D01*
X158107900Y-105096900D01*
X158107900Y-104554776D01*
X158104962Y-104529451D01*
X158101335Y-104521236D01*
X158059220Y-104425855D01*
X158059219Y-104425854D01*
X158059217Y-104425851D01*
X157979148Y-104345782D01*
X157979142Y-104345778D01*
X157952724Y-104334113D01*
X157915612Y-104298494D01*
X157907900Y-104265321D01*
X157907900Y-104014065D01*
X157907901Y-104014056D01*
X157907901Y-103904696D01*
X157892889Y-103868455D01*
X157874417Y-103823859D01*
X157871879Y-103817731D01*
X157869399Y-103811742D01*
X157793978Y-103736321D01*
X157793963Y-103736308D01*
X157524926Y-103467271D01*
X157503186Y-103420651D01*
X157502900Y-103414097D01*
X157502900Y-103128100D01*
X157520493Y-103079762D01*
X157565042Y-103054042D01*
X157578100Y-103052900D01*
X157631704Y-103052900D01*
X157631708Y-103052900D01*
X157726055Y-103037957D01*
X157839771Y-102980016D01*
X157930016Y-102889771D01*
X157987957Y-102776055D01*
X158002900Y-102681708D01*
X158002900Y-101718292D01*
X157987957Y-101623945D01*
X157930016Y-101510229D01*
X157839771Y-101419984D01*
X157726055Y-101362043D01*
X157726057Y-101362043D01*
X157631710Y-101347100D01*
X157631708Y-101347100D01*
X157578100Y-101347100D01*
X157529762Y-101329507D01*
X157504042Y-101284958D01*
X157502900Y-101271900D01*
X157502900Y-100428100D01*
X157520493Y-100379762D01*
X157565042Y-100354042D01*
X157578100Y-100352900D01*
X157631704Y-100352900D01*
X157631708Y-100352900D01*
X157726055Y-100337957D01*
X157839771Y-100280016D01*
X157930016Y-100189771D01*
X157987957Y-100076055D01*
X157993668Y-100040000D01*
X162299922Y-100040000D01*
X162319669Y-100253102D01*
X162319670Y-100253111D01*
X162378234Y-100458940D01*
X162378240Y-100458956D01*
X162473629Y-100650524D01*
X162527253Y-100721534D01*
X163001815Y-100246972D01*
X163059570Y-100347007D01*
X163152662Y-100440099D01*
X163252696Y-100497853D01*
X162775764Y-100974785D01*
X162942721Y-101078161D01*
X163142288Y-101155473D01*
X163352664Y-101194799D01*
X163352665Y-101194800D01*
X163566673Y-101194800D01*
X163566673Y-101194799D01*
X163777049Y-101155473D01*
X163976615Y-101078161D01*
X163976616Y-101078161D01*
X164158575Y-100965496D01*
X164169880Y-100955190D01*
X164217453Y-100935624D01*
X164266473Y-100951215D01*
X164294003Y-100994668D01*
X164295424Y-101017698D01*
X164279922Y-101184996D01*
X164279922Y-101185002D01*
X164299669Y-101398102D01*
X164299670Y-101398111D01*
X164358234Y-101603940D01*
X164358240Y-101603956D01*
X164453629Y-101795524D01*
X164507253Y-101866534D01*
X164981814Y-101391972D01*
X165039570Y-101492007D01*
X165132662Y-101585099D01*
X165232695Y-101642853D01*
X164755763Y-102119784D01*
X164755764Y-102119785D01*
X164922721Y-102223161D01*
X165122288Y-102300473D01*
X165332664Y-102339799D01*
X165332665Y-102339800D01*
X165546673Y-102339800D01*
X165546673Y-102339799D01*
X165757049Y-102300473D01*
X165956615Y-102223161D01*
X165956616Y-102223161D01*
X166123572Y-102119785D01*
X166123573Y-102119784D01*
X165646642Y-101642853D01*
X165746676Y-101585099D01*
X165839768Y-101492007D01*
X165897522Y-101391973D01*
X166372083Y-101866534D01*
X166425710Y-101795521D01*
X166521097Y-101603956D01*
X166521103Y-101603940D01*
X166579667Y-101398111D01*
X166579668Y-101398102D01*
X166599416Y-101185002D01*
X166599416Y-101184997D01*
X166579668Y-100971897D01*
X166579667Y-100971888D01*
X166521103Y-100766059D01*
X166521097Y-100766043D01*
X166425708Y-100574475D01*
X166372083Y-100503464D01*
X165897521Y-100978025D01*
X165839768Y-100877993D01*
X165746676Y-100784901D01*
X165646641Y-100727145D01*
X166123573Y-100250214D01*
X165956616Y-100146838D01*
X165757049Y-100069526D01*
X165546673Y-100030200D01*
X165332665Y-100030200D01*
X165122288Y-100069526D01*
X164922722Y-100146838D01*
X164922721Y-100146838D01*
X164740762Y-100259503D01*
X164729453Y-100269813D01*
X164681878Y-100289376D01*
X164632859Y-100273781D01*
X164605333Y-100230326D01*
X164603913Y-100207300D01*
X164619416Y-100040000D01*
X164619416Y-100039997D01*
X164599668Y-99826897D01*
X164599667Y-99826888D01*
X164541103Y-99621059D01*
X164541097Y-99621043D01*
X164445708Y-99429475D01*
X164392083Y-99358464D01*
X163917522Y-99833026D01*
X163859768Y-99732993D01*
X163766676Y-99639901D01*
X163666642Y-99582146D01*
X164143573Y-99105214D01*
X163976616Y-99001838D01*
X163777049Y-98924526D01*
X163566673Y-98885200D01*
X163352665Y-98885200D01*
X163142288Y-98924526D01*
X162942722Y-99001838D01*
X162942715Y-99001841D01*
X162775764Y-99105212D01*
X162775763Y-99105214D01*
X163252695Y-99582146D01*
X163152662Y-99639901D01*
X163059570Y-99732993D01*
X163001815Y-99833026D01*
X162527253Y-99358464D01*
X162473627Y-99429479D01*
X162378240Y-99621043D01*
X162378234Y-99621059D01*
X162319670Y-99826888D01*
X162319669Y-99826897D01*
X162299922Y-100039997D01*
X162299922Y-100040000D01*
X157993668Y-100040000D01*
X158002900Y-99981708D01*
X158002900Y-99018292D01*
X157987957Y-98923945D01*
X157930016Y-98810229D01*
X157839771Y-98719984D01*
X157726055Y-98662043D01*
X157726057Y-98662043D01*
X157631710Y-98647100D01*
X157631708Y-98647100D01*
X156868292Y-98647100D01*
X156868289Y-98647100D01*
X156773943Y-98662043D01*
X156660228Y-98719984D01*
X156569984Y-98810228D01*
X156512043Y-98923943D01*
X156497100Y-99018289D01*
X156497100Y-99981710D01*
X156512043Y-100076056D01*
X156566395Y-100182728D01*
X156569984Y-100189771D01*
X156660229Y-100280016D01*
X156773943Y-100337956D01*
X156773945Y-100337957D01*
X156868292Y-100352900D01*
X156921900Y-100352900D01*
X156970238Y-100370493D01*
X156995958Y-100415042D01*
X156997100Y-100428100D01*
X156997100Y-101271900D01*
X156979507Y-101320238D01*
X156934958Y-101345958D01*
X156921900Y-101347100D01*
X156868289Y-101347100D01*
X156773943Y-101362043D01*
X156660228Y-101419984D01*
X156569984Y-101510228D01*
X156512043Y-101623943D01*
X156497100Y-101718289D01*
X156497100Y-102681710D01*
X156512043Y-102776056D01*
X156553337Y-102857100D01*
X156569984Y-102889771D01*
X156660229Y-102980016D01*
X156773943Y-103037956D01*
X156773945Y-103037957D01*
X156868292Y-103052900D01*
X156921900Y-103052900D01*
X156970238Y-103070493D01*
X156995958Y-103115042D01*
X156997100Y-103128100D01*
X156997100Y-103493626D01*
X156997099Y-103493640D01*
X156997099Y-103499695D01*
X156997099Y-103600305D01*
X157008457Y-103627725D01*
X157013047Y-103638806D01*
X157013047Y-103638807D01*
X157035600Y-103693257D01*
X157112928Y-103770585D01*
X157112941Y-103770595D01*
X157380074Y-104037728D01*
X157401814Y-104084348D01*
X157402100Y-104090902D01*
X157402100Y-104265321D01*
X157384507Y-104313659D01*
X157357276Y-104334113D01*
X157330857Y-104345778D01*
X157330851Y-104345782D01*
X157250782Y-104425851D01*
X157250780Y-104425854D01*
X157205037Y-104529451D01*
X157202100Y-104554776D01*
X157202100Y-105096900D01*
X157184507Y-105145238D01*
X157139958Y-105170958D01*
X157126900Y-105172100D01*
X156913100Y-105172100D01*
X156864762Y-105154507D01*
X156839042Y-105109958D01*
X156837900Y-105096900D01*
X156837900Y-104554776D01*
X156834962Y-104529451D01*
X156831335Y-104521236D01*
X156789220Y-104425855D01*
X156789219Y-104425854D01*
X156789217Y-104425851D01*
X156709148Y-104345782D01*
X156709145Y-104345780D01*
X156605548Y-104300037D01*
X156586100Y-104297781D01*
X156580226Y-104297100D01*
X156189774Y-104297100D01*
X156184510Y-104297710D01*
X156164451Y-104300037D01*
X156060854Y-104345780D01*
X156060851Y-104345782D01*
X155980782Y-104425851D01*
X155980780Y-104425854D01*
X155935037Y-104529451D01*
X155932100Y-104554776D01*
X155932100Y-106295223D01*
X155935037Y-106320548D01*
X155980780Y-106424145D01*
X155980782Y-106424148D01*
X156060851Y-106504217D01*
X156060854Y-106504219D01*
X156060855Y-106504220D01*
X156164450Y-106549962D01*
X156189774Y-106552900D01*
X156189776Y-106552900D01*
X156580224Y-106552900D01*
X156580226Y-106552900D01*
X156605550Y-106549962D01*
X156709145Y-106504220D01*
X156789220Y-106424145D01*
X156834962Y-106320550D01*
X156837900Y-106295226D01*
X156837900Y-105753100D01*
X156855493Y-105704762D01*
X156900042Y-105679042D01*
X156913100Y-105677900D01*
X157126900Y-105677900D01*
X157175238Y-105695493D01*
X157200958Y-105740042D01*
X157202100Y-105753100D01*
X157202100Y-106295223D01*
X157205037Y-106320548D01*
X157250780Y-106424145D01*
X157250782Y-106424148D01*
X157330851Y-106504217D01*
X157330854Y-106504219D01*
X157330855Y-106504220D01*
X157434450Y-106549962D01*
X157459774Y-106552900D01*
X157459776Y-106552900D01*
X157850224Y-106552900D01*
X157850226Y-106552900D01*
X157875550Y-106549962D01*
X157979145Y-106504220D01*
X158059220Y-106424145D01*
X158104962Y-106320550D01*
X158107900Y-106295226D01*
X158107900Y-105753100D01*
X158125493Y-105704762D01*
X158170042Y-105679042D01*
X158183100Y-105677900D01*
X158915935Y-105677900D01*
X158915943Y-105677901D01*
X158924695Y-105677901D01*
X159025306Y-105677901D01*
X159063806Y-105661952D01*
X159118257Y-105639399D01*
X159189399Y-105568257D01*
X159196620Y-105561036D01*
X159196629Y-105561023D01*
X161007729Y-103749926D01*
X161054349Y-103728186D01*
X161060903Y-103727900D01*
X162834461Y-103727900D01*
X162882799Y-103745493D01*
X162908519Y-103790042D01*
X162899586Y-103840700D01*
X162882169Y-103861227D01*
X162782606Y-103942937D01*
X162663528Y-104088034D01*
X162663522Y-104088044D01*
X162575045Y-104253572D01*
X162520555Y-104433200D01*
X162502158Y-104620000D01*
X162520555Y-104806799D01*
X162575045Y-104986427D01*
X162663522Y-105151955D01*
X162663528Y-105151965D01*
X162782606Y-105297063D01*
X162863889Y-105363770D01*
X162890094Y-105408034D01*
X162881715Y-105458787D01*
X162842673Y-105492280D01*
X162816183Y-105497100D01*
X161059065Y-105497100D01*
X161059057Y-105497099D01*
X161050305Y-105497099D01*
X160949695Y-105497099D01*
X160949693Y-105497099D01*
X160911192Y-105513047D01*
X160911191Y-105513046D01*
X160856744Y-105535599D01*
X160856740Y-105535602D01*
X160782974Y-105609369D01*
X160782964Y-105609380D01*
X159367272Y-107025074D01*
X159320652Y-107046814D01*
X159314098Y-107047100D01*
X155785902Y-107047100D01*
X155737564Y-107029507D01*
X155732728Y-107025074D01*
X155389926Y-106682272D01*
X155368186Y-106635652D01*
X155367900Y-106629098D01*
X155367900Y-106584677D01*
X155385493Y-106536339D01*
X155412725Y-106515884D01*
X155439145Y-106504220D01*
X155519220Y-106424145D01*
X155564962Y-106320550D01*
X155567900Y-106295226D01*
X155567900Y-104554774D01*
X155564962Y-104529450D01*
X155519220Y-104425855D01*
X155519219Y-104425854D01*
X155519217Y-104425851D01*
X155439148Y-104345782D01*
X155439142Y-104345778D01*
X155412724Y-104334113D01*
X155375612Y-104298494D01*
X155367900Y-104265321D01*
X155367900Y-103870905D01*
X155385493Y-103822567D01*
X155389926Y-103817731D01*
X155464398Y-103743258D01*
X155464399Y-103743257D01*
X155490233Y-103680887D01*
X155502901Y-103650305D01*
X155502901Y-103549695D01*
X155502901Y-103543640D01*
X155502900Y-103543626D01*
X155502900Y-103128100D01*
X155520493Y-103079762D01*
X155565042Y-103054042D01*
X155578100Y-103052900D01*
X155631704Y-103052900D01*
X155631708Y-103052900D01*
X155726055Y-103037957D01*
X155839771Y-102980016D01*
X155930016Y-102889771D01*
X155987957Y-102776055D01*
X156002900Y-102681708D01*
X156002900Y-101718292D01*
X155987957Y-101623945D01*
X155930016Y-101510229D01*
X155839771Y-101419984D01*
X155726055Y-101362043D01*
X155726057Y-101362043D01*
X155631710Y-101347100D01*
X155631708Y-101347100D01*
X154868292Y-101347100D01*
X154868289Y-101347100D01*
X154773943Y-101362043D01*
X154660228Y-101419984D01*
X154569984Y-101510228D01*
X154512043Y-101623943D01*
X154497100Y-101718289D01*
X154497100Y-102681710D01*
X154512043Y-102776056D01*
X154553337Y-102857100D01*
X154569984Y-102889771D01*
X154660229Y-102980016D01*
X154773943Y-103037956D01*
X154773945Y-103037957D01*
X154868292Y-103052900D01*
X154921900Y-103052900D01*
X154970238Y-103070493D01*
X154995958Y-103115042D01*
X154997100Y-103128100D01*
X154997100Y-103464097D01*
X154979507Y-103512435D01*
X154975045Y-103517299D01*
X154974415Y-103517930D01*
X154974342Y-103518003D01*
X154974299Y-103518043D01*
X154900602Y-103591740D01*
X154900599Y-103591744D01*
X154878046Y-103646191D01*
X154878047Y-103646192D01*
X154862099Y-103684693D01*
X154862099Y-103794056D01*
X154862100Y-103794065D01*
X154862100Y-104265321D01*
X154844507Y-104313659D01*
X154817276Y-104334113D01*
X154790857Y-104345778D01*
X154790851Y-104345782D01*
X154710782Y-104425851D01*
X154710780Y-104425854D01*
X154665037Y-104529451D01*
X154662100Y-104554776D01*
X154662100Y-106295223D01*
X154665037Y-106320548D01*
X154710780Y-106424145D01*
X154710782Y-106424148D01*
X154790850Y-106504216D01*
X154790852Y-106504217D01*
X154790855Y-106504220D01*
X154817273Y-106515884D01*
X154854387Y-106551502D01*
X154862100Y-106584677D01*
X154862100Y-106708626D01*
X154862099Y-106708640D01*
X154862099Y-106815305D01*
X154874273Y-106844696D01*
X154874272Y-106844696D01*
X154900599Y-106908253D01*
X154900601Y-106908257D01*
X154900603Y-106908259D01*
X154900605Y-106908262D01*
X154977928Y-106985585D01*
X154977941Y-106985595D01*
X155431306Y-107438960D01*
X155431323Y-107438980D01*
X155506741Y-107514398D01*
X155506743Y-107514399D01*
X155561192Y-107536952D01*
X155561194Y-107536952D01*
X155599695Y-107552901D01*
X155709057Y-107552901D01*
X155709065Y-107552900D01*
X159390935Y-107552900D01*
X159390943Y-107552901D01*
X159399695Y-107552901D01*
X159500306Y-107552901D01*
X159538806Y-107536952D01*
X159593257Y-107514399D01*
X159664399Y-107443257D01*
X159671620Y-107436036D01*
X159671629Y-107436023D01*
X161082728Y-106024926D01*
X161129348Y-106003186D01*
X161135902Y-106002900D01*
X162852738Y-106002900D01*
X162901076Y-106020493D01*
X162926796Y-106065042D01*
X162917863Y-106115700D01*
X162900445Y-106136229D01*
X162842290Y-106183956D01*
X162782606Y-106232937D01*
X162663528Y-106378034D01*
X162663522Y-106378044D01*
X162575045Y-106543572D01*
X162520555Y-106723200D01*
X162502158Y-106910000D01*
X162520555Y-107096799D01*
X162575045Y-107276427D01*
X162663522Y-107441955D01*
X162663528Y-107441965D01*
X162782606Y-107587063D01*
X162876074Y-107663770D01*
X162902279Y-107708034D01*
X162893900Y-107758787D01*
X162854858Y-107792280D01*
X162828368Y-107797100D01*
X155135903Y-107797100D01*
X155087565Y-107779507D01*
X155082729Y-107775074D01*
X154119926Y-106812271D01*
X154098186Y-106765651D01*
X154097900Y-106759097D01*
X154097900Y-106584677D01*
X154115493Y-106536339D01*
X154142725Y-106515884D01*
X154169145Y-106504220D01*
X154249220Y-106424145D01*
X154294962Y-106320550D01*
X154297900Y-106295226D01*
X154297900Y-104554774D01*
X154294962Y-104529450D01*
X154249220Y-104425855D01*
X154249219Y-104425854D01*
X154249217Y-104425851D01*
X154169146Y-104345780D01*
X154147722Y-104336320D01*
X154110611Y-104300700D01*
X154102900Y-104267529D01*
X154102900Y-100235902D01*
X154120493Y-100187564D01*
X154124914Y-100182739D01*
X154369340Y-99938313D01*
X154415958Y-99916575D01*
X154465645Y-99929889D01*
X154495150Y-99972026D01*
X154496786Y-99979725D01*
X154512043Y-100076056D01*
X154566395Y-100182728D01*
X154569984Y-100189771D01*
X154660229Y-100280016D01*
X154773943Y-100337956D01*
X154773945Y-100337957D01*
X154868292Y-100352900D01*
X154868296Y-100352900D01*
X155631704Y-100352900D01*
X155631708Y-100352900D01*
X155726055Y-100337957D01*
X155839771Y-100280016D01*
X155930016Y-100189771D01*
X155987957Y-100076055D01*
X156002900Y-99981708D01*
X156002900Y-99018292D01*
X155987957Y-98923945D01*
X155930016Y-98810229D01*
X155839771Y-98719984D01*
X155726055Y-98662043D01*
X155726057Y-98662043D01*
X155631710Y-98647100D01*
X155631708Y-98647100D01*
X154868292Y-98647100D01*
X154868289Y-98647100D01*
X154773943Y-98662043D01*
X154660228Y-98719984D01*
X154569984Y-98810228D01*
X154512043Y-98923943D01*
X154497100Y-99018289D01*
X154497100Y-99171899D01*
X154479507Y-99220237D01*
X154434958Y-99245957D01*
X154421900Y-99247099D01*
X154399693Y-99247099D01*
X154361192Y-99263047D01*
X154361191Y-99263046D01*
X154306744Y-99285599D01*
X154306740Y-99285602D01*
X154232974Y-99359369D01*
X154232964Y-99359380D01*
X153709380Y-99882964D01*
X153709358Y-99882984D01*
X153635602Y-99956740D01*
X153635599Y-99956744D01*
X153613046Y-100011191D01*
X153613047Y-100011192D01*
X153597099Y-100049693D01*
X153597099Y-100159056D01*
X153597100Y-100159065D01*
X153597100Y-104263114D01*
X153579507Y-104311452D01*
X153552276Y-104331905D01*
X153542280Y-104336320D01*
X153514480Y-104348595D01*
X153513870Y-104347213D01*
X153471877Y-104358005D01*
X153425482Y-104335788D01*
X153404223Y-104288947D01*
X153404000Y-104283162D01*
X153404000Y-93751484D01*
X153419540Y-93705705D01*
X153465015Y-93646442D01*
X153518530Y-93517245D01*
X153536783Y-93378600D01*
X153518530Y-93239955D01*
X153465015Y-93110759D01*
X153379885Y-92999814D01*
X153268944Y-92914686D01*
X153268939Y-92914684D01*
X153231102Y-92899011D01*
X153139746Y-92861170D01*
X153001100Y-92842917D01*
X152862453Y-92861170D01*
X152733259Y-92914684D01*
X152622314Y-92999814D01*
X152537184Y-93110759D01*
X152483670Y-93239953D01*
X152483042Y-93244722D01*
X152465417Y-93378600D01*
X152483670Y-93517245D01*
X152483671Y-93517247D01*
X152537183Y-93646439D01*
X152582660Y-93705705D01*
X152598200Y-93751484D01*
X152598200Y-115255715D01*
X152582660Y-115301493D01*
X152537188Y-115360752D01*
X152537184Y-115360760D01*
X152483670Y-115489953D01*
X152465417Y-115628600D01*
X125092765Y-115628600D01*
X124956454Y-115529564D01*
X124787485Y-115443470D01*
X124787483Y-115443469D01*
X124607117Y-115384865D01*
X124419822Y-115355200D01*
X124377400Y-115355200D01*
X124377400Y-116115777D01*
X124262535Y-116085000D01*
X124137465Y-116085000D01*
X124022600Y-116115777D01*
X124022600Y-115355200D01*
X123980177Y-115355200D01*
X123792882Y-115384865D01*
X123792881Y-115384865D01*
X123612516Y-115443469D01*
X123612514Y-115443470D01*
X123443545Y-115529564D01*
X123290124Y-115641031D01*
X123290116Y-115641038D01*
X123156038Y-115775116D01*
X123156031Y-115775124D01*
X123044564Y-115928545D01*
X122958470Y-116097514D01*
X122958464Y-116097528D01*
X122899869Y-116277862D01*
X122899866Y-116277877D01*
X122883280Y-116382600D01*
X123755778Y-116382600D01*
X123725000Y-116497465D01*
X123725000Y-116622535D01*
X123755778Y-116737400D01*
X122883280Y-116737400D01*
X121225500Y-116737400D01*
X121225500Y-114118777D01*
X123072100Y-114118777D01*
X123110641Y-114312537D01*
X123110642Y-114312538D01*
X123186241Y-114495051D01*
X123295996Y-114659312D01*
X123295997Y-114659313D01*
X123296000Y-114659317D01*
X123435682Y-114798999D01*
X123435685Y-114799001D01*
X123435688Y-114799004D01*
X123599949Y-114908759D01*
X123782461Y-114984357D01*
X123782462Y-114984358D01*
X123782463Y-114984358D01*
X123782465Y-114984359D01*
X123912218Y-115010168D01*
X123976222Y-115022900D01*
X123976223Y-115022900D01*
X124423778Y-115022900D01*
X124471889Y-115013329D01*
X124617535Y-114984359D01*
X124800051Y-114908759D01*
X124964312Y-114799004D01*
X125104004Y-114659312D01*
X125213759Y-114495051D01*
X125289359Y-114312535D01*
X125327900Y-114118777D01*
X125327900Y-113921223D01*
X125289359Y-113727465D01*
X125213759Y-113544949D01*
X125104004Y-113380688D01*
X125104001Y-113380685D01*
X125103999Y-113380682D01*
X124964317Y-113241000D01*
X124964313Y-113240997D01*
X124964312Y-113240996D01*
X124800051Y-113131241D01*
X124800049Y-113131240D01*
X124617538Y-113055642D01*
X124617537Y-113055641D01*
X124423778Y-113017100D01*
X124423777Y-113017100D01*
X123976223Y-113017100D01*
X123976222Y-113017100D01*
X123782462Y-113055641D01*
X123782461Y-113055642D01*
X123599950Y-113131240D01*
X123435682Y-113241000D01*
X123296000Y-113380682D01*
X123186240Y-113544950D01*
X123110642Y-113727461D01*
X123110641Y-113727462D01*
X123072100Y-113921222D01*
X123072100Y-114118777D01*
X121225500Y-114118777D01*
X121225500Y-111657400D01*
X122883280Y-111657400D01*
X122899866Y-111762122D01*
X122899869Y-111762137D01*
X122958464Y-111942471D01*
X122958470Y-111942485D01*
X123044564Y-112111454D01*
X123156031Y-112264875D01*
X123156038Y-112264883D01*
X123290116Y-112398961D01*
X123290124Y-112398968D01*
X123443545Y-112510435D01*
X123612514Y-112596529D01*
X123612516Y-112596530D01*
X123792882Y-112655134D01*
X123980177Y-112684799D01*
X123980184Y-112684800D01*
X124022600Y-112684800D01*
X124022600Y-111924222D01*
X124137465Y-111955000D01*
X124262535Y-111955000D01*
X124377400Y-111924222D01*
X124377400Y-112684800D01*
X124419816Y-112684800D01*
X124419822Y-112684799D01*
X124607117Y-112655134D01*
X124607118Y-112655134D01*
X124787483Y-112596530D01*
X124787485Y-112596529D01*
X124956454Y-112510435D01*
X125109875Y-112398968D01*
X125109883Y-112398961D01*
X125243961Y-112264883D01*
X125243968Y-112264875D01*
X125355435Y-112111454D01*
X125441529Y-111942485D01*
X125441535Y-111942471D01*
X125500130Y-111762137D01*
X125500133Y-111762122D01*
X125516720Y-111657400D01*
X124644222Y-111657400D01*
X124675000Y-111542535D01*
X124675000Y-111417465D01*
X124644222Y-111302600D01*
X125516719Y-111302600D01*
X125500133Y-111197877D01*
X125500130Y-111197862D01*
X125441535Y-111017528D01*
X125441529Y-111017514D01*
X125355435Y-110848545D01*
X125243968Y-110695124D01*
X125243961Y-110695116D01*
X125109883Y-110561038D01*
X125109875Y-110561031D01*
X124956454Y-110449564D01*
X124787485Y-110363470D01*
X124787483Y-110363469D01*
X124607117Y-110304865D01*
X124419822Y-110275200D01*
X124377400Y-110275200D01*
X124377400Y-111035777D01*
X124262535Y-111005000D01*
X124137465Y-111005000D01*
X124022600Y-111035777D01*
X124022600Y-110275200D01*
X123980177Y-110275200D01*
X123792882Y-110304865D01*
X123792881Y-110304865D01*
X123612516Y-110363469D01*
X123612514Y-110363470D01*
X123443545Y-110449564D01*
X123290124Y-110561031D01*
X123290116Y-110561038D01*
X123156038Y-110695116D01*
X123156031Y-110695124D01*
X123044564Y-110848545D01*
X122958470Y-111017514D01*
X122958464Y-111017528D01*
X122899869Y-111197862D01*
X122899866Y-111197877D01*
X122883280Y-111302600D01*
X123755778Y-111302600D01*
X123725000Y-111417465D01*
X123725000Y-111542535D01*
X123755778Y-111657400D01*
X122883280Y-111657400D01*
X121225500Y-111657400D01*
X121225500Y-109038777D01*
X123072100Y-109038777D01*
X123110641Y-109232537D01*
X123110642Y-109232538D01*
X123184237Y-109410214D01*
X123186241Y-109415051D01*
X123295996Y-109579312D01*
X123295997Y-109579313D01*
X123296000Y-109579317D01*
X123435682Y-109718999D01*
X123435685Y-109719001D01*
X123435688Y-109719004D01*
X123599949Y-109828759D01*
X123782461Y-109904357D01*
X123782462Y-109904358D01*
X123782463Y-109904358D01*
X123782465Y-109904359D01*
X123891558Y-109926059D01*
X123976222Y-109942900D01*
X123976223Y-109942900D01*
X124423778Y-109942900D01*
X124471889Y-109933329D01*
X124617535Y-109904359D01*
X124800051Y-109828759D01*
X124964312Y-109719004D01*
X125104004Y-109579312D01*
X125213759Y-109415051D01*
X125289359Y-109232535D01*
X125327900Y-109038777D01*
X125327900Y-108841223D01*
X125289359Y-108647465D01*
X125213759Y-108464949D01*
X125104004Y-108300688D01*
X125104001Y-108300685D01*
X125103999Y-108300682D01*
X124964317Y-108161000D01*
X124964313Y-108160997D01*
X124964312Y-108160996D01*
X124800051Y-108051241D01*
X124650207Y-107989174D01*
X124617538Y-107975642D01*
X124617537Y-107975641D01*
X124423778Y-107937100D01*
X124423777Y-107937100D01*
X123976223Y-107937100D01*
X123976222Y-107937100D01*
X123782462Y-107975641D01*
X123782461Y-107975642D01*
X123599950Y-108051240D01*
X123435682Y-108161000D01*
X123296000Y-108300682D01*
X123186240Y-108464950D01*
X123110642Y-108647461D01*
X123110641Y-108647462D01*
X123072100Y-108841222D01*
X123072100Y-109038777D01*
X121225500Y-109038777D01*
X121225500Y-106577400D01*
X122883280Y-106577400D01*
X122899866Y-106682122D01*
X122899869Y-106682137D01*
X122958464Y-106862471D01*
X122958470Y-106862485D01*
X123044564Y-107031454D01*
X123156031Y-107184875D01*
X123156038Y-107184883D01*
X123290116Y-107318961D01*
X123290124Y-107318968D01*
X123443545Y-107430435D01*
X123612514Y-107516529D01*
X123612516Y-107516530D01*
X123792882Y-107575134D01*
X123980177Y-107604799D01*
X123980184Y-107604800D01*
X124022600Y-107604800D01*
X124022600Y-106844222D01*
X124137465Y-106875000D01*
X124262535Y-106875000D01*
X124377400Y-106844222D01*
X124377400Y-107604800D01*
X124419816Y-107604800D01*
X124419822Y-107604799D01*
X124607117Y-107575134D01*
X124607118Y-107575134D01*
X124787483Y-107516530D01*
X124787485Y-107516529D01*
X124956454Y-107430435D01*
X125109875Y-107318968D01*
X125109883Y-107318961D01*
X125243961Y-107184883D01*
X125243968Y-107184875D01*
X125355435Y-107031454D01*
X125441529Y-106862485D01*
X125441535Y-106862471D01*
X125500130Y-106682137D01*
X125500133Y-106682122D01*
X125516720Y-106577400D01*
X124644222Y-106577400D01*
X124675000Y-106462535D01*
X124675000Y-106337465D01*
X124644222Y-106222600D01*
X125516719Y-106222600D01*
X125500133Y-106117877D01*
X125500130Y-106117862D01*
X125441535Y-105937528D01*
X125441529Y-105937514D01*
X125355435Y-105768545D01*
X125243968Y-105615124D01*
X125243961Y-105615116D01*
X125109883Y-105481038D01*
X125109875Y-105481031D01*
X124956454Y-105369564D01*
X124787485Y-105283470D01*
X124787483Y-105283469D01*
X124607117Y-105224865D01*
X124419822Y-105195200D01*
X124377400Y-105195200D01*
X124377400Y-105955777D01*
X124262535Y-105925000D01*
X124137465Y-105925000D01*
X124022600Y-105955777D01*
X124022600Y-105195200D01*
X123980177Y-105195200D01*
X123792882Y-105224865D01*
X123792881Y-105224865D01*
X123612516Y-105283469D01*
X123612514Y-105283470D01*
X123443545Y-105369564D01*
X123290124Y-105481031D01*
X123290116Y-105481038D01*
X123156038Y-105615116D01*
X123156031Y-105615124D01*
X123044564Y-105768545D01*
X122958470Y-105937514D01*
X122958464Y-105937528D01*
X122899869Y-106117862D01*
X122899866Y-106117877D01*
X122883280Y-106222600D01*
X123755778Y-106222600D01*
X123725000Y-106337465D01*
X123725000Y-106462535D01*
X123755778Y-106577400D01*
X122883280Y-106577400D01*
X121225500Y-106577400D01*
X121225500Y-103958777D01*
X123072100Y-103958777D01*
X123110641Y-104152537D01*
X123110642Y-104152538D01*
X123184939Y-104331907D01*
X123186241Y-104335051D01*
X123295996Y-104499312D01*
X123295997Y-104499313D01*
X123296000Y-104499317D01*
X123435682Y-104638999D01*
X123435685Y-104639001D01*
X123435688Y-104639004D01*
X123599949Y-104748759D01*
X123782461Y-104824357D01*
X123782462Y-104824358D01*
X123782463Y-104824358D01*
X123782465Y-104824359D01*
X123912218Y-104850168D01*
X123976222Y-104862900D01*
X123976223Y-104862900D01*
X124423778Y-104862900D01*
X124471889Y-104853329D01*
X124617535Y-104824359D01*
X124800051Y-104748759D01*
X124964312Y-104639004D01*
X125104004Y-104499312D01*
X125213759Y-104335051D01*
X125289359Y-104152535D01*
X125327900Y-103958777D01*
X125327900Y-103761223D01*
X125322758Y-103735375D01*
X125305019Y-103646192D01*
X125289359Y-103567465D01*
X125213759Y-103384949D01*
X125104004Y-103220688D01*
X125104001Y-103220685D01*
X125103999Y-103220682D01*
X124964317Y-103081000D01*
X124964313Y-103080997D01*
X124964312Y-103080996D01*
X124800051Y-102971241D01*
X124800049Y-102971240D01*
X124617538Y-102895642D01*
X124617537Y-102895641D01*
X124423778Y-102857100D01*
X124423777Y-102857100D01*
X123976223Y-102857100D01*
X123976222Y-102857100D01*
X123782462Y-102895641D01*
X123782461Y-102895642D01*
X123599950Y-102971240D01*
X123435682Y-103081000D01*
X123296000Y-103220682D01*
X123186240Y-103384950D01*
X123110642Y-103567461D01*
X123110641Y-103567462D01*
X123072100Y-103761222D01*
X123072100Y-103958777D01*
X121225500Y-103958777D01*
X121225500Y-101497400D01*
X122883280Y-101497400D01*
X122899866Y-101602122D01*
X122899869Y-101602137D01*
X122958464Y-101782471D01*
X122958470Y-101782485D01*
X123044564Y-101951454D01*
X123156031Y-102104875D01*
X123156038Y-102104883D01*
X123290116Y-102238961D01*
X123290124Y-102238968D01*
X123443545Y-102350435D01*
X123612514Y-102436529D01*
X123612516Y-102436530D01*
X123792882Y-102495134D01*
X123980177Y-102524799D01*
X123980184Y-102524800D01*
X124022600Y-102524800D01*
X124022600Y-101764222D01*
X124137465Y-101795000D01*
X124262535Y-101795000D01*
X124377400Y-101764222D01*
X124377400Y-102524800D01*
X124419816Y-102524800D01*
X124419822Y-102524799D01*
X124607117Y-102495134D01*
X124607118Y-102495134D01*
X124787483Y-102436530D01*
X124787485Y-102436529D01*
X124956454Y-102350435D01*
X125109875Y-102238968D01*
X125109883Y-102238961D01*
X125243961Y-102104883D01*
X125243968Y-102104875D01*
X125355435Y-101951454D01*
X125441529Y-101782485D01*
X125441535Y-101782471D01*
X125500130Y-101602137D01*
X125500133Y-101602122D01*
X125516720Y-101497400D01*
X124644222Y-101497400D01*
X124675000Y-101382535D01*
X124675000Y-101257465D01*
X124644222Y-101142600D01*
X125516719Y-101142600D01*
X125500133Y-101037877D01*
X125500130Y-101037862D01*
X125441535Y-100857528D01*
X125441529Y-100857514D01*
X125355435Y-100688545D01*
X125243968Y-100535124D01*
X125243961Y-100535116D01*
X125109883Y-100401038D01*
X125109875Y-100401031D01*
X124956454Y-100289564D01*
X124787485Y-100203470D01*
X124787483Y-100203469D01*
X124607117Y-100144865D01*
X124419822Y-100115200D01*
X124377400Y-100115200D01*
X124377400Y-100875777D01*
X124262535Y-100845000D01*
X124137465Y-100845000D01*
X124022600Y-100875777D01*
X124022600Y-100115200D01*
X123980177Y-100115200D01*
X123792882Y-100144865D01*
X123792881Y-100144865D01*
X123612516Y-100203469D01*
X123612514Y-100203470D01*
X123443545Y-100289564D01*
X123290124Y-100401031D01*
X123290116Y-100401038D01*
X123156038Y-100535116D01*
X123156031Y-100535124D01*
X123044564Y-100688545D01*
X122958470Y-100857514D01*
X122958464Y-100857528D01*
X122899869Y-101037862D01*
X122899866Y-101037877D01*
X122883280Y-101142600D01*
X123755778Y-101142600D01*
X123725000Y-101257465D01*
X123725000Y-101382535D01*
X123755778Y-101497400D01*
X122883280Y-101497400D01*
X121225500Y-101497400D01*
X121225500Y-98878777D01*
X123072100Y-98878777D01*
X123110641Y-99072537D01*
X123110642Y-99072538D01*
X123181605Y-99243859D01*
X123186241Y-99255051D01*
X123295996Y-99419312D01*
X123295997Y-99419313D01*
X123296000Y-99419317D01*
X123435682Y-99558999D01*
X123435685Y-99559001D01*
X123435688Y-99559004D01*
X123599949Y-99668759D01*
X123782461Y-99744357D01*
X123782462Y-99744358D01*
X123782463Y-99744358D01*
X123782465Y-99744359D01*
X123912218Y-99770168D01*
X123976222Y-99782900D01*
X123976223Y-99782900D01*
X124423778Y-99782900D01*
X124471889Y-99773329D01*
X124617535Y-99744359D01*
X124800051Y-99668759D01*
X124964312Y-99559004D01*
X125104004Y-99419312D01*
X125213759Y-99255051D01*
X125289359Y-99072535D01*
X125327900Y-98878777D01*
X125327900Y-98681223D01*
X125321112Y-98647100D01*
X125289358Y-98487462D01*
X125289357Y-98487461D01*
X125213759Y-98304950D01*
X125213759Y-98304949D01*
X125104004Y-98140688D01*
X125104001Y-98140685D01*
X125103999Y-98140682D01*
X124964317Y-98001000D01*
X124964313Y-98000997D01*
X124964312Y-98000996D01*
X124800051Y-97891241D01*
X124800049Y-97891240D01*
X124617538Y-97815642D01*
X124617537Y-97815641D01*
X124423778Y-97777100D01*
X124423777Y-97777100D01*
X123976223Y-97777100D01*
X123976222Y-97777100D01*
X123782462Y-97815641D01*
X123782461Y-97815642D01*
X123599950Y-97891240D01*
X123435682Y-98001000D01*
X123296000Y-98140682D01*
X123186240Y-98304950D01*
X123110642Y-98487461D01*
X123110641Y-98487462D01*
X123072100Y-98681222D01*
X123072100Y-98878777D01*
X121225500Y-98878777D01*
X121225500Y-96417400D01*
X122883280Y-96417400D01*
X122899866Y-96522122D01*
X122899869Y-96522137D01*
X122958464Y-96702471D01*
X122958470Y-96702485D01*
X123044564Y-96871454D01*
X123156031Y-97024875D01*
X123156038Y-97024883D01*
X123290116Y-97158961D01*
X123290124Y-97158968D01*
X123443545Y-97270435D01*
X123612514Y-97356529D01*
X123612516Y-97356530D01*
X123792882Y-97415134D01*
X123980177Y-97444799D01*
X123980184Y-97444800D01*
X124022600Y-97444800D01*
X124022600Y-96684222D01*
X124137465Y-96715000D01*
X124262535Y-96715000D01*
X124377400Y-96684222D01*
X124377400Y-97444800D01*
X124419816Y-97444800D01*
X124419822Y-97444799D01*
X124607117Y-97415134D01*
X124607118Y-97415134D01*
X124787483Y-97356530D01*
X124787485Y-97356529D01*
X124956454Y-97270435D01*
X125109875Y-97158968D01*
X125109883Y-97158961D01*
X125243961Y-97024883D01*
X125243968Y-97024875D01*
X125355435Y-96871454D01*
X125441529Y-96702485D01*
X125441535Y-96702471D01*
X125500130Y-96522137D01*
X125500133Y-96522122D01*
X125516720Y-96417400D01*
X124644222Y-96417400D01*
X124675000Y-96302535D01*
X124675000Y-96177465D01*
X124644222Y-96062600D01*
X125516719Y-96062600D01*
X125500133Y-95957877D01*
X125500130Y-95957862D01*
X125441535Y-95777528D01*
X125441529Y-95777514D01*
X125355435Y-95608545D01*
X125243968Y-95455124D01*
X125243961Y-95455116D01*
X125109883Y-95321038D01*
X125109875Y-95321031D01*
X124956454Y-95209564D01*
X124787485Y-95123470D01*
X124787483Y-95123469D01*
X124607117Y-95064865D01*
X124419822Y-95035200D01*
X124377400Y-95035200D01*
X124377400Y-95795777D01*
X124262535Y-95765000D01*
X124137465Y-95765000D01*
X124022600Y-95795777D01*
X124022600Y-95035200D01*
X123980177Y-95035200D01*
X123792882Y-95064865D01*
X123792881Y-95064865D01*
X123612516Y-95123469D01*
X123612514Y-95123470D01*
X123443545Y-95209564D01*
X123290124Y-95321031D01*
X123290116Y-95321038D01*
X123156038Y-95455116D01*
X123156031Y-95455124D01*
X123044564Y-95608545D01*
X122958470Y-95777514D01*
X122958464Y-95777528D01*
X122899869Y-95957862D01*
X122899866Y-95957877D01*
X122883280Y-96062600D01*
X123755778Y-96062600D01*
X123725000Y-96177465D01*
X123725000Y-96302535D01*
X123755778Y-96417400D01*
X122883280Y-96417400D01*
X121225500Y-96417400D01*
X121225500Y-93798777D01*
X123072100Y-93798777D01*
X123110641Y-93992537D01*
X123110642Y-93992538D01*
X123186241Y-94175051D01*
X123295996Y-94339312D01*
X123295997Y-94339313D01*
X123296000Y-94339317D01*
X123435682Y-94478999D01*
X123435685Y-94479001D01*
X123435688Y-94479004D01*
X123599949Y-94588759D01*
X123782461Y-94664357D01*
X123782462Y-94664358D01*
X123782463Y-94664358D01*
X123782465Y-94664359D01*
X123912218Y-94690168D01*
X123976222Y-94702900D01*
X123976223Y-94702900D01*
X124423778Y-94702900D01*
X124471889Y-94693329D01*
X124617535Y-94664359D01*
X124800051Y-94588759D01*
X124964312Y-94479004D01*
X125104004Y-94339312D01*
X125213759Y-94175051D01*
X125289359Y-93992535D01*
X125327900Y-93798777D01*
X125327900Y-93601223D01*
X125289359Y-93407465D01*
X125213759Y-93224949D01*
X125104004Y-93060688D01*
X125104001Y-93060685D01*
X125103999Y-93060682D01*
X124964317Y-92921000D01*
X124964313Y-92920997D01*
X124964312Y-92920996D01*
X124800051Y-92811241D01*
X124800049Y-92811240D01*
X124617538Y-92735642D01*
X124617537Y-92735641D01*
X124423778Y-92697100D01*
X124423777Y-92697100D01*
X123976223Y-92697100D01*
X123976222Y-92697100D01*
X123782462Y-92735641D01*
X123782461Y-92735642D01*
X123599950Y-92811240D01*
X123435682Y-92921000D01*
X123296000Y-93060682D01*
X123186240Y-93224950D01*
X123110642Y-93407461D01*
X123110641Y-93407462D01*
X123072100Y-93601222D01*
X123072100Y-93798777D01*
X121225500Y-93798777D01*
X121225500Y-92385000D01*
X163351738Y-92385000D01*
X163371837Y-92678838D01*
X163371837Y-92678842D01*
X163371838Y-92678844D01*
X163371838Y-92678846D01*
X163431758Y-92967196D01*
X163431762Y-92967208D01*
X163530386Y-93244713D01*
X163530389Y-93244720D01*
X163665894Y-93506232D01*
X163835730Y-93746834D01*
X163835733Y-93746837D01*
X163835738Y-93746844D01*
X164036766Y-93962094D01*
X164074186Y-93992537D01*
X164265238Y-94147969D01*
X164516877Y-94300993D01*
X164516884Y-94300997D01*
X164787012Y-94418330D01*
X164787015Y-94418331D01*
X164787022Y-94418334D01*
X165070625Y-94497796D01*
X165362407Y-94537900D01*
X165362412Y-94537900D01*
X165656926Y-94537900D01*
X165656931Y-94537900D01*
X165948713Y-94497796D01*
X166232316Y-94418334D01*
X166502458Y-94300995D01*
X166709564Y-94175051D01*
X166754099Y-94147969D01*
X166754100Y-94147967D01*
X166754105Y-94147965D01*
X166982572Y-93962094D01*
X167183600Y-93746844D01*
X167286391Y-93601223D01*
X167353443Y-93506232D01*
X167353443Y-93506230D01*
X167353447Y-93506226D01*
X167488948Y-93244722D01*
X167488949Y-93244716D01*
X167488952Y-93244713D01*
X167536558Y-93110759D01*
X167587578Y-92967203D01*
X167647501Y-92678838D01*
X167667600Y-92385000D01*
X167647501Y-92091162D01*
X167587578Y-91802797D01*
X167488948Y-91525278D01*
X167353447Y-91263774D01*
X167353445Y-91263772D01*
X167353443Y-91263767D01*
X167183607Y-91023165D01*
X167183604Y-91023162D01*
X167183600Y-91023156D01*
X166982572Y-90807906D01*
X166754105Y-90622035D01*
X166754099Y-90622030D01*
X166502460Y-90469006D01*
X166502453Y-90469002D01*
X166232325Y-90351669D01*
X166232316Y-90351666D01*
X165948712Y-90272203D01*
X165786313Y-90249883D01*
X165656931Y-90232100D01*
X165362407Y-90232100D01*
X165243563Y-90248434D01*
X165070625Y-90272203D01*
X164787021Y-90351666D01*
X164787012Y-90351669D01*
X164516884Y-90469002D01*
X164516877Y-90469006D01*
X164265238Y-90622030D01*
X164036763Y-90807908D01*
X163980322Y-90868343D01*
X163835738Y-91023156D01*
X163835735Y-91023159D01*
X163835735Y-91023160D01*
X163835730Y-91023165D01*
X163665894Y-91263767D01*
X163530389Y-91525279D01*
X163530388Y-91525280D01*
X163431762Y-91802791D01*
X163431758Y-91802803D01*
X163371838Y-92091153D01*
X163371838Y-92091155D01*
X163371837Y-92091162D01*
X163351738Y-92385000D01*
X121225500Y-92385000D01*
X121225500Y-91799639D01*
X122870200Y-91799639D01*
X122885767Y-91917886D01*
X122946707Y-92065008D01*
X122946709Y-92065011D01*
X123043650Y-92191349D01*
X123169988Y-92288290D01*
X123169991Y-92288292D01*
X123317113Y-92349232D01*
X123435361Y-92364800D01*
X124022600Y-92364800D01*
X124022600Y-91604222D01*
X124137465Y-91635000D01*
X124262535Y-91635000D01*
X124377400Y-91604222D01*
X124377400Y-92364800D01*
X124964639Y-92364800D01*
X125082886Y-92349232D01*
X125230008Y-92288292D01*
X125230011Y-92288290D01*
X125356349Y-92191349D01*
X125453290Y-92065011D01*
X125453292Y-92065008D01*
X125514232Y-91917886D01*
X125529800Y-91799639D01*
X125529800Y-91337400D01*
X124644222Y-91337400D01*
X124675000Y-91222535D01*
X124675000Y-91097465D01*
X124644222Y-90982600D01*
X125529800Y-90982600D01*
X125529800Y-90520360D01*
X125514232Y-90402113D01*
X125453292Y-90254991D01*
X125453290Y-90254988D01*
X125356349Y-90128650D01*
X125230011Y-90031709D01*
X125230008Y-90031707D01*
X125082886Y-89970767D01*
X124964639Y-89955200D01*
X124377400Y-89955200D01*
X124377400Y-90715777D01*
X124262535Y-90685000D01*
X124137465Y-90685000D01*
X124022600Y-90715777D01*
X124022600Y-89955200D01*
X123435361Y-89955200D01*
X123317113Y-89970767D01*
X123169991Y-90031707D01*
X123169988Y-90031709D01*
X123043650Y-90128650D01*
X122946709Y-90254988D01*
X122946707Y-90254991D01*
X122885767Y-90402113D01*
X122870200Y-90520360D01*
X122870200Y-90982600D01*
X123755778Y-90982600D01*
X123725000Y-91097465D01*
X123725000Y-91222535D01*
X123755778Y-91337400D01*
X122870200Y-91337400D01*
X122870200Y-91799639D01*
X121225500Y-91799639D01*
X121225500Y-88200700D01*
X121243093Y-88152362D01*
X121287642Y-88126642D01*
X121300700Y-88125500D01*
X170399300Y-88125500D01*
X170447638Y-88143093D01*
G37*
%TD.AperFunction*%
%TD*%
M02*
